# Blender v2.55 (sub 0) OBJ File: 'bodyparts.blend'
# www.blender.org
o Mesh.001_Mesh.011_Head
v -0.089542 -7.949934 10.685740
v 3.056128 -4.501431 11.367510
v -0.089540 -4.231717 12.513269
v -3.235209 -4.501430 11.367510
v 2.391869 -0.806966 12.085453
v -2.570950 -0.806964 12.085453
v -0.089540 0.690073 12.418752
v 2.886000 -6.625257 10.067817
v 4.232518 -1.817020 9.397171
v -4.411600 -1.817019 9.397171
v -3.065082 -6.625257 10.067817
v -0.089542 -9.003274 7.396790
v 3.065252 -1.238052 0.924373
v -0.089540 2.449856 1.816881
v -0.089540 2.349923 4.732106
v -3.244333 -1.238052 0.924373
v 2.957620 -1.333082 3.249725
v -3.136702 -1.333082 3.249725
v -0.089540 -3.833808 -0.384683
v -0.089540 -4.322632 1.222653
v 2.764844 -7.970757 7.323977
v 3.426782 -6.682784 6.641473
v -3.605864 -6.682783 6.641473
v -2.943926 -7.970757 7.323977
v 4.339828 -2.129318 6.608751
v 3.299789 -5.897008 3.826315
v -3.478871 -5.897007 3.826315
v -4.518909 -2.129317 6.608751
v -0.089540 3.495926 7.440360
v -0.089540 3.219510 10.024776
v 3.186527 1.058170 6.681656
v -3.365607 1.058170 6.681656
v 3.132872 1.779138 9.710983
v -3.311951 1.779139 9.710981
v -3.143566 -5.379068 1.041260
v 2.964483 -5.379068 1.041260
vt 0.122629 0.980475
vt 0.167013 0.968004
vt 0.167777 0.999251
vt 0.078244 0.968004
vt 0.077480 0.999252
vt 0.197466 0.970827
vt 0.047791 0.970827
vt 0.222213 0.984512
vt 0.023043 0.984512
vt 0.149916 0.960418
vt 0.184765 0.949579
vt 0.060492 0.949578
vt 0.095341 0.960418
vt 0.122629 0.947813
vt 0.169238 0.873824
vt 0.230822 0.881822
vt 0.241950 0.902594
vt 0.003307 0.902593
vt 0.014436 0.881820
vt 0.076020 0.873824
vt 0.175728 0.897223
vt 0.069530 0.897223
vt 0.120981 0.873746
vt 0.124278 0.873746
vt 0.122629 0.886158
vt 0.142697 0.944445
vt 0.148628 0.939534
vt 0.096629 0.939534
vt 0.102560 0.944445
vt 0.178943 0.931568
vt 0.143114 0.928040
vt 0.102144 0.928040
vt 0.066315 0.931568
vt 0.241311 0.926492
vt 0.003946 0.926491
vt 0.241320 0.954769
vt 0.003937 0.954769
vt 0.204604 0.927594
vt 0.040653 0.927594
vt 0.210494 0.948903
vt 0.034763 0.948903
vt 0.093837 0.905922
vt 0.151421 0.905922
vn 0.000000 -0.682638 0.730735
vn 0.609729 -0.272683 0.744194
vn 0.000000 -0.185827 0.982574
vn -0.609729 -0.272683 0.744194
vn 0.541063 0.248390 0.803430
vn -0.541063 0.248390 0.803430
vn 0.000000 0.359783 0.933012
vn 0.732017 -0.570574 0.372234
vn 0.974731 0.033540 0.220710
vn -0.974731 0.033540 0.220710
vn -0.732017 -0.570574 0.372234
vn 0.000000 -0.929411 0.369030
vn 0.974364 0.221931 0.036470
vn 0.000000 0.999390 0.034242
vn 0.000000 0.994598 -0.103580
vn -0.974364 0.221931 0.036470
vn 0.870388 0.270699 -0.411206
vn -0.870388 0.270699 -0.411206
vn 0.000000 -0.990509 -0.137242
vn 0.000000 -0.146001 -0.989257
vn 0.669912 -0.677847 0.302805
vn 0.963561 -0.258827 0.067080
vn -0.963561 -0.258827 0.067080
vn -0.669912 -0.677847 0.302805
vn 0.988495 0.052767 -0.141606
vn 0.976196 -0.178503 -0.123112
vn -0.976196 -0.178503 -0.123112
vn -0.988495 0.052767 -0.141606
vn 0.000000 0.947783 -0.318827
vn 0.000000 0.916044 0.401013
vn 0.765038 0.617298 -0.183355
vn -0.765038 0.617298 -0.183355
vn 0.749077 0.595203 0.290841
vn -0.749077 0.595203 0.290841
vn -0.812250 0.202063 -0.547136
vn 0.812250 0.202063 -0.547136
usemtl None_texture_armor.pn
s 1
f 1/1/1 2/2/2 3/3/3
f 4/4/4 1/1/1 3/5/3
f 2/2/2 5/6/5 3/3/3
f 3/5/3 6/7/6 4/4/4
f 5/6/5 7/8/7 3/3/3
f 3/5/3 7/9/7 6/7/6
f 8/10/8 9/11/9 2/2/2
f 4/4/4 10/12/10 11/13/11
f 9/11/9 5/6/5 2/2/2
f 4/4/4 6/7/6 10/12/10
f 8/10/8 1/1/1 12/14/12
f 1/1/1 11/13/11 12/14/12
f 13/15/13 14/16/14 15/17/15
f 15/18/15 14/19/14 16/20/16
f 13/15/13 15/17/15 17/21/17
f 18/22/18 15/18/15 16/20/16
f 19/23/19 13/15/13 17/21/17
f 18/22/18 16/20/16 19/24/19
f 19/23/19 17/21/17 20/25/20
f 20/25/20 18/22/18 19/24/19
f 8/10/8 21/26/21 22/27/22
f 23/28/23 24/29/24 11/13/11
f 21/26/21 8/10/8 12/14/12
f 12/14/12 11/13/11 24/29/24
f 25/30/25 22/27/22 26/31/26
f 27/32/27 23/28/23 28/33/28
f 17/21/17 15/17/15 29/34/29
f 29/35/29 15/18/15 18/22/18
f 30/36/30 7/8/7 5/6/5
f 6/7/6 7/9/7 30/37/30
f 22/27/22 25/30/25 9/11/9
f 10/12/10 28/33/28 23/28/23
f 9/11/9 8/10/8 22/27/22
f 23/28/23 11/13/11 10/12/10
f 1/1/1 8/10/8 2/2/2
f 11/13/11 1/1/1 4/4/4
f 29/34/29 31/38/31 17/21/17
f 18/22/18 32/39/32 29/35/29
f 31/38/31 25/30/25 17/21/17
f 18/22/18 28/33/28 32/39/32
f 9/11/9 33/40/33 5/6/5
f 6/7/6 34/41/34 10/12/10
f 33/40/33 30/36/30 5/6/5
f 6/7/6 30/37/30 34/41/34
f 30/36/30 33/40/33 31/38/31
f 32/39/32 34/41/34 30/37/30
f 30/36/30 31/38/31 29/34/29
f 29/35/29 32/39/32 30/37/30
f 25/30/25 31/38/31 9/11/9
f 10/12/10 32/39/32 28/33/28
f 31/38/31 33/40/33 9/11/9
f 10/12/10 34/41/34 32/39/32
f 35/42/35 18/22/18 20/25/20
f 17/21/17 36/43/36 20/25/20
f 25/30/25 26/31/26 36/43/36
f 36/43/36 17/21/17 25/30/25
f 28/33/28 18/22/18 35/42/35
f 35/42/35 27/32/27 28/33/28
