# Blender v2.55 (sub 0) OBJ File: 'arm.blend'
# www.blender.org
o Head
v -0.089542 10.685740 5.011031
v 3.056128 11.367510 1.562528
v -0.089540 12.513269 1.292814
v -3.235209 11.367510 1.562526
v 2.391869 12.085453 -2.131938
v -2.570950 12.085453 -2.131940
v -0.089540 12.418751 -3.628976
v 1.135228 4.868334 5.589004
v -1.314312 4.868334 5.589002
v -0.089542 4.269915 5.465422
v -0.089540 1.222653 1.383729
v 1.051590 0.604537 4.472268
v -0.089542 0.532403 4.740511
v -1.230674 0.604537 4.472266
v 2.886000 10.067817 3.686354
v 4.232518 9.397171 -1.121883
v -4.411600 9.397171 -1.121885
v -3.065082 10.067817 3.686354
v -0.089542 7.396790 6.064370
v 3.299789 5.541999 4.402893
v -3.478871 5.541999 4.402891
v 3.426782 6.641473 3.743881
v -3.605864 6.641473 3.743880
v 3.065252 0.924373 -1.700851
v -0.089540 1.816881 -5.388759
v -0.089540 4.732106 -5.288826
v -3.244333 0.924373 -1.700851
v 2.957620 3.249725 -1.605821
v -3.136702 3.249725 -1.605821
v -0.089540 -0.384683 0.894905
v 2.764844 7.323977 5.031854
v -2.943926 7.323977 5.031853
v 4.339828 6.608751 -0.809586
v -4.518909 6.608751 -0.809587
v -0.089540 7.440359 -6.434829
v -0.089540 10.024777 -6.158413
v 3.248053 6.236223 -0.539372
v -3.427134 6.236223 -0.539373
v 3.186527 6.681656 -3.997073
v -3.365607 6.681656 -3.997073
v 3.132872 9.710982 -4.718041
v -3.311951 9.710982 -4.718042
v -3.143566 2.305449 0.814779
v 2.964483 2.305449 0.814779
vt 0.122629 0.980475
vt 0.167013 0.968004
vt 0.167777 0.999251
vt 0.078244 0.968004
vt 0.077480 0.999252
vt 0.197466 0.970827
vt 0.047791 0.970827
vt 0.222213 0.984512
vt 0.023043 0.984512
vt 0.122629 0.886158
vt 0.127999 0.902470
vt 0.122629 0.902948
vt 0.117259 0.902470
vt 0.122629 0.924851
vt 0.129088 0.927600
vt 0.116169 0.927600
vt 0.149916 0.960418
vt 0.184765 0.949579
vt 0.060492 0.949578
vt 0.095341 0.960418
vt 0.122629 0.947813
vt 0.169238 0.873824
vt 0.230822 0.881822
vt 0.241950 0.902594
vt 0.003307 0.902593
vt 0.014436 0.881820
vt 0.076020 0.873824
vt 0.175728 0.897223
vt 0.069530 0.897223
vt 0.120981 0.873746
vt 0.124278 0.873746
vt 0.142697 0.944445
vt 0.148628 0.939534
vt 0.096629 0.939534
vt 0.102560 0.944445
vt 0.178943 0.931568
vt 0.143114 0.928040
vt 0.102144 0.928040
vt 0.066315 0.931568
vt 0.241311 0.926492
vt 0.003946 0.926491
vt 0.241320 0.954769
vt 0.003937 0.954769
vt 0.204604 0.927594
vt 0.040653 0.927594
vt 0.210494 0.948903
vt 0.034763 0.948903
vt 0.093837 0.905922
vt 0.151421 0.905922
vn 0.000000 0.730735 0.682638
vn 0.609729 0.744194 0.272683
vn 0.000000 0.982574 0.185827
vn -0.609729 0.744194 0.272683
vn 0.541063 0.803430 -0.248390
vn -0.541063 0.803430 -0.248390
vn 0.000000 0.933012 -0.359783
vn 0.000000 -0.997650 -0.068300
vn 0.517869 -0.746483 0.417798
vn 0.000000 -0.636921 0.770898
vn -0.517869 -0.746483 0.417798
vn 0.000000 -0.190405 0.981689
vn 0.257271 -0.228187 0.938994
vn -0.257271 -0.228187 0.938994
vn 0.732017 0.372234 0.570574
vn 0.974731 0.220710 -0.033540
vn -0.974731 0.220710 -0.033540
vn -0.732017 0.372234 0.570574
vn 0.000000 0.369030 0.929411
vn 0.974364 0.036470 -0.221931
vn 0.000000 0.034242 -0.999390
vn 0.000000 -0.103580 -0.994598
vn -0.974364 0.036470 -0.221931
vn 0.879849 -0.411237 -0.238166
vn -0.879849 -0.411237 -0.238166
vn 0.000000 -0.137242 0.990509
vn 0.669912 0.302805 0.677847
vn 0.961638 0.092837 0.258034
vn -0.961638 0.092837 0.258034
vn -0.669912 0.302805 0.677847
vn 0.988311 -0.144475 -0.048463
vn 0.893460 -0.233009 0.383923
vn -0.893460 -0.233009 0.383923
vn -0.988311 -0.144475 -0.048463
vn 0.000000 -0.318827 -0.947783
vn 0.000000 0.401013 -0.916044
vn 0.765038 -0.183355 -0.617298
vn -0.765038 -0.183355 -0.617298
vn 0.749077 0.290841 -0.595203
vn -0.749077 0.290841 -0.595203
vn -0.756676 -0.648427 -0.083254
vn 0.756676 -0.648427 -0.083254
usemtl (null)
s 1
f 1/1/1 2/2/2 3/3/3
f 4/4/4 1/1/1 3/5/3
f 2/2/2 5/6/5 3/3/3
f 3/5/3 6/7/6 4/4/4
f 5/6/5 7/8/7 3/3/3
f 3/5/3 7/9/7 6/7/6
f 11/10/8 12/11/9 13/12/10
f 13/12/10 14/13/11 11/10/8
f 10/14/12 13/12/10 8/15/13
f 9/16/14 13/12/10 10/14/12
f 13/12/10 12/11/9 8/15/13
f 9/16/14 14/13/11 13/12/10
f 15/17/15 16/18/16 2/2/2
f 4/4/4 17/19/17 18/20/18
f 16/18/16 5/6/5 2/2/2
f 4/4/4 6/7/6 17/19/17
f 15/17/15 1/1/1 19/21/19
f 1/1/1 18/20/18 19/21/19
f 24/22/20 25/23/21 26/24/22
f 26/25/22 25/26/21 27/27/23
f 24/22/20 26/24/22 28/28/24
f 29/29/25 26/25/22 27/27/23
f 30/30/26 24/22/20 28/28/24
f 29/29/25 27/27/23 30/31/26
f 30/30/26 28/28/24 11/10/8
f 11/10/8 29/29/25 30/31/26
f 15/17/15 31/32/27 22/33/28
f 23/34/29 32/35/30 18/20/18
f 31/32/27 15/17/15 19/21/19
f 19/21/19 18/20/18 32/35/30
f 33/36/31 22/33/28 20/37/32
f 21/38/33 23/34/29 34/39/34
f 28/28/24 26/24/22 35/40/35
f 35/41/35 26/25/22 29/29/25
f 36/42/36 7/8/7 5/6/5
f 6/7/6 7/9/7 36/43/36
f 22/33/28 33/36/31 16/18/16
f 17/19/17 34/39/34 23/34/29
f 16/18/16 15/17/15 22/33/28
f 23/34/29 18/20/18 17/19/17
f 1/1/1 15/17/15 2/2/2
f 18/20/18 1/1/1 4/4/4
f 35/40/35 39/44/37 28/28/24
f 29/29/25 40/45/38 35/41/35
f 39/44/37 33/36/31 28/28/24
f 29/29/25 34/39/34 40/45/38
f 16/18/16 41/46/39 5/6/5
f 6/7/6 42/47/40 17/19/17
f 41/46/39 36/42/36 5/6/5
f 6/7/6 36/43/36 42/47/40
f 36/42/36 41/46/39 39/44/37
f 40/45/38 42/47/40 36/43/36
f 36/42/36 39/44/37 35/40/35
f 35/41/35 40/45/38 36/43/36
f 33/36/31 39/44/37 16/18/16
f 17/19/17 40/45/38 34/39/34
f 39/44/37 41/46/39 16/18/16
f 17/19/17 42/47/40 40/45/38
f 14/13/11 43/48/41 11/10/8
f 43/48/41 29/29/25 11/10/8
f 28/28/24 44/49/42 11/10/8
f 44/49/42 12/11/9 11/10/8
f 33/36/31 20/37/32 44/49/42
f 44/49/42 28/28/24 33/36/31
f 34/39/34 29/29/25 43/48/41
f 43/48/41 21/38/33 34/39/34
f 12/11/9 44/49/42 20/37/32
f 20/37/32 8/15/13 12/11/9
f 21/38/33 43/48/41 14/13/11
f 14/13/11 9/16/14 21/38/33
