# Blender v2.55 (sub 0) OBJ File: 'weapons.blend'
# www.blender.org
o Mesh.027_Mesh_Mesh.axe
v -22.532032 -0.009379 -0.010787
v -22.625036 -0.009379 -1.091244
v -22.625034 -1.196638 -1.091244
v -22.532032 -1.196638 -0.010787
v -22.625036 -0.009378 1.069671
v -22.625036 -1.196638 1.069671
v -15.986810 -0.009394 1.069676
v -15.986810 -1.196655 1.069676
v -16.079813 -1.196655 -0.010781
v -16.079815 -0.009392 -0.010781
v -15.986810 -0.009394 -1.091238
v -15.986810 -1.196655 -1.091238
v -24.902731 -0.009382 6.053790
v -24.210667 -0.603012 4.709539
v -22.051119 -0.603014 5.854363
v -22.334894 -0.009382 7.301797
v -19.305923 -0.603016 6.337607
v -19.305923 -0.009386 7.904298
v -16.560726 -0.603018 5.854363
v -16.276953 -0.009386 7.301797
v -14.401179 -0.603019 4.709539
v -13.709115 -0.009388 6.053790
v -22.532034 1.177885 -0.010787
v -22.625036 1.177885 -1.091244
v -22.625036 1.177883 1.069671
v -16.079815 1.177870 -0.010781
v -15.986810 1.177870 1.069676
v -15.986810 1.177870 -1.091238
v -22.051121 0.584249 5.854363
v -24.210667 0.584248 4.709539
v -19.305923 0.584246 6.337607
v -16.560726 0.584246 5.854363
v -14.401179 0.584244 4.709539
v -19.305923 -0.959194 3.121946
v -19.305923 0.940424 3.121946
v 6.953855 0.004992 -0.018658
v 6.953855 -0.528804 -0.549430
v 6.953855 0.001526 -0.769099
v -19.291697 0.001526 -0.769099
v -19.291697 -0.528803 -0.549429
v 6.953855 0.531857 -0.549430
v -19.291697 0.531858 -0.549430
v 6.953855 0.751526 -0.019099
v -19.291697 0.751528 -0.019099
v 6.953855 0.531857 0.511231
v -19.291697 0.531857 0.511231
v 6.953855 0.001526 0.730901
v -19.291697 0.001526 0.730901
v 6.953854 -0.528804 0.511231
v -19.291697 -0.528803 0.511230
v 6.953855 -0.748474 -0.019099
v -19.291697 -0.748472 -0.019100
v -14.401179 -0.009388 4.709539
v -24.210667 -0.009382 4.709539
vt 0.405169 0.821268
vt 0.405885 0.827682
vt 0.393176 0.829190
vt 0.517186 0.831783
vt 0.518521 0.825592
vt 0.529538 0.835434
vt 0.439018 0.818634
vt 0.435551 0.804665
vt 0.485471 0.817312
vt 0.490115 0.804067
vt 0.491002 0.725951
vt 0.523033 0.717505
vt 0.523711 0.723735
vt 0.493910 0.739284
vt 0.410101 0.719333
vt 0.438075 0.738994
vt 0.441804 0.726584
vt 0.475662 0.811437
vt 0.466585 0.800974
vt 0.474403 0.794695
vt 0.482120 0.798929
vt 0.485820 0.742287
vt 0.481338 0.729804
vt 0.470507 0.736613
vt 0.479184 0.746220
vt 0.528941 0.804143
vt 0.541404 0.808719
vt 0.534254 0.775557
vt 0.547770 0.776678
vt 0.531786 0.746473
vt 0.544463 0.744047
vt 0.535400 0.716020
vt 0.462800 0.805061
vt 0.449951 0.814531
vt 0.443942 0.800701
vt 0.452652 0.795012
vt 0.450851 0.731067
vt 0.445902 0.742902
vt 0.459275 0.739620
vt 0.452256 0.745945
vt 0.384030 0.800432
vt 0.396908 0.798047
vt 0.380996 0.767436
vt 0.394509 0.768698
vt 0.387629 0.735770
vt 0.399886 0.740366
vt 0.399374 0.709805
vt 0.508099 0.773200
vt 0.420647 0.770762
vt 0.622327 0.214718
vt 0.614064 0.266412
vt 0.605759 0.240241
vt 0.589402 0.214718
vt 0.605759 0.246630
vt 0.596423 0.269856
vt 0.588731 0.274145
vt 0.581139 0.266412
vt 0.572834 0.240241
vt 0.638684 0.246630
vt 0.629349 0.269856
vt 0.621656 0.274144
vt 0.615095 0.509547
vt 0.605759 0.532773
vt 0.605759 0.539163
vt 0.597454 0.512992
vt 0.589862 0.505259
vt 0.582170 0.509548
vt 0.572834 0.532774
vt 0.638684 0.539163
vt 0.630379 0.512991
vt 0.622787 0.505259
vt 0.411351 0.713345
vn -0.889090 0.000000 -0.457733
vn -0.916786 0.000000 -0.399378
vn 0.916786 0.000000 -0.399379
vn -0.916786 0.000000 0.399379
vn -0.996316 -0.000001 0.085761
vn -0.996316 0.000000 -0.085761
vn 0.996316 0.000001 -0.085761
vn 0.996316 0.000001 0.085761
vn -0.169527 -0.926869 0.334925
vn -0.067717 -0.930443 0.360125
vn 0.067716 -0.930443 0.360126
vn 0.169527 -0.926869 0.334926
vn -0.996316 -0.000001 -0.085760
vn 0.996316 -0.000000 -0.085762
vn 0.996316 0.000000 0.085762
vn -0.169527 0.926869 0.334925
vn -0.067715 0.930443 0.360126
vn 0.067716 0.930443 0.360126
vn 0.169528 0.926868 0.334925
vn 0.000002 1.000000 0.000000
vn -0.000003 -1.000000 -0.000000
vn 0.000002 1.000000 0.000001
vn -0.000003 -0.993373 0.114936
vn 0.000002 0.993373 0.114935
vn -0.044882 -0.995398 0.084662
vn -0.044881 0.995399 0.084661
vn -0.019377 -0.993735 0.110070
vn -0.019375 0.993735 0.110070
vn 0.019375 -0.993735 0.110070
vn 0.019376 0.993735 0.110070
vn 0.044881 -0.995398 0.084662
vn 0.044882 0.995398 0.084661
vn 1.000000 0.000000 -0.000000
vn 1.000000 -0.000002 -0.000000
vn 1.000000 -0.000000 0.000002
vn -0.000000 -0.382683 -0.923880
vn 0.000000 0.382681 -0.923881
vn 0.000000 0.923880 -0.382682
vn 0.000000 0.923880 0.382683
vn 0.000000 0.382683 0.923880
vn -0.000000 -0.382685 0.923879
vn -0.000000 -0.923880 0.382683
vn -0.000000 -0.923880 -0.382683
vn 0.000001 0.000000 -1.000000
vn 0.022813 0.988235 0.151233
vn 0.022811 -0.988234 0.151237
vn -0.022814 -0.988235 0.151233
vn -0.022811 0.988234 0.151236
vn 0.889090 0.000000 -0.457733
usemtl (null).002
s off
f 30/1/1 54/2/1 13/3/1
f 54/4/1 14/5/1 13/6/1
f 5/7/2 54/2/2 30/1/2 25/8/2
f 5/9/2 6/10/2 14/5/2 54/4/2
f 7/11/3 53/12/3 21/13/3 8/14/3
f 7/15/4 53/15/4 33/16/4 27/17/4
usemtl None_texture_swor.002
f 1/18/5 2/19/5 3/20/5 4/21/5
f 5/9/6 1/18/6 4/21/6 6/10/6
f 7/11/7 8/14/7 9/22/7 10/23/7
f 11/24/8 10/23/8 9/22/8 12/25/8
f 13/6/9 14/5/9 15/26/9 16/27/9
f 16/27/10 15/26/10 17/28/10 18/29/10
f 18/29/11 17/28/11 19/30/11 20/31/11
f 20/31/12 19/30/12 21/13/12 22/32/12
f 2/33/5 1/34/5 23/35/5 24/36/5
f 1/34/13 5/7/13 25/8/13 23/35/13
f 10/37/14 26/38/14 27/16/14 7/17/14
f 10/37/15 11/39/15 28/40/15 26/38/15
f 16/41/16 29/42/16 30/1/16 13/3/16
f 18/43/17 31/44/17 29/42/17 16/41/17
f 20/45/18 32/46/18 31/44/18 18/43/18
f 22/47/19 33/15/19 32/46/19 20/45/19
f 24/36/20 23/35/20 26/38/20 28/40/20
f 3/20/21 12/25/21 9/22/21 4/21/21
f 6/10/21 4/21/21 9/22/21 8/14/21
f 25/8/22 27/16/22 26/38/22 23/35/22
f 34/48/23 6/10/23 8/14/23
f 35/49/24 27/16/24 25/8/24
f 14/5/25 34/48/25 15/26/25
f 30/1/26 29/42/26 35/49/26
f 15/26/27 34/48/27 17/28/27
f 29/42/28 31/44/28 35/49/28
f 17/28/29 34/48/29 19/30/29
f 31/44/30 32/46/30 35/49/30
f 19/30/31 34/48/31 21/13/31
f 32/46/32 33/15/32 35/49/32
f 36/50/33 37/51/33 38/52/33
f 36/53/33 38/54/33 41/55/33
f 36/53/33 41/55/33 43/56/33
f 36/53/33 43/56/33 45/57/33
f 36/53/33 45/57/33 47/58/33
f 36/50/34 47/59/34 49/60/34
f 36/50/35 49/60/35 51/61/35
f 36/50/33 51/61/33 37/51/33
f 37/51/36 40/62/36 39/63/36 38/52/36
f 38/54/37 39/64/37 42/65/37 41/55/37
f 41/55/38 42/65/38 44/66/38 43/56/38
f 43/56/39 44/66/39 46/67/39 45/57/39
f 45/57/40 46/67/40 48/68/40 47/58/40
f 47/59/41 48/69/41 50/70/41 49/60/41
f 49/60/42 50/70/42 52/71/42 51/61/42
f 51/61/43 52/71/43 40/62/43 37/51/43
f 2/33/44 24/36/44 28/40/44 11/39/44
f 3/20/44 2/19/44 11/24/44 12/25/44
f 27/16/45 35/49/45 33/15/45
f 8/14/46 21/13/46 34/48/46
f 6/10/47 34/48/47 14/5/47
f 25/8/48 30/1/48 35/49/48
f 21/13/49 53/12/49 22/32/49
f 53/72/49 33/15/49 22/47/49
