# Blender v2.55 (sub 0) OBJ File: 'weapons.blend'
# www.blender.org
o Mesh.001_Mesh.bastardsword
v 5.606328 0.014108 0.015572
v 5.606328 -0.737188 -0.567799
v 5.606328 0.133069 -0.804248
v -3.113802 0.133071 -0.804248
v -3.113802 -0.737199 -0.567799
v 5.606328 0.913749 -0.423358
v -3.113802 0.913750 -0.423358
v 5.606328 1.016980 0.288052
v -3.113803 1.016982 0.288052
v 5.606328 0.365029 0.794271
v -3.113802 0.365031 0.794271
v 5.606328 -0.551181 0.714112
v -3.113802 -0.551179 0.714112
v 5.606328 -1.041709 0.107942
v -3.113802 -1.041707 0.107932
v -34.049530 0.000591 1.535673
v -34.049530 0.331501 1.089415
v -50.101685 0.000595 0.012041
v -34.049530 -0.330315 1.089415
v -34.049530 -0.467377 0.012041
v -34.049530 -0.330315 -1.065334
v -34.049530 0.000595 -1.511599
v -34.049530 0.331501 -1.065334
v -34.049530 0.468575 0.012041
v -4.970419 -1.054188 4.967091
v -4.970419 1.070812 4.967091
v -4.970419 1.070811 -4.932909
v -4.970419 -1.054189 -4.932909
v -3.095442 -1.054189 4.967091
v -3.095442 1.070811 4.967091
v -3.095442 -1.054189 -4.932909
v -3.095442 1.070811 -4.932909
v -7.198017 0.424619 0.012041
v -7.198017 0.255125 1.344289
v -7.198017 0.409793 -1.320214
v -7.198017 0.000598 -1.872049
v -7.198017 -0.408593 -1.320214
v -7.198017 -0.542588 0.012041
v -7.198017 -0.408593 1.344289
v -7.198017 0.000597 1.896130
v -4.924813 0.000598 1.678803
v -4.924813 0.362586 1.190620
v -4.924813 -0.361398 1.190620
v -4.924813 -0.511342 0.012041
v -4.924813 -0.361398 -1.166547
v -4.924813 0.000598 -1.654730
v -4.924813 0.362586 -1.166547
v -4.924813 0.512534 0.012041
v -3.095442 0.008311 -4.932909
v -4.970419 0.008311 4.967091
v -4.970419 0.008312 -4.932909
v -3.095442 0.008311 4.967091
vt 0.348546 0.312388
vt 0.344318 0.304727
vt 0.351492 0.304727
vt 0.353872 0.312388
vt 0.358684 0.304727
vt 0.362220 0.312388
vt 0.365871 0.304727
vt 0.370864 0.312388
vt 0.373036 0.304727
vt 0.325722 0.312388
vt 0.322766 0.304727
vt 0.329942 0.304727
vt 0.332061 0.312388
vt 0.337131 0.304727
vt 0.342602 0.312388
vt 0.346686 0.774540
vt 0.327581 0.773391
vt 0.309265 0.987002
vt 0.202575 0.772080
vt 0.184739 0.773214
vt 0.219948 0.987002
vt 0.219948 0.772126
vt 0.237321 0.772080
vt 0.255158 0.773214
vt 0.290272 0.773467
vt 0.271101 0.774730
vt 0.308931 0.773480
vt 0.418064 0.113576
vt 0.348868 0.110805
vt 0.348479 0.088497
vt 0.420083 0.091271
vt 0.365874 0.249775
vt 0.373039 0.249775
vt 0.358688 0.249775
vt 0.351495 0.249775
vt 0.344321 0.249775
vt 0.347846 0.061856
vt 0.345659 0.039105
vt 0.419634 0.041949
vt 0.419444 0.064957
vt 0.337134 0.249775
vt 0.329945 0.249775
vt 0.322770 0.249775
vt 0.432993 0.027502
vt 0.439184 0.077204
vt 0.436011 0.125768
vt 0.433744 0.077366
vt 0.328236 0.125768
vt 0.335952 0.077204
vt 0.332354 0.027804
vt 0.328236 0.077204
vt 0.243140 0.372959
vt 0.243356 0.409846
vt 0.260898 0.409642
vt 0.255786 0.372940
vt 0.219579 0.373332
vt 0.218484 0.408975
vt 0.196020 0.372959
vt 0.193612 0.409846
vt 0.183373 0.372941
vt 0.176070 0.409643
vt 0.329347 0.374110
vt 0.334171 0.412020
vt 0.350473 0.412072
vt 0.341182 0.374371
vt 0.307318 0.374806
vt 0.309095 0.410983
vt 0.285416 0.375032
vt 0.284126 0.412071
vt 0.273637 0.375255
vt 0.266375 0.412030
vn 1.000000 0.000000 -0.000000
vn 1.000000 -0.000000 -0.000001
vn 1.000000 -0.000001 0.000000
vn -0.056446 0.801977 0.594683
vn -0.056446 -0.801980 0.594678
vn -0.028908 -0.991590 0.126149
vn -0.028908 -0.991590 -0.126149
vn -0.056446 -0.801981 -0.594677
vn -0.056445 0.801984 -0.594672
vn -0.028908 0.991589 -0.126159
vn -0.028908 0.991589 0.126159
vn 0.000000 1.000000 -0.000000
vn 0.000000 0.613296 0.789853
vn 0.000000 0.989635 -0.143605
vn 0.000000 0.438490 -0.898736
vn 0.000000 -0.262193 -0.965015
vn -0.000000 -1.000000 0.000000
vn 0.000001 -0.911703 -0.410851
vn -0.000001 -0.777361 0.629055
vn -0.000000 -0.087157 0.996195
vn -0.000000 0.000000 -1.000000
vn 0.000000 0.000000 1.000000
vn -1.000000 0.000000 -0.000000
vn 0.056850 -0.801961 -0.594665
vn 0.020938 -0.993449 -0.112344
vn 0.020938 -0.993449 0.112345
vn 0.056851 -0.801963 0.594662
vn 0.021274 0.860022 0.509813
vn -0.038336 0.991274 0.126116
vn -0.006721 0.997831 -0.065483
vn 0.056851 0.801963 -0.594662
vn -0.007996 0.803236 -0.595607
vn -0.000937 0.998019 -0.062914
vn 0.001624 0.992002 0.126209
vn -0.007995 -0.803236 -0.595607
vn -0.003371 -0.993727 -0.111783
vn -0.003371 -0.993727 0.111784
vn -0.007995 -0.803237 0.595605
vn -0.004570 0.862559 0.505936
usemtl (null).001_texture_weapons.png
s off
f 1/1/1 2/2/1 3/3/1
f 1/4/1 3/3/1 6/5/1
f 1/6/2 6/5/2 8/7/2
f 1/8/3 8/7/3 10/9/3
f 1/10/1 10/11/1 12/12/1
f 1/13/1 12/12/1 14/14/1
f 2/2/1 1/15/1 14/14/1
f 16/16/4 17/17/4 18/18/4
f 19/19/5 16/20/5 18/21/5
f 20/22/6 19/19/6 18/21/6
f 21/23/7 20/22/7 18/21/7
f 22/24/8 21/23/8 18/21/8
f 23/25/9 22/26/9 18/18/9
f 24/27/10 23/25/10 18/18/10
f 24/27/11 18/18/11 17/17/11
f 27/28/12 26/29/12 30/30/12 32/31/12
f 8/7/13 9/32/13 11/33/13 10/9/13
f 7/34/14 9/32/14 8/7/14 6/5/14
f 4/35/15 7/34/15 6/5/15 3/3/15
f 5/36/16 4/35/16 3/3/16 2/2/16
f 29/37/17 25/38/17 28/39/17 31/40/17
f 2/2/18 14/14/18 15/41/18 5/36/18
f 12/12/19 13/42/19 15/41/19 14/14/19
f 10/11/20 11/43/20 13/42/20 12/12/20
f 28/39/21 51/44/21 49/45/21 31/40/21
f 51/46/21 27/28/21 32/31/21 49/47/21
f 26/29/22 50/48/22 52/49/22 30/30/22
f 50/50/22 25/38/22 29/37/22 52/51/22
f 27/28/23 51/46/23 50/48/23 26/29/23
f 51/44/23 28/39/23 25/38/23 50/50/23
f 31/40/1 49/45/1 52/51/1 29/37/1
f 49/47/1 32/31/1 30/30/1 52/49/1
f 45/52/24 37/53/24 36/54/24 46/55/24
f 44/56/25 38/57/25 37/53/25 45/52/25
f 44/56/26 43/58/26 39/59/26 38/57/26
f 43/58/27 41/60/27 40/61/27 39/59/27
f 42/62/28 34/63/28 40/64/28 41/65/28
f 48/66/29 33/67/29 34/63/29 42/62/29
f 48/66/30 47/68/30 35/69/30 33/67/30
f 47/68/31 46/70/31 36/71/31 35/69/31
f 36/71/32 22/26/32 23/25/32 35/69/32
f 35/69/33 23/25/33 24/27/33 33/67/33
f 34/63/34 33/67/34 24/27/34 17/17/34
f 36/54/35 37/53/35 21/23/35 22/24/35
f 37/53/36 38/57/36 20/22/36 21/23/36
f 39/59/37 19/19/37 20/22/37 38/57/37
f 40/61/38 16/20/38 19/19/38 39/59/38
f 40/64/39 34/63/39 17/17/39 16/16/39
