# Blender v2.55 (sub 0) OBJ File: 'weapons.blend'
# www.blender.org
o Mesh.010_Mesh.longsword
v -39.269363 0.127521 -0.467664
v -35.709785 -0.061672 0.195439
v -40.081802 -0.061676 -0.467664
v -35.675194 0.106110 -0.112441
v -39.269371 -0.257305 -0.467664
v -35.675194 -0.229458 -0.112441
v 3.364545 -0.061676 0.062610
v 2.587942 -0.061676 -0.499889
v 2.587942 0.268953 -0.392461
v 2.587942 -0.392305 -0.392460
v 2.587942 -0.596646 -0.111210
v 2.587942 -0.596645 0.236434
v 2.587942 -0.392305 0.517683
v 2.587942 -0.061676 0.625111
v 2.587942 0.268953 0.517683
v 2.587942 0.473293 0.236433
v 2.587942 0.473293 -0.111211
v -3.444849 -0.288569 -0.467664
v -3.444844 0.158783 -0.467664
v -11.874784 0.151427 -0.467664
v -11.874790 -0.281212 -0.467664
v -20.304508 0.144070 -0.467664
v -20.304514 -0.273855 -0.467664
v -28.727615 0.136721 -0.467664
v -28.727623 -0.266504 -0.467664
v -3.444822 0.134232 0.248165
v -11.870788 0.126879 0.153878
v -20.299984 0.119524 0.059574
v -28.722565 0.112175 -0.034656
v -3.444822 -0.257586 0.248165
v -11.870788 -0.250232 0.153878
v -20.299984 -0.242876 0.059574
v -28.722565 -0.235525 -0.034656
v -3.444822 -0.061675 0.556413
v -11.874239 -0.061675 0.462107
v -20.303438 -0.061674 0.367803
v -28.726021 -0.061672 0.273572
v 2.587942 0.473293 -0.111211
v -2.848285 0.473295 -0.111210
v -2.848285 0.473293 0.236435
v 2.587942 0.473293 0.236434
v 2.587942 0.268953 -0.392461
v -2.848285 0.268955 -0.392460
v -2.848285 0.268953 0.517683
v 2.587942 0.268953 0.517683
v -2.848285 -0.061677 0.625110
v 2.587942 -0.061676 0.625110
v -2.848285 -0.392306 0.517683
v 2.587942 -0.392305 0.517683
v -2.848285 -0.596645 0.236432
v 2.587942 -0.596646 0.236433
v -2.848285 -0.596644 -0.111213
v 2.587942 -0.596646 -0.111211
v -2.848285 -0.392304 -0.392462
v 2.587942 -0.392305 -0.392461
v 2.587942 -0.061676 -0.499890
v -2.848285 -0.061675 -0.499890
v -3.441566 -0.061676 -2.586047
v -2.848285 -0.061676 -2.586047
v -2.848285 -0.905426 -1.422655
v -3.441566 -0.905426 -1.422655
v -3.441566 0.782074 -1.422655
v -2.848285 0.782074 -1.422655
v -2.848285 -0.905426 1.547877
v -3.441566 -0.905426 1.547877
v -2.848285 -0.061676 2.711269
v -2.848285 0.782074 1.547877
v -3.441566 0.782074 1.547877
v -3.441566 -0.061676 2.711267
vt 0.762632 0.949687
vt 0.748376 0.886389
vt 0.748376 0.979406
vt 0.762632 0.886199
vt 0.748376 0.886513
vt 0.762632 0.949798
vt 0.748376 0.978777
vt 0.762632 0.886640
vt 0.325705 0.355462
vt 0.315343 0.347773
vt 0.318857 0.344526
vt 0.328972 0.326105
vt 0.319965 0.340489
vt 0.315343 0.336218
vt 0.325826 0.342782
vt 0.332119 0.342782
vt 0.337980 0.340489
vt 0.342602 0.336218
vt 0.332554 0.344526
vt 0.336068 0.347773
vt 0.328098 0.342782
vt 0.323313 0.342782
vt 0.778002 0.959027
vt 0.769176 0.950557
vt 0.761499 0.975733
vt 0.834347 0.875189
vt 0.801980 0.875189
vt 0.801763 0.809463
vt 0.834130 0.809463
vt 0.801871 0.725289
vt 0.834238 0.725289
vt 0.802178 0.635501
vt 0.834546 0.635501
vt 0.796497 0.892133
vt 0.796497 0.945955
vt 0.781990 0.946105
vt 0.781990 0.892283
vt 0.783000 0.882201
vt 0.764667 0.882379
vt 0.766024 0.752266
vt 0.784357 0.752266
vt 0.762632 0.623129
vt 0.780966 0.623129
vt 0.762632 0.761747
vt 0.780966 0.761747
vt 0.764667 0.882625
vt 0.783000 0.882598
vt 0.750411 0.883153
vt 0.751767 0.752266
vt 0.748376 0.623129
vt 0.748376 0.761747
vt 0.750411 0.882732
vt 0.353193 0.228770
vt 0.353193 0.325487
vt 0.340541 0.326105
vt 0.340541 0.229388
vt 0.365845 0.228153
vt 0.365845 0.324870
vt 0.327942 0.325291
vt 0.327942 0.228574
vt 0.315343 0.324477
vt 0.315343 0.227760
vt 0.378497 0.227311
vt 0.365897 0.226497
vt 0.365897 0.129780
vt 0.378496 0.130593
vt 0.353298 0.225683
vt 0.353298 0.128966
vt 0.340646 0.226300
vt 0.340646 0.129583
vt 0.327995 0.226918
vt 0.327995 0.130201
vt 0.378497 0.227535
vt 0.378497 0.324253
vt 0.315343 0.227535
vt 0.315343 0.130818
vt 0.320959 0.128966
vt 0.315343 0.070361
vt 0.341403 0.088828
vt 0.338587 0.114503
vt 0.316347 0.013734
vt 0.334636 0.026666
vt 0.339182 0.053893
vt 0.425997 0.084823
vt 0.423180 0.110499
vt 0.443624 0.070361
vt 0.428179 0.049829
vt 0.462207 0.070361
vt 0.427472 0.021475
vt 0.447193 0.000000
vt 0.449241 0.128966
vn 0.126078 -0.541394 -0.831262
vn 0.041657 -0.879276 -0.474488
vn 0.127290 0.528623 -0.839258
vn 0.040100 0.879254 -0.474662
vn 0.567287 0.254482 -0.783214
vn 0.567287 -0.254484 -0.783213
vn 0.567287 -0.666241 -0.484054
vn 0.567288 -0.823519 0.000002
vn 0.567289 -0.666240 0.484053
vn 0.567289 -0.254482 0.783213
vn 0.567289 0.254482 0.783213
vn 0.567288 0.666241 0.484052
vn 0.567288 0.823519 0.000001
vn 0.567288 0.666241 -0.484053
vn -0.000000 0.000000 1.000000
vn 0.001077 -0.999326 -0.036692
vn 0.001111 -0.999087 -0.042705
vn 0.001157 -0.998694 -0.051068
vn 0.001153 -0.997984 -0.063452
vn 0.001131 0.998928 -0.046286
vn 0.001173 0.998547 -0.053865
vn 0.001231 0.997923 -0.064402
vn 0.001225 0.996795 -0.079988
vn 0.006291 0.848511 -0.529141
vn 0.006128 0.857578 -0.514317
vn 0.005961 0.866560 -0.499037
vn 0.005803 0.874682 -0.484662
vn 0.006291 -0.848515 -0.529134
vn 0.006128 -0.857583 -0.514310
vn 0.005961 -0.866566 -0.499027
vn 0.005803 -0.874688 -0.484652
vn 0.000000 1.000000 0.000003
vn 0.000000 0.809017 -0.587785
vn 0.000000 0.809016 0.587787
vn -0.000000 0.309014 0.951057
vn 0.000000 -0.309015 0.951057
vn -0.000000 -0.809018 0.587784
vn -0.000000 -1.000000 -0.000001
vn -0.000000 -0.809016 -0.587787
vn -0.000000 0.309021 -0.951055
vn 0.000000 -0.309019 -0.951056
vn 0.000000 -0.809514 -0.587100
vn 0.000000 0.809514 -0.587100
vn 0.000000 -1.000000 0.000000
vn 1.000000 0.000000 -0.000000
vn 0.000000 1.000000 -0.000000
vn -0.000001 0.809514 0.587100
vn -0.000001 -0.809514 0.587100
vn -1.000000 0.000000 0.000000
usemtl sword_blade_textu.001
s off
f 1/1/1 2/2/1 3/3/1
f 1/1/2 4/4/2 2/2/2
f 2/5/3 5/6/3 3/7/3
f 2/5/4 6/8/4 5/6/4
f 7/9/5 8/10/5 9/11/5
f 7/12/6 10/13/6 8/14/6
f 7/12/7 11/15/7 10/13/7
f 7/12/8 12/16/8 11/15/8
f 7/12/9 13/17/9 12/16/9
f 7/12/10 14/18/10 13/17/10
f 7/9/11 15/19/11 14/20/11
f 7/9/12 16/21/12 15/19/12
f 7/9/13 17/22/13 16/21/13
f 7/9/14 9/11/14 17/22/14
f 5/23/15 1/24/15 3/25/15
f 18/26/15 19/27/15 20/28/15 21/29/15
f 21/29/15 20/28/15 22/30/15 23/31/15
f 23/31/15 22/30/15 24/32/15 25/33/15
f 1/34/15 5/35/15 25/36/15 24/37/15
f 19/38/16 26/39/16 27/40/16 20/41/16
f 20/41/17 27/40/17 28/42/17 22/43/17
f 22/43/18 28/42/18 29/44/18 24/45/18
f 4/4/19 1/1/19 24/45/19 29/44/19
f 30/46/20 18/47/20 21/41/20 31/40/20
f 31/40/21 21/41/21 23/43/21 32/42/21
f 32/42/22 23/43/22 25/45/22 33/44/22
f 33/44/23 25/45/23 5/6/23 6/8/23
f 34/48/24 30/46/24 31/40/24 35/49/24
f 35/49/25 31/40/25 32/42/25 36/50/25
f 36/50/26 32/42/26 33/44/26 37/51/26
f 37/51/27 33/44/27 6/8/27 2/5/27
f 26/39/28 34/52/28 35/49/28 27/40/28
f 27/40/29 35/49/29 36/50/29 28/42/29
f 28/42/30 36/50/30 37/51/30 29/44/30
f 29/44/31 37/51/31 2/2/31 4/4/31
f 38/53/32 39/54/32 40/55/32 41/56/32
f 42/57/33 43/58/33 39/54/33 38/53/33
f 40/55/34 44/59/34 45/60/34 41/56/34
f 44/59/35 46/61/35 47/62/35 45/60/35
f 46/63/36 48/64/36 49/65/36 47/66/36
f 48/64/37 50/67/37 51/68/37 49/65/37
f 51/68/38 50/67/38 52/69/38 53/70/38
f 53/70/39 52/69/39 54/71/39 55/72/39
f 56/73/40 57/74/40 43/58/40 42/57/40
f 55/72/41 54/71/41 57/75/41 56/76/41
f 58/77/42 59/78/42 60/79/42 61/80/42
f 58/81/43 62/82/43 63/83/43 59/78/43
f 64/84/44 65/85/44 61/80/44 60/79/44
f 66/86/45 64/84/45 60/79/45 59/78/45
f 59/78/45 63/83/45 67/87/45 66/88/45
f 62/82/46 68/89/46 67/87/46 63/83/46
f 67/87/47 68/89/47 69/90/47 66/88/47
f 66/86/48 69/91/48 65/85/48 64/84/48
f 68/89/49 62/82/49 58/81/49 69/90/49
f 58/77/49 61/80/49 65/85/49 69/91/49
