# Blender v2.55 (sub 0) OBJ File: 'weapons.blend'
# www.blender.org
o Mesh.026_Maul
v -24.712135 -0.967006 -5.908617
v -24.712133 1.029253 -5.908617
v -23.731850 2.060532 0.944498
v -23.731850 -1.998284 0.944498
v -31.092419 -1.998284 0.944498
v -31.092421 2.060532 0.944498
v -30.112133 1.029253 -5.908617
v -30.112133 -0.967006 -5.908617
v -31.092419 -1.998284 3.549103
v -31.092421 2.060532 3.549103
v -23.731850 2.060532 3.549103
v -23.731850 -1.998284 3.549103
v -27.412132 -1.959791 -5.908617
v -27.412134 -4.016828 0.944498
v -27.412132 2.022038 -5.908617
v -27.412136 4.079076 0.944498
v -27.412136 4.079076 3.549103
v -27.412134 -4.016828 3.549103
v 24.000002 -0.000015 0.000000
v 23.999998 -0.993728 0.111963
v 23.999998 -0.707122 -0.707107
v 23.999998 -0.532048 0.846724
v 24.000002 0.330264 0.943884
v 24.000002 0.943868 0.330278
v 24.000002 0.846708 -0.532032
v 24.000002 0.111948 -0.993711
v -24.000000 -0.707091 -0.707107
v -24.000000 -0.993697 0.111965
v -24.000000 -0.532017 0.846724
v -24.000000 0.330294 0.943884
v -24.000000 0.943899 0.330278
v -24.000000 0.846740 -0.532032
v -24.000000 0.111980 -0.993711
vt 0.338410 0.019274
vt 0.426961 0.019274
vt 0.426961 0.107825
vt 0.338410 0.107825
vt 0.327337 0.167139
vt 0.371809 0.167139
vt 0.371809 0.295812
vt 0.327337 0.295812
vt 0.713072 0.058294
vt 0.726107 0.112738
vt 0.692093 0.107144
vt 0.747086 0.063889
vt 0.760122 0.118333
vt 0.775045 0.064413
vt 0.794566 0.115094
vt 0.815545 0.066245
vt 0.828581 0.120689
vt 0.849560 0.071839
vt 0.862595 0.126283
vt 0.883574 0.077434
vt 0.896610 0.131878
vt 0.679058 0.052699
vt 0.658078 0.101549
vt 0.692092 0.493001
vt 0.726107 0.498596
vt 0.760121 0.504190
vt 0.794566 0.500952
vt 0.828580 0.506547
vt 0.862595 0.512141
vt 0.896609 0.517736
vt 0.658078 0.487406
vn 0.989924 -0.000000 -0.141601
vn -0.989924 -0.000000 -0.141601
vn -1.000000 -0.000000 0.000000
vn 1.000000 0.000000 0.000000
vn -0.415569 -0.880491 -0.228116
vn 0.415569 -0.880491 -0.228116
vn 0.415569 0.880491 -0.228116
vn -0.415569 0.880491 -0.228116
vn 0.000000 0.000000 -1.000000
vn 0.480892 0.876780 -0.000000
vn -0.480892 0.876780 -0.000000
vn -0.480892 -0.876780 0.000000
vn 0.480892 -0.876780 0.000000
vn -0.000000 0.000000 1.000000
vn 1.000000 -0.000004 -0.000001
vn 1.000000 -0.000004 0.000002
vn 1.000000 -0.000005 0.000002
vn 1.000000 -0.000005 -0.000001
vn -0.000001 -0.943883 -0.330280
vn -0.000001 -0.846724 0.532032
vn -0.000000 -0.111965 0.993712
vn 0.000000 0.707108 0.707106
vn 0.000001 0.993712 -0.111965
vn 0.000000 0.532031 -0.846725
vn -0.000000 -0.330278 -0.943884
usemtl (null).012
s off
f 1/1/1 2/2/1 3/3/1 4/4/1
f 5/1/2 6/2/2 7/3/2 8/4/2
f 6/5/3 5/6/3 9/7/3 10/8/3
f 4/5/4 3/6/4 11/7/4 12/8/4
f 8/1/5 13/2/5 14/3/5 5/4/5
f 13/1/6 1/2/6 4/3/6 14/4/6
f 2/1/7 15/2/7 16/3/7 3/4/7
f 15/1/8 7/2/8 6/3/8 16/4/8
f 7/1/9 15/2/9 13/3/9 8/4/9
f 1/3/9 13/4/9 15/1/9 2/2/9
f 3/5/10 16/6/10 17/7/10 11/8/10
f 16/5/11 6/6/11 10/7/11 17/8/11
f 5/5/12 14/6/12 18/7/12 9/8/12
f 14/5/13 4/6/13 12/7/13 18/8/13
f 11/5/14 17/6/14 18/7/14 12/8/14
f 17/5/14 10/6/14 9/7/14 18/8/14
usemtl None_texture_weap.008
f 19/9/15 20/10/15 21/11/15
f 19/12/16 22/13/16 20/10/16
f 19/14/17 23/15/17 22/13/17
f 19/16/4 24/17/4 23/15/4
f 19/18/4 25/19/4 24/17/4
f 19/20/4 26/21/4 25/19/4
f 19/22/18 21/11/18 26/23/18
f 27/24/19 21/11/19 20/10/19 28/25/19
f 28/25/20 20/10/20 22/13/20 29/26/20
f 29/26/21 22/13/21 23/15/21 30/27/21
f 30/27/22 23/15/22 24/17/22 31/28/22
f 31/28/23 24/17/23 25/19/23 32/29/23
f 32/29/24 25/19/24 26/21/24 33/30/24
f 21/11/25 27/24/25 33/31/25 26/23/25
