# Blender v2.55 (sub 0) OBJ File: 'weapons.blend'
# www.blender.org
o Mesh.021_Mace
v 5.918529 -0.703696 0.703176
v 5.918529 -0.989001 -0.112192
v 5.918529 -0.529408 -0.843633
v 5.918529 0.329006 -0.940354
v 5.918529 0.939832 -0.329515
v 5.918529 0.843123 0.528896
v 5.918529 0.111672 0.988490
v -17.534710 -0.116747 9.832923
v -14.042180 -2.301206 8.377517
v -16.119736 -3.651307 11.975947
v -17.403767 -0.116748 14.199956
v -16.119736 3.417811 11.975947
v -14.042180 2.067710 8.377517
v -11.752712 -3.651307 11.845070
v -13.830268 -2.301206 15.443503
v -13.830268 2.067711 15.443503
v -11.752712 3.417811 11.845070
v -10.468679 -0.116747 9.621059
v -10.337736 -0.116748 13.988095
v -14.568356 -1.076959 10.019456
v -15.535232 -0.472210 10.422371
v -15.481575 -1.670415 11.601198
v -15.873300 -0.691905 11.007921
v -14.338108 -1.652121 10.368173
v -14.913260 -2.025884 11.364367
v -14.568356 0.843463 10.019456
v -15.535232 0.238716 10.422371
v -14.000038 0.488000 9.782623
v -14.000038 -0.721496 9.782623
v -16.045986 -0.116748 12.578795
v -16.082237 -0.116748 11.369821
v -15.815744 -0.691906 12.927519
v -15.460271 -1.670417 12.311820
v -15.873300 0.458409 11.007921
v -15.481575 1.436920 11.601198
v -15.815744 0.458411 12.927519
v -15.460271 1.436922 12.311820
v -14.338108 1.418625 10.368173
v -14.913260 1.792388 11.364367
v -12.429252 0.238717 10.329241
v -13.418543 0.843464 9.984976
v -12.429252 -0.472212 10.329243
v -13.418543 -1.076960 9.984976
v -13.627483 -1.652127 10.346874
v -12.993666 -2.025890 11.306835
v -14.540709 -2.245582 11.928624
v -13.331738 -2.245583 11.892393
v -14.244961 -1.652127 13.474142
v -14.878778 -2.025890 12.514180
v -15.443192 -0.472212 13.491774
v -14.453901 -1.076960 13.836040
v -15.443192 0.238717 13.491774
v -14.453901 0.843464 13.836040
v -14.244961 1.418631 13.474142
v -14.878778 1.792394 12.514180
v -13.331738 2.012086 11.892393
v -14.540709 2.012087 11.928624
v -13.627483 1.418631 10.346872
v -12.993666 1.792394 11.306835
v -12.056700 -0.691906 10.893497
v -12.412173 -1.670417 11.509194
v -13.534336 -1.652121 13.452842
v -12.959185 -2.025884 12.456648
v -13.872406 -0.721496 14.038392
v -13.872406 0.488001 14.038392
v -13.534336 1.418625 13.452842
v -12.959185 1.792389 12.456650
v -12.056700 0.458411 10.893497
v -12.412173 1.436922 11.509194
v -11.826456 -0.116748 11.242218
v -11.790206 -0.116748 12.451195
v -11.999145 -0.691904 12.813093
v -12.390869 -1.670415 12.219816
v -13.304089 -1.076959 13.801559
v -12.337214 -0.472211 13.398644
v -13.304089 0.843464 13.801559
v -12.337214 0.238715 13.398644
v -11.999145 0.458409 12.813093
v -12.390869 1.436920 12.219818
v -15.254631 -1.398299 10.651340
v -14.787294 -0.111829 9.841891
v -16.010803 -0.906913 11.961073
v -16.010803 0.683254 11.961073
v -15.254631 1.174640 10.651340
v -13.245410 -0.116747 9.925382
v -13.953996 -2.193396 11.103958
v -15.177513 -1.398305 13.223154
v -15.154885 1.143496 13.208108
v -13.953996 1.969738 11.103958
v -12.682814 -1.398305 10.574239
v -13.906329 -2.193396 12.693432
v -14.662506 -0.111829 14.003166
v -13.906329 1.969738 12.693432
v -12.759609 1.096772 10.661159
v -11.849524 -0.906913 11.836318
v -12.605696 -1.398299 13.146052
v -13.073032 -0.111829 13.955502
v -12.605696 1.174640 13.146052
v -11.849524 0.683254 11.836318
v -6.989609 -0.478608 -0.762784
v -6.989609 -0.636180 0.635663
v -6.989609 0.762274 0.478097
v -6.989609 0.849710 -0.297981
v -6.989609 0.100982 0.893609
v -6.989609 0.297470 -0.850228
v -6.989609 -0.894120 -0.101500
v -13.288790 0.236805 10.082023
v -13.400862 -0.246157 10.017318
v -13.094675 -0.599711 10.194095
v -12.676417 -0.470301 10.435576
v -12.564345 0.012661 10.500280
v -12.870532 0.366215 10.323504
v -7.288797 0.236806 -0.310287
v -7.400869 -0.246157 -0.374991
v -7.094683 -0.599711 -0.198215
v -6.676425 -0.470301 0.043267
v -6.564353 0.012661 0.107972
v -6.870538 0.366215 -0.068805
v -12.982603 -0.116747 10.258800
v -6.982611 -0.116748 -0.133510
vt 0.866820 0.805096
vt 0.829931 0.752493
vt 0.829931 0.805096
vt 0.793041 0.752493
vt 0.919422 0.894587
vt 0.972025 0.931477
vt 0.972025 0.894587
vt 0.919422 0.857698
vt 0.972025 0.805095
vt 0.919423 0.752493
vt 0.919423 0.805095
vt 0.972025 0.752493
vt 0.829931 0.805095
vt 0.866820 0.805095
vt 0.919423 0.894587
vt 0.919423 0.857697
vt 0.919422 0.857697
vt 0.866821 0.805095
vt 0.833859 0.797239
vt 0.833859 0.744637
vt 0.874677 0.789383
vt 0.975953 0.886731
vt 0.923351 0.886731
vt 0.927279 0.841985
vt 0.927279 0.789383
vt 0.923351 0.744637
vt 0.975953 0.797239
vt 0.837787 0.797239
vt 0.837787 0.744637
vt 0.882533 0.789383
vt 0.979881 0.886731
vt 0.927279 0.886731
vt 0.935136 0.841985
vt 0.935136 0.789383
vt 0.927279 0.744637
vt 0.979881 0.797239
vt 0.842643 0.797239
vt 0.842643 0.744637
vt 0.892244 0.789383
vt 0.984737 0.886731
vt 0.932134 0.886731
vt 0.944847 0.841985
vt 0.944847 0.789383
vt 0.932134 0.744637
vt 0.984737 0.797239
vt 0.825074 0.797239
vt 0.825075 0.744637
vt 0.857108 0.789383
vt 0.967169 0.886731
vt 0.914566 0.886731
vt 0.909711 0.841985
vt 0.909711 0.789383
vt 0.914567 0.744637
vt 0.967169 0.797239
vt 0.829930 0.797239
vt 0.829931 0.744637
vt 0.866820 0.789383
vt 0.972025 0.886731
vt 0.919422 0.886731
vt 0.919422 0.841985
vt 0.919422 0.789383
vt 0.919422 0.744637
vt 0.972025 0.797239
vt 0.892244 0.814806
vt 0.842643 0.757349
vt 0.842643 0.809951
vt 0.932134 0.899443
vt 0.984737 0.899443
vt 0.944847 0.867409
vt 0.984737 0.809952
vt 0.932134 0.757349
vt 0.944847 0.814807
vt 0.882533 0.805095
vt 0.837787 0.752493
vt 0.837787 0.805096
vt 0.927279 0.894587
vt 0.979881 0.894588
vt 0.935136 0.857698
vt 0.979881 0.805096
vt 0.927279 0.752493
vt 0.935136 0.805096
vt 0.874677 0.797239
vt 0.833859 0.748565
vt 0.833859 0.801167
vt 0.923351 0.890659
vt 0.975953 0.890659
vt 0.927279 0.849841
vt 0.975953 0.801167
vt 0.923351 0.748565
vt 0.927279 0.797239
vt 0.866820 0.789382
vt 0.829930 0.744636
vt 0.829931 0.797239
vt 0.919422 0.744636
vt 0.919422 0.789382
vt 0.857108 0.779671
vt 0.825074 0.739781
vt 0.825075 0.792384
vt 0.914567 0.881875
vt 0.967169 0.881875
vt 0.909711 0.832274
vt 0.967169 0.792384
vt 0.914566 0.739781
vt 0.909711 0.779671
vt 0.829931 0.789383
vt 0.829931 0.736780
vt 0.866820 0.773670
vt 0.972025 0.878875
vt 0.919423 0.878874
vt 0.919423 0.826273
vt 0.919422 0.773670
vt 0.919422 0.736780
vt 0.972025 0.789383
vt 0.972025 0.878874
vt 0.919423 0.826272
vt 0.829931 0.736781
vt 0.919423 0.773670
vt 0.919423 0.736781
vt 0.866821 0.773670
vt 0.919423 0.878875
vt 0.793041 0.931477
vt 0.327460 0.033743
vt 0.327460 0.078489
vt 0.406356 0.078489
vt 0.406356 0.033743
vt 0.851255 0.667661
vt 0.805828 0.776204
vt 0.914370 0.730776
vt 0.805828 0.622234
vt 0.851255 0.730776
vt 0.959797 0.776204
vt 0.914370 0.667661
vt 0.959797 0.622234
vt 0.424992 0.453840
vt 0.434079 0.471452
vt 0.414283 0.470515
vt 0.429682 0.640296
vt 0.420595 0.622684
vt 0.440391 0.623621
vt 0.405196 0.452904
vt 0.394487 0.469579
vt 0.409886 0.639360
vt 0.400799 0.621747
vt 0.504176 0.457586
vt 0.513263 0.475198
vt 0.493467 0.474261
vt 0.508866 0.644043
vt 0.499779 0.626431
vt 0.519575 0.627367
vt 0.484380 0.456649
vt 0.473671 0.473325
vt 0.489070 0.643106
vt 0.479983 0.625494
vt 0.464584 0.455713
vt 0.453875 0.472388
vt 0.469274 0.642170
vt 0.460187 0.624557
vt 0.444788 0.454776
vt 0.449478 0.641233
vn -0.382925 -0.586174 -0.713981
vn -0.925325 -0.378916 -0.014006
vn -0.406453 -0.041728 -0.912718
vn -0.597204 -0.721936 -0.349508
vn -0.740931 -0.364032 -0.564359
vn -0.053066 -0.924488 -0.377499
vn -0.248590 -0.229522 -0.941022
vn -0.589483 0.545580 -0.595695
vn -0.589483 -0.545579 -0.595695
vn -0.247259 0.231553 -0.940875
vn -0.613118 -0.000000 -0.789991
vn 0.282769 0.000000 -0.959188
vn -0.816182 -0.577276 0.024467
vn -0.949855 0.311391 0.028477
vn -0.629175 -0.571363 -0.526956
vn -0.942526 -0.230829 0.241584
vn -0.955121 -0.227919 -0.189201
vn -0.596468 -0.571372 0.563702
vn -0.942326 0.229531 0.243591
vn -0.629175 0.571363 -0.526957
vn -0.949855 -0.311391 0.028477
vn -0.812632 0.582267 0.024361
vn -0.955029 0.226608 -0.191230
vn -0.596468 0.571371 0.563703
vn -0.596691 0.725521 -0.342898
vn -0.406453 0.041728 -0.912718
vn -0.925325 0.378916 -0.014006
vn -0.377518 0.585891 -0.717086
vn -0.742727 0.360692 -0.564143
vn -0.053067 0.924489 -0.377498
vn 0.267412 -0.107645 -0.957551
vn 0.552724 0.545579 -0.629952
vn -0.339728 -0.000003 -0.940524
vn 0.443503 -0.000002 -0.896273
vn 0.267412 0.107645 -0.957551
vn 0.552724 -0.545579 -0.629952
vn -0.225577 -0.948935 -0.220538
vn 0.528204 -0.613099 -0.587461
vn -0.562444 -0.613108 -0.554757
vn 0.214518 -0.948741 -0.232102
vn -0.017585 -0.809752 -0.586508
vn 0.009321 -0.950285 0.311241
vn -0.698746 -0.376833 0.608071
vn -0.030357 -0.924490 0.379996
vn -0.922821 -0.378920 0.069433
vn -0.355521 -0.586868 0.727455
vn -0.575287 -0.717502 0.392729
vn -0.351046 -0.041740 0.935427
vn -0.575184 0.699056 0.424834
vn -0.351046 0.041740 0.935427
vn -0.922821 0.378920 0.069433
vn -0.385649 0.587647 0.711299
vn -0.680949 0.407711 0.608343
vn -0.030357 0.924490 0.379996
vn -0.017794 0.804688 -0.593432
vn 0.009322 0.950285 0.311241
vn -0.562445 0.613108 -0.554756
vn 0.223013 0.948034 -0.226931
vn -0.233664 0.948263 -0.214938
vn 0.528203 0.613099 -0.587462
vn 0.710516 -0.355233 -0.607434
vn 0.030357 -0.924490 -0.379996
vn 0.351046 -0.041742 -0.935427
vn 0.575067 -0.725712 -0.377677
vn 0.335025 -0.585959 -0.737842
vn 0.922821 -0.378921 -0.069434
vn 0.223373 -0.949102 0.222060
vn -0.528202 -0.613097 0.587465
vn -0.009321 -0.950285 -0.311240
vn 0.017233 -0.818171 0.574716
vn -0.207123 -0.949280 0.236574
vn 0.562444 -0.613109 0.554756
vn -0.204491 -0.209767 0.956128
vn -0.552724 0.545581 0.629950
vn -0.552724 -0.545581 0.629950
vn -0.203293 0.211638 0.955972
vn -0.547958 0.000000 0.836506
vn 0.339728 0.000000 0.940524
vn 0.017441 0.813256 0.581645
vn -0.009321 0.950285 -0.311241
vn -0.528203 0.613098 0.587463
vn 0.231670 0.948438 0.216320
vn -0.215659 0.948652 0.231411
vn 0.562444 0.613109 0.554757
vn 0.571963 0.653109 -0.496294
vn 0.351046 0.041742 -0.935427
vn 0.030357 0.924490 -0.379996
vn 0.635228 0.478941 -0.605888
vn 0.459142 0.586577 -0.667170
vn 0.922821 0.378921 -0.069434
vn 0.809723 -0.586310 -0.024274
vn 0.949856 0.311389 -0.028477
vn 0.596469 -0.571372 -0.563701
vn 0.954814 -0.223829 0.195527
vn 0.940837 -0.220759 -0.257083
vn 0.629175 -0.571364 0.526956
vn 0.394077 -0.586686 0.707462
vn 0.925325 -0.378917 0.014007
vn 0.053067 -0.924489 0.377497
vn 0.738696 -0.368155 0.564615
vn 0.597276 -0.721410 0.350470
vn 0.406453 -0.041727 0.912719
vn 0.258488 0.214311 0.941942
vn 0.589483 -0.545580 0.595695
vn -0.282771 0.000000 0.959188
vn 0.603457 0.000000 0.797395
vn 0.259701 -0.212432 0.942034
vn 0.589483 0.545580 0.595695
vn 0.596758 0.725074 0.343727
vn 0.406453 0.041728 0.912718
vn 0.053066 0.924488 0.377498
vn 0.740539 0.364758 0.564406
vn 0.388823 0.586457 0.710552
vn 0.925325 0.378917 0.014007
vn 0.940601 0.219484 -0.259030
vn 0.629175 0.571363 0.526956
vn 0.596469 0.571371 -0.563702
vn 0.954709 0.222566 0.197473
vn 0.806091 0.591298 -0.024165
vn 0.949856 -0.311389 -0.028477
vn 1.000000 0.000000 0.000000
vn -0.006664 -0.943864 0.330267
vn -0.006664 -0.846706 -0.532020
vn -0.006664 -0.330275 0.943861
vn -0.006664 0.532015 0.846709
vn -0.006664 0.993691 0.111951
vn -0.006664 0.707097 -0.707085
vn -0.006664 -0.111963 -0.993690
vn 0.379337 -0.772720 0.508927
vn 0.266269 -0.841791 0.469563
vn -0.234371 -0.843564 0.483188
vn -0.352738 -0.769442 0.532480
vn -0.449183 -0.245828 0.858955
vn -0.499051 -0.370405 0.783421
vn -0.758359 -0.521533 0.391017
vn -0.835365 -0.476223 0.274549
vn 0.542961 -0.363841 0.756844
vn 0.502384 -0.252191 0.827049
vn 0.503423 0.254808 0.825614
vn 0.541817 0.360358 0.759326
vn 0.103141 0.000000 0.994667
vn -0.044540 0.000000 0.999008
vn 0.371736 0.777982 0.506514
vn 0.274961 0.837149 0.472840
vn -0.001570 0.998625 -0.052400
vn 0.001618 0.998542 0.053951
vn -0.242769 0.839008 0.486958
vn -0.384564 0.745614 0.544216
vn -0.732362 0.532821 0.423967
vn -0.832636 0.478228 0.279311
vn -0.364209 0.783101 -0.504088
vn -0.283135 0.832688 -0.475884
vn 0.842196 0.482746 0.240130
vn 0.790500 0.516255 0.329532
vn 0.667853 0.554805 -0.496150
vn 0.822511 0.485357 -0.296487
vn 0.257666 0.830673 -0.493548
vn 0.459070 0.682431 -0.568808
vn 0.998217 -0.051645 -0.029931
vn 0.998249 0.051012 -0.029932
vn 0.825433 -0.483348 -0.291607
vn 0.771546 -0.515156 -0.373271
vn 0.787109 -0.518068 0.334760
vn 0.844706 -0.480774 0.235219
vn 0.336482 -0.780940 -0.526224
vn 0.249202 -0.835449 -0.489820
vn -0.001935 -0.997914 -0.064526
vn 0.001990 -0.997789 0.066433
vn -0.371928 -0.777850 -0.506575
vn -0.274545 -0.837374 -0.472684
vn -0.539200 -0.352483 -0.764866
vn -0.507799 -0.265947 -0.819398
vn -0.786048 -0.518628 -0.336383
vn -0.847229 -0.478751 -0.230218
vn -0.508846 0.268641 -0.817868
vn -0.538034 0.349017 -0.767272
vn -0.075072 0.000000 -0.997178
vn 0.185880 0.000000 -0.982572
vn -0.997308 0.066951 0.029904
vn -0.997252 -0.067780 0.029903
vn -0.844679 0.480795 -0.235273
vn -0.789347 0.516876 -0.331316
vn -0.509984 0.401080 0.760954
vn -0.450282 0.248370 0.857647
vn 0.534087 0.475921 -0.698749
vn 0.394665 0.127634 -0.909917
vn 0.489890 -0.345836 -0.800253
vn 0.394667 -0.127634 -0.909916
vn -0.500000 -0.000000 0.866025
vn 0.500000 -0.000000 -0.866025
vn -0.500001 0.000000 0.866025
vn -0.500000 0.000001 0.866026
vn -0.499999 -0.000001 0.866026
vn -0.500001 -0.000001 0.866025
vn -0.836517 0.258819 -0.482962
vn -0.612373 -0.707107 -0.353553
vn 0.224144 -0.965926 0.129409
vn 0.836517 -0.258819 0.482962
vn 0.612373 0.707106 0.353553
vn -0.224144 0.965926 -0.129409
usemtl (null).000_textur.001_texture_weapons.png
s off
f 80/1/1 20/2/1 24/3/1
f 9/4/2 24/3/2 20/2/2
f 25/5/3 10/6/3 22/7/3
f 22/7/4 80/8/4 25/5/4
f 23/9/5 21/10/5 80/11/5
f 21/10/6 23/9/6 8/12/6
f 29/13/7 20/2/7 81/14/7
f 20/2/8 29/13/8 9/4/8
f 26/7/9 13/6/9 28/15/9
f 28/15/10 81/16/10 26/7/10
f 81/11/11 21/10/11 27/9/11
f 8/12/12 27/9/12 21/10/12
f 82/14/13 22/2/13 33/13/13
f 10/4/14 33/13/14 22/2/14
f 32/5/15 11/6/15 30/7/15
f 30/7/16 82/17/16 32/5/16
f 31/9/17 23/10/17 82/11/17
f 23/10/18 31/9/18 8/12/18
f 83/18/19 30/2/19 36/13/19
f 11/4/20 36/13/20 30/2/20
f 37/5/21 12/6/21 35/7/21
f 35/7/22 83/16/22 37/5/22
f 34/9/23 31/10/23 83/11/23
f 31/10/24 34/9/24 8/12/24
f 84/14/25 35/2/25 39/3/25
f 12/4/26 39/3/26 35/2/26
f 38/5/27 13/6/27 26/7/27
f 26/7/28 84/8/28 38/5/28
f 27/9/29 34/10/29 84/11/29
f 34/10/30 27/9/30 8/12/30
f 43/19/31 29/20/31 85/21/31
f 29/20/32 43/19/32 9/4/32
f 40/22/33 18/6/33 42/23/33
f 42/23/34 85/24/34 40/22/34
f 85/25/35 28/26/35 41/27/35
f 13/12/36 41/27/36 28/26/36
f 46/28/37 25/29/37 86/30/37
f 25/29/38 46/28/38 10/4/38
f 45/31/39 14/6/39 47/32/39
f 47/32/40 86/33/40 45/31/40
f 86/34/41 24/35/41 44/36/41
f 9/12/42 44/36/42 24/35/42
f 50/37/43 32/38/43 87/39/43
f 32/38/44 50/37/44 11/4/44
f 48/40/45 15/6/45 51/41/45
f 51/41/46 87/42/46 48/40/46
f 87/43/47 33/44/47 49/45/47
f 10/12/48 49/45/48 33/44/48
f 55/46/49 37/47/49 88/48/49
f 37/47/50 55/46/50 12/4/50
f 53/49/51 16/6/51 54/50/51
f 54/50/52 88/51/52 53/49/52
f 88/52/53 36/53/53 52/54/53
f 11/12/54 52/54/54 36/53/54
f 58/55/55 38/56/55 89/57/55
f 38/56/56 58/55/56 13/4/56
f 56/58/57 17/6/57 59/59/57
f 59/59/58 89/60/58 56/58/58
f 89/61/59 39/62/59 57/63/59
f 12/12/60 57/63/60 39/62/60
f 90/64/61 42/65/61 60/66/61
f 18/4/62 60/66/62 42/65/62
f 61/67/63 14/6/63 45/68/63
f 45/68/64 90/69/64 61/67/64
f 44/70/65 43/71/65 90/72/65
f 43/71/66 44/70/66 9/12/66
f 91/73/67 47/74/67 63/75/67
f 14/4/68 63/75/68 47/74/68
f 62/76/69 15/6/69 48/77/69
f 48/77/70 91/78/70 62/76/70
f 49/79/71 46/80/71 91/81/71
f 46/80/72 49/79/72 10/12/72
f 92/82/73 51/83/73 64/84/73
f 15/4/74 64/84/74 51/83/74
f 65/85/75 16/6/75 53/86/75
f 53/86/76 92/87/76 65/85/76
f 52/88/77 50/89/77 92/90/77
f 50/89/78 52/88/78 11/12/78
f 93/91/79 54/92/79 66/93/79
f 16/4/80 66/93/80 54/92/80
f 67/59/81 17/6/81 56/58/81
f 56/58/82 93/60/82 67/59/82
f 57/63/83 55/94/83 93/95/83
f 55/94/84 57/63/84 12/12/84
f 94/96/85 59/97/85 69/98/85
f 17/4/86 69/98/86 59/97/86
f 68/99/87 18/6/87 40/100/87
f 40/100/88 94/101/88 68/99/88
f 41/102/89 58/103/89 94/104/89
f 58/103/90 41/102/90 13/12/90
f 73/105/91 61/106/91 95/107/91
f 61/106/92 73/105/92 14/4/92
f 71/108/93 19/6/93 72/109/93
f 72/109/94 95/110/94 71/108/94
f 95/111/95 60/112/95 70/113/95
f 18/12/96 70/113/96 60/112/96
f 74/105/97 62/106/97 96/107/97
f 62/106/98 74/105/98 15/4/98
f 72/114/99 19/6/99 75/109/99
f 75/109/100 96/115/100 72/114/100
f 96/111/101 63/112/101 73/113/101
f 14/12/102 73/113/102 63/112/102
f 76/105/103 65/116/103 97/107/103
f 65/116/104 76/105/104 16/4/104
f 75/114/105 19/6/105 77/109/105
f 77/109/106 97/115/106 75/114/106
f 97/117/107 64/118/107 74/113/107
f 15/12/108 74/113/108 64/118/108
f 79/105/109 67/106/109 98/107/109
f 67/106/110 79/105/110 17/4/110
f 77/114/111 19/6/111 78/109/111
f 78/109/112 98/115/112 77/114/112
f 98/111/113 66/112/113 76/113/113
f 16/12/114 76/113/114 66/112/114
f 70/105/115 68/106/115 99/119/115
f 68/106/116 70/105/116 18/4/116
f 78/114/117 19/6/117 71/120/117
f 71/120/118 99/110/118 78/114/118
f 99/117/119 69/112/119 79/113/119
f 17/12/120 79/113/120 69/112/120
f 1/4/121 2/12/121 3/6/121 4/121/121
f 1/4/121 4/12/121 5/6/121 7/121/121
f 5/4/121 6/12/121 7/6/121
f 1/122/122 101/123/122 106/124/122 2/125/122
f 2/122/123 106/123/123 100/124/123 3/125/123
f 101/123/124 1/122/124 7/125/124 104/124/124
f 6/122/125 102/123/125 104/124/125 7/125/125
f 5/122/126 103/123/126 102/124/126 6/125/126
f 4/122/127 105/123/127 103/124/127 5/125/127
f 3/122/128 100/123/128 105/124/128 4/125/128
f 62/126/129 63/127/129 96/128/129
f 63/129/130 62/130/130 91/131/130
f 48/129/131 49/132/131 91/131/131
f 87/129/132 49/127/132 48/131/132
f 50/129/133 51/133/133 92/131/133
f 50/129/134 87/131/134 51/127/134
f 32/129/135 33/127/135 87/131/135
f 33/129/136 32/127/136 82/131/136
f 74/129/137 96/128/137 75/127/137
f 97/129/138 74/127/138 75/131/138
f 76/129/139 97/131/139 77/127/139
f 98/129/140 76/127/140 77/131/140
f 64/129/141 97/131/141 65/133/141
f 64/129/142 65/127/142 92/131/142
f 66/129/143 98/131/143 67/133/143
f 66/129/144 67/127/144 93/131/144
f 56/129/145 89/131/145 57/133/145
f 93/129/146 56/131/146 57/127/146
f 54/129/147 93/131/147 55/127/147
f 55/129/148 88/131/148 54/127/148
f 36/129/149 88/131/149 37/133/149
f 36/129/150 37/127/150 83/131/150
f 38/129/151 84/131/151 39/133/151
f 38/129/152 39/127/152 89/131/152
f 78/129/153 99/131/153 79/133/153
f 79/129/154 98/131/154 78/127/154
f 68/129/155 94/131/155 69/133/155
f 68/129/156 69/127/156 99/131/156
f 58/129/157 89/131/157 59/127/157
f 59/129/158 94/131/158 58/127/158
f 70/129/159 71/127/159 95/131/159
f 70/129/160 99/131/160 71/127/160
f 60/129/161 95/131/161 61/133/161
f 60/129/162 61/127/162 90/131/162
f 72/129/163 96/128/163 73/133/163
f 73/129/164 95/131/164 72/127/164
f 44/129/165 90/131/165 45/127/165
f 86/129/166 44/127/166 45/131/166
f 46/129/167 86/131/167 47/127/167
f 47/129/168 91/131/168 46/127/168
f 24/129/169 25/127/169 80/131/169
f 25/129/170 24/127/170 86/131/170
f 20/129/171 80/131/171 21/127/171
f 20/129/172 21/127/172 81/131/172
f 22/129/173 23/133/173 80/131/173
f 22/129/174 82/131/174 23/127/174
f 26/129/175 81/131/175 27/133/175
f 84/129/176 26/131/176 27/127/176
f 28/129/177 29/133/177 81/131/177
f 29/129/178 28/127/178 85/131/178
f 30/129/179 83/131/179 31/127/179
f 82/129/180 30/131/180 31/127/180
f 34/129/181 83/131/181 35/127/181
f 35/129/182 84/131/182 34/127/182
f 52/129/183 53/127/183 88/131/183
f 92/129/184 53/131/184 52/127/184
f 40/129/185 41/133/185 94/131/185
f 85/129/186 41/127/186 40/131/186
f 42/129/187 90/131/187 43/127/187
f 43/129/188 85/131/188 42/127/188
f 119/134/189 107/135/189 108/136/189
f 120/137/190 114/138/190 113/139/190
f 119/140/189 108/136/189 109/141/189
f 120/142/190 115/143/190 114/138/190
f 119/144/191 109/145/191 110/146/191
f 120/147/190 116/148/190 115/149/190
f 119/150/192 110/146/192 111/151/192
f 120/152/190 117/153/190 116/148/190
f 119/154/193 111/151/193 112/155/193
f 120/156/190 118/157/190 117/153/190
f 119/158/194 112/155/194 107/135/194
f 120/159/190 113/139/190 118/157/190
f 107/135/195 113/139/195 114/138/195 108/136/195
f 108/136/196 114/138/196 115/143/196 109/141/196
f 109/145/197 115/149/197 116/148/197 110/146/197
f 110/146/198 116/148/198 117/153/198 111/151/198
f 111/151/199 117/153/199 118/157/199 112/155/199
f 112/155/200 118/157/200 113/139/200 107/135/200
