# Blender v2.55 (sub 0) OBJ File: 'weapons.blend'
# www.blender.org
o nunchucks_1
v -31.276957 0.000218 -0.000729
v -31.276957 -0.530114 0.529595
v -31.276957 -0.745064 -0.084707
v -7.595055 -0.745062 -0.084702
v -7.595055 -0.530113 0.529602
v -31.276957 -0.398804 -0.635777
v -7.595055 -0.398802 -0.635772
v -31.276957 0.247928 -0.708647
v -7.595055 0.247929 -0.708642
v -31.276957 0.708127 -0.248439
v -7.595055 0.708130 -0.248442
v -31.276957 0.635266 0.398292
v -7.595055 0.635260 0.398291
v -31.276957 0.084188 0.744552
v -7.595055 0.084188 0.744551
v -5.992265 0.084188 0.744551
v -5.992265 0.635260 0.398291
v -5.992265 0.708130 -0.248442
v -5.992265 0.247929 -0.708642
v -5.992265 -0.398802 -0.635772
v -5.992265 -0.530113 0.529602
v -5.992265 -0.745062 -0.084702
v -5.992265 -0.372422 -0.042717
v -5.992265 -0.264947 0.264435
v -5.992265 -0.199292 -0.318252
v -5.992265 0.124074 -0.354687
v -5.992265 0.354174 -0.124587
v -5.992265 0.317739 0.198779
v -5.992265 0.042204 0.371909
v 0.007735 0.042204 0.371909
v 0.007735 -0.264947 0.264435
v 0.007735 0.317739 0.198779
v 0.007735 0.354174 -0.124587
v 0.007735 0.124074 -0.354687
v 0.007735 -0.199292 -0.318252
v 0.007735 -0.372422 -0.042717
v 0.007735 0.000219 -0.000732
vt 0.864224 0.224917
vt 0.874186 0.238948
vt 0.855958 0.241269
vt 0.973593 0.210987
vt 0.983555 0.225018
vt 0.965327 0.227340
vt 0.955365 0.213309
vt 0.947099 0.229661
vt 0.937137 0.215630
vt 0.928871 0.231983
vt 0.918908 0.217952
vt 0.910643 0.234305
vt 0.900680 0.220274
vt 0.892414 0.236626
vt 0.880275 0.221464
vt 0.892381 0.510480
vt 0.874153 0.512801
vt 0.910609 0.508158
vt 0.855925 0.515123
vt 0.928838 0.505837
vt 0.947066 0.503515
vt 0.983522 0.498872
vt 0.965294 0.501194
vt 0.886937 0.743022
vt 0.876840 0.743772
vt 0.876858 0.655321
vt 0.886956 0.654571
vt 0.897035 0.742272
vt 0.897053 0.653821
vt 0.866742 0.744522
vt 0.866761 0.656070
vt 0.856645 0.745271
vt 0.846548 0.746021
vt 0.846566 0.657570
vt 0.856664 0.656820
vt 0.907132 0.741522
vt 0.907150 0.653071
vt 0.917229 0.740772
vt 0.917247 0.652321
vt 0.854461 0.751453
vt 0.849413 0.751828
vt 0.915045 0.746954
vt 0.909996 0.747329
vt 0.904948 0.747704
vt 0.899899 0.748078
vt 0.894851 0.748453
vt 0.889802 0.748828
vt 0.884753 0.749203
vt 0.879704 0.749578
vt 0.874656 0.749953
vt 0.869607 0.750328
vt 0.864559 0.750703
vt 0.859510 0.751078
vt 0.450680 0.651522
vt 0.437184 0.651522
vt 0.437184 0.587572
vt 0.450680 0.587572
vt 0.423689 0.651522
vt 0.423689 0.587572
vt 0.410194 0.651522
vt 0.410194 0.587572
vt 0.504661 0.651522
vt 0.491166 0.651522
vt 0.491166 0.587572
vt 0.504661 0.587572
vt 0.477670 0.651522
vt 0.477670 0.587572
vt 0.464175 0.651522
vt 0.464175 0.587572
vt 0.443171 0.569818
vt 0.429676 0.569818
vt 0.416181 0.569818
vt 0.497153 0.569818
vt 0.483657 0.569818
vt 0.470162 0.569818
vt 0.456667 0.569818
vn 1.000000 -0.000000 0.000000
vn 0.000000 0.330279 -0.943883
vn -0.000000 -0.532028 -0.846727
vn 0.000000 0.943885 -0.330273
vn -0.000000 -0.993713 -0.111959
vn 0.000000 -0.707110 0.707104
vn -0.000000 0.846724 0.532032
vn -0.000000 0.111966 0.993712
vn 0.000000 -0.993712 -0.111966
vn 0.000000 -0.707106 0.707108
vn 0.000000 -0.532030 -0.846725
vn 0.000000 0.943886 -0.330272
vn 0.000000 0.330273 -0.943885
vn -1.000000 0.000000 0.000000
vn 0.000000 -0.532031 -0.846725
usemtl (null).000_textur.001
s off
f 1/1/1 2/2/1 3/3/1
f 1/4/1 3/5/1 6/6/1
f 1/7/1 6/6/1 8/8/1
f 1/9/1 8/8/1 10/10/1
f 1/11/1 10/10/1 12/12/1
f 1/13/1 12/12/1 14/14/1
f 2/2/1 1/15/1 14/14/1
f 2/2/2 14/14/2 15/16/2 5/17/2
f 13/18/3 15/16/3 14/14/3 12/12/3
f 5/17/4 4/19/4 3/3/4 2/2/4
f 11/20/5 13/18/5 12/12/5 10/10/5
f 9/21/6 11/20/6 10/10/6 8/8/6
f 4/22/7 7/23/7 6/6/7 3/5/7
f 7/23/8 9/21/8 8/8/8 6/6/8
f 13/24/9 11/25/9 18/26/9 17/27/9
f 11/28/10 9/24/10 19/27/10 18/29/10
f 15/25/11 13/30/11 17/31/11 16/26/11
f 4/32/12 5/33/12 21/34/12 22/35/12
f 9/36/8 7/28/8 20/29/8 19/37/8
f 5/35/13 15/31/13 16/30/13 21/32/13
f 7/38/7 4/36/7 22/37/7 20/39/7
f 21/32/14 24/40/14 23/41/14 22/33/14
f 22/38/14 23/42/14 25/43/14 20/36/14
f 20/36/14 25/44/14 26/45/14 19/28/14
f 19/28/14 26/46/14 27/47/14 18/24/14
f 18/24/14 27/48/14 28/49/14 17/25/14
f 17/25/14 28/50/14 29/51/14 16/30/14
f 16/30/14 29/52/14 24/53/14 21/32/14
f 24/54/13 29/55/13 30/56/13 31/57/13
f 29/55/15 28/58/15 32/59/15 30/56/15
f 28/58/9 27/60/9 33/61/9 32/59/9
f 27/62/10 26/63/10 34/64/10 33/65/10
f 26/63/8 25/66/8 35/67/8 34/64/8
f 25/66/7 23/68/7 36/69/7 35/67/7
f 23/68/12 24/54/12 31/57/12 36/69/12
f 30/56/14 37/70/14 31/57/14
f 32/59/14 37/71/14 30/56/14
f 33/61/14 37/72/14 32/59/14
f 34/64/14 37/73/14 33/65/14
f 35/67/14 37/74/14 34/64/14
f 36/69/14 37/75/14 35/67/14
f 31/57/14 37/76/14 36/69/14
