# Blender v2.55 (sub 0) OBJ File: 'weapons.blend'
# www.blender.org
o Mesh.011_Mesh.quarterstaff
v 33.528137 0.000217 -0.000728
v 33.528137 -0.530117 0.529596
v 33.528137 -0.745064 -0.084706
v -33.549999 0.000221 -0.000732
v -33.549999 -0.745064 -0.084702
v -33.549999 -0.530113 0.529601
v 33.528137 -0.398804 -0.635776
v -33.549999 -0.398804 -0.635772
v 33.528137 0.247925 -0.708646
v -33.549999 0.247929 -0.708642
v 33.528137 0.708126 -0.248438
v -33.550003 0.708130 -0.248442
v 33.528137 0.635265 0.398294
v -33.549999 0.635258 0.398291
v 33.528137 0.084187 0.744554
v -33.549999 0.084190 0.744551
vt 0.864224 0.224917
vt 0.874186 0.238948
vt 0.855958 0.241269
vt 0.866268 0.551078
vt 0.855925 0.515123
vt 0.874153 0.512801
vt 0.973593 0.210987
vt 0.983555 0.225018
vt 0.965327 0.227340
vt 0.975637 0.537148
vt 0.965294 0.501194
vt 0.983522 0.498872
vt 0.955365 0.213309
vt 0.947099 0.229661
vt 0.957409 0.539469
vt 0.947066 0.503515
vt 0.937137 0.215630
vt 0.928871 0.231983
vt 0.939181 0.541791
vt 0.928838 0.505837
vt 0.918908 0.217952
vt 0.910643 0.234305
vt 0.920952 0.544113
vt 0.910609 0.508158
vt 0.900680 0.220274
vt 0.892414 0.236626
vt 0.902724 0.546434
vt 0.892381 0.510480
vt 0.880275 0.221464
vt 0.884496 0.548756
vn 1.000000 -0.000000 0.000000
vn -1.000000 0.000000 -0.000000
vn -1.000000 -0.000006 -0.000002
vn -1.000000 -0.000003 0.000006
vn -0.000000 -0.330279 0.943883
vn -0.000000 0.532030 0.846726
vn -0.000000 -0.943886 0.330272
vn -0.000000 0.993713 0.111960
vn 0.000000 0.707109 -0.707105
vn -0.000000 -0.846724 -0.532032
vn -0.000000 -0.111966 -0.993712
usemtl (null).000_textur.000
s off
f 1/1/1 2/2/1 3/3/1
f 4/4/2 5/5/2 6/6/2
f 1/7/1 3/8/1 7/9/1
f 4/10/2 8/11/2 5/12/2
f 1/13/1 7/9/1 9/14/1
f 4/15/2 10/16/2 8/11/2
f 1/17/1 9/14/1 11/18/1
f 4/19/3 12/20/3 10/16/3
f 1/21/1 11/18/1 13/22/1
f 4/23/4 14/24/4 12/20/4
f 1/25/1 13/22/1 15/26/1
f 4/27/2 16/28/2 14/24/2
f 2/2/1 1/29/1 15/26/1
f 4/30/2 6/6/2 16/28/2
f 2/2/5 15/26/5 16/28/5 6/6/5
f 14/24/6 16/28/6 15/26/6 13/22/6
f 6/6/7 5/5/7 3/3/7 2/2/7
f 12/20/8 14/24/8 13/22/8 11/18/8
f 10/16/9 12/20/9 11/18/9 9/14/9
f 5/12/10 8/11/10 7/9/10 3/8/10
f 8/11/11 10/16/11 9/14/11 7/9/11
