# Blender v2.55 (sub 0) OBJ File: 'weapons.blend'
# www.blender.org
o Mesh.016_Mesh.shortsword
v -3.360186 -0.137171 -1.031884
v -16.285969 -0.002415 -1.179773
v -3.360186 -0.002416 -1.458305
v -16.285969 -0.177603 -0.834930
v -3.360186 0.214213 -1.031884
v -16.285969 0.172771 -0.834930
v -3.360186 -0.219048 1.027051
v -16.285969 -0.177603 0.830102
v -3.360186 -0.226900 -0.002414
v -20.035969 -0.250166 -0.002414
v -3.360186 0.285151 -0.002414
v -20.035969 0.245335 -0.002414
v -25.917362 -0.002415 -0.002414
v -16.285969 -0.002415 1.174940
v -16.285969 0.172771 0.830102
v -3.360186 -0.002415 1.453472
v -3.360186 0.214213 1.027051
v 4.142960 -0.002417 -0.002414
v 3.392960 -0.002417 -0.564913
v 3.392960 0.328212 -0.457485
v 3.392960 -0.333046 -0.457484
v 3.392960 -0.537387 -0.176234
v 3.392960 -0.537386 0.171410
v 3.392960 -0.333046 0.452659
v 3.392960 -0.002417 0.560087
v 3.392960 0.328212 0.452659
v 3.392960 0.532552 0.171409
v 3.392960 0.532552 -0.176235
v 3.392960 0.532552 0.171410
v -1.857040 0.532552 0.171411
v -1.857040 0.328212 0.452659
v 3.392960 0.328212 0.452659
v 3.392960 0.532552 -0.176235
v -1.857040 0.532554 -0.176234
v 3.392960 0.328212 -0.457485
v -1.857040 0.328214 -0.457484
v 3.392960 -0.002417 -0.564914
v -1.857040 -0.002416 -0.564914
v 3.392960 -0.333046 -0.457485
v -1.857040 -0.333045 -0.457486
v 3.392960 -0.537387 -0.176235
v -1.857040 -0.537385 -0.176237
v 3.392960 -0.537387 0.171409
v -1.857040 -0.537386 0.171408
v 3.392960 -0.333046 0.452659
v -1.857040 -0.333047 0.452659
v 3.392960 -0.002417 0.560086
v -1.857040 -0.002418 0.560086
v -1.857040 -0.564917 2.247587
v -3.357040 -0.564917 2.247586
v -1.857040 -0.564917 -2.252413
v -3.357040 -0.564917 -2.252413
v -1.857040 -0.002417 -2.252413
v -1.857040 -0.002417 2.247587
v -3.357040 -0.002417 2.247586
v -3.357040 -0.002417 -2.252413
v -1.857040 0.560083 -2.252413
v -3.357040 0.560083 -2.252413
v -3.357040 0.560083 2.247588
v -1.857040 0.560083 2.247587
vt 0.279647 0.400005
vt 0.272629 0.767418
vt 0.267082 0.400156
vt 0.289226 0.767509
vt 0.264388 0.400239
vt 0.254681 0.768516
vt 0.254709 0.401007
vt 0.238799 0.768682
vt 0.341356 0.400060
vt 0.328883 0.767863
vt 0.308723 0.400007
vt 0.310055 0.843682
vt 0.222077 0.400659
vt 0.220689 0.844893
vt 0.220899 0.993307
vt 0.182943 0.768801
vt 0.196916 0.768429
vt 0.344967 0.767616
vt 0.308953 0.993832
vt 0.353785 0.401094
vt 0.194327 0.401006
vt 0.177324 0.401697
vt 0.325705 0.355462
vt 0.315343 0.347773
vt 0.318857 0.344526
vt 0.328972 0.326105
vt 0.319965 0.340489
vt 0.315343 0.336218
vt 0.325826 0.342782
vt 0.332119 0.342782
vt 0.337980 0.340489
vt 0.342602 0.336218
vt 0.332554 0.344526
vt 0.336068 0.347773
vt 0.328098 0.342782
vt 0.323313 0.342782
vt 0.425997 0.084823
vt 0.423180 0.110499
vt 0.338587 0.114503
vt 0.341403 0.088828
vt 0.443624 0.070361
vt 0.315343 0.070361
vt 0.339182 0.053893
vt 0.428179 0.049829
vt 0.462207 0.070361
vt 0.427472 0.021475
vt 0.447193 0.000000
vt 0.449241 0.128966
vt 0.378497 0.227311
vt 0.365897 0.226497
vt 0.365897 0.129780
vt 0.378496 0.130593
vt 0.353298 0.225683
vt 0.353298 0.128966
vt 0.340646 0.226300
vt 0.340646 0.129583
vt 0.327995 0.226918
vt 0.327995 0.130201
vt 0.327942 0.325291
vt 0.315343 0.324477
vt 0.315343 0.227760
vt 0.327942 0.228574
vt 0.340541 0.326105
vt 0.340541 0.229388
vt 0.353193 0.228770
vt 0.353193 0.325487
vt 0.365845 0.228153
vt 0.365845 0.324870
vt 0.334636 0.026666
vt 0.378497 0.227535
vt 0.378497 0.324253
vt 0.315343 0.227535
vt 0.315343 0.130818
vt 0.320959 0.128966
vt 0.316347 0.013734
vn -0.006493 -0.953501 -0.301319
vn -0.004113 -0.891540 -0.452923
vn -0.009759 0.891507 -0.452901
vn -0.003322 -0.999965 0.007627
vn 0.001391 -0.996744 0.080613
vn -0.004246 0.997625 -0.068744
vn -0.002376 0.995238 -0.097450
vn -0.039794 0.944691 0.325540
vn -0.083013 0.888470 0.451364
vn -0.039795 -0.944690 0.325542
vn -0.083014 -0.888468 0.451368
vn -0.083013 -0.888471 -0.451363
vn -0.039795 -0.944690 -0.325541
vn -0.039794 0.944691 -0.325538
vn -0.083012 0.888473 -0.451360
vn 0.001793 -0.996221 -0.086831
vn 0.001391 -0.996745 -0.080613
vn -0.009760 -0.891504 0.452907
vn -0.009759 -0.891503 0.452910
vn -0.004246 0.997625 0.068744
vn -0.002376 0.995238 0.097450
vn -0.009759 0.891508 0.452899
vn -0.009759 0.891505 0.452906
vn 0.580702 0.251576 -0.774271
vn 0.580701 -0.251578 -0.774270
vn 0.580702 -0.658633 -0.478527
vn 0.580703 -0.814116 0.000003
vn 0.580703 -0.658633 0.478526
vn 0.580703 -0.251576 0.774270
vn 0.580703 0.251576 0.774270
vn 0.580703 0.658633 0.478525
vn 0.580703 0.814116 0.000000
vn 0.580702 0.658634 -0.478525
vn -0.000000 -1.000000 0.000000
vn 1.000000 0.000000 -0.000000
vn -0.000000 -0.000002 1.000000
vn -0.000001 -0.000000 1.000000
vn 0.000000 -0.309015 0.951057
vn 0.000000 -0.809017 0.587785
vn -0.000000 -1.000000 -0.000002
vn -0.000000 -0.809016 -0.587787
vn -0.000000 0.309014 0.951057
vn 0.000000 0.809016 0.587787
vn 0.000000 1.000000 0.000003
vn 0.000000 0.809017 -0.587785
vn -0.000000 1.000000 -0.000000
vn -0.000000 0.309021 -0.951055
vn 0.000000 -0.309019 -0.951056
vn -0.000000 -0.000000 -1.000000
vn -1.000000 0.000000 0.000000
usemtl sword_blade_textu.004
s off
f 1/1/1 2/2/1 3/3/1
f 2/2/2 1/1/2 4/4/2
f 3/5/3 2/6/3 5/7/3
f 2/6/3 6/8/3 5/7/3
f 7/9/4 8/10/4 9/11/4
f 8/10/5 10/12/5 9/11/5
f 5/7/6 6/8/6 11/13/6
f 6/8/7 12/14/7 11/13/7
f 12/14/8 13/15/8 14/16/8
f 12/14/9 14/16/9 15/17/9
f 14/18/10 13/19/10 10/12/10
f 14/18/11 10/12/11 8/10/11
f 2/2/12 4/4/12 10/12/12
f 2/2/13 10/12/13 13/19/13
f 2/6/14 13/15/14 12/14/14
f 2/6/15 12/14/15 6/8/15
f 1/1/16 9/11/16 4/4/16
f 9/11/17 10/12/17 4/4/17
f 16/20/18 14/18/18 7/9/18
f 14/18/19 8/10/19 7/9/19
f 17/21/20 11/13/20 15/17/20
f 11/13/21 12/14/21 15/17/21
f 16/22/22 17/21/22 14/16/22
f 17/21/23 15/17/23 14/16/23
f 18/23/24 19/24/24 20/25/24
f 18/26/25 21/27/25 19/28/25
f 18/26/26 22/29/26 21/27/26
f 18/26/27 23/30/27 22/29/27
f 18/26/28 24/31/28 23/30/28
f 18/26/29 25/32/29 24/31/29
f 18/23/30 26/33/30 25/34/30
f 18/23/31 27/35/31 26/33/31
f 18/23/32 28/36/32 27/35/32
f 18/23/33 20/25/33 28/36/33
f 49/37/34 50/38/34 52/39/34 51/40/34
f 54/41/35 49/37/35 51/40/35 53/42/35
f 53/42/35 57/43/35 60/44/35 54/45/35
f 60/44/36 59/46/36 55/47/36 54/45/36
f 54/41/37 55/48/37 50/38/37 49/37/37
f 48/49/38 46/50/38 45/51/38 47/52/38
f 46/50/39 44/53/39 43/54/39 45/51/39
f 43/54/40 44/53/40 42/55/40 41/56/40
f 41/56/41 42/55/41 40/57/41 39/58/41
f 31/59/42 48/60/42 47/61/42 32/62/42
f 30/63/43 31/59/43 32/62/43 29/64/43
f 33/65/44 34/66/44 30/63/44 29/64/44
f 35/67/45 36/68/45 34/66/45 33/65/45
f 58/69/46 59/46/46 60/44/46 57/43/46
f 37/70/47 38/71/47 36/68/47 35/67/47
f 39/58/48 40/57/48 38/72/48 37/73/48
f 56/74/49 53/42/49 51/40/49 52/39/49
f 56/75/49 58/69/49 57/43/49 53/42/49
f 59/46/50 58/69/50 56/75/50 55/47/50
f 56/74/50 52/39/50 50/38/50 55/48/50
