# Blender v2.55 (sub 0) OBJ File: 'weapons.blend'
# www.blender.org
o Mesh.017_Mesh.spear
v 16.867775 -0.001324 0.001517
v 16.867775 -0.531649 -0.528816
v 16.867775 0.082655 -0.743766
v 16.867775 0.633724 -0.397506
v 16.867775 0.706594 0.249226
v 16.867775 0.246386 0.709427
v 16.867775 -0.400345 0.636557
v 16.867775 -0.746605 0.085487
v -31.132225 0.633720 -0.397506
v -31.132225 0.706591 0.249226
v -31.132225 0.246391 0.709427
v -31.132225 -0.400341 0.636557
v -31.132225 -0.746601 0.085487
v -31.132225 -0.531651 -0.528816
v -31.132225 0.082651 -0.743766
v -31.136953 -0.005405 0.002904
v -31.136953 -0.287664 -1.222277
v -31.136953 -0.005406 -1.729763
v -31.136953 0.276854 -1.222277
v -31.136953 0.393768 0.002904
v -31.136953 0.276854 1.228085
v -31.136953 -0.005405 1.735571
v -31.136953 -0.287664 1.228085
v -31.136953 -0.404581 0.002905
v -32.394028 -0.514782 0.002905
v -32.394028 -0.365589 -1.560516
v -32.394028 -0.365589 1.566324
v -32.394028 -0.005405 2.213913
v -32.394028 0.354778 1.566324
v -32.394028 0.503967 0.002904
v -32.394028 0.354778 -1.560516
v -32.394028 -0.005406 -2.208105
v -34.428207 -0.385555 -1.670034
v -34.428207 -0.005406 -2.353520
v -34.428207 0.374741 -1.670034
v -34.428207 0.532204 -0.019952
v -34.428207 0.374741 1.630130
v -34.428207 -0.005405 2.313616
v -34.428207 -0.385555 1.630130
v -34.428207 -0.543018 -0.019951
v -36.302391 -0.436825 0.002905
v -36.302391 -0.310467 -1.321246
v -36.302391 -0.310467 1.327055
v -36.302391 -0.005405 1.875535
v -36.302391 0.299652 1.327055
v -36.302391 0.426014 0.002904
v -36.302391 0.299652 -1.321246
v -36.302391 -0.005406 -1.869728
v -39.090816 -0.005405 0.002904
vt 0.620474 0.011056
vt 0.605052 0.055935
vt 0.592643 0.055935
vt 0.577831 0.055935
vt 0.662973 0.055935
vt 0.649314 0.055935
vt 0.637339 0.055935
vt 0.626520 0.055935
vt 0.616035 0.055935
vt 0.448270 0.907522
vt 0.428345 0.911856
vt 0.416295 0.909019
vt 0.373787 0.908508
vt 0.405746 0.909253
vt 0.390615 0.911122
vt 0.373426 0.911171
vt 0.359321 0.910098
vt 0.344296 0.910727
vt 0.475454 0.909314
vt 0.459651 0.912396
vt 0.447465 0.914035
vt 0.447748 0.919699
vt 0.467331 0.919350
vt 0.478462 0.918612
vt 0.353925 0.920588
vt 0.373498 0.920686
vt 0.393072 0.919877
vt 0.407484 0.920663
vt 0.428167 0.919140
vt 0.413752 0.920422
vt 0.426013 0.940251
vt 0.406581 0.940676
vt 0.395173 0.940965
vt 0.373893 0.941476
vt 0.342030 0.920012
vt 0.352605 0.941741
vt 0.478776 0.940542
vt 0.468600 0.940483
vt 0.447303 0.940490
vt 0.447432 0.960091
vt 0.464515 0.960256
vt 0.472369 0.961955
vt 0.342434 0.941930
vt 0.356640 0.961466
vt 0.373716 0.961082
vt 0.390802 0.960850
vt 0.401251 0.964193
vt 0.413060 0.940315
vt 0.430338 0.960077
vt 0.417573 0.963719
vt 0.445735 0.991583
vt 0.374570 0.991288
vt 0.348019 0.963271
vt 0.609466 0.377909
vt 0.583003 0.377909
vt 0.596356 0.377909
vt 0.622520 0.377909
vt 0.635565 0.377909
vt 0.648652 0.377909
vt 0.661962 0.377909
vt 0.570145 0.377909
vn 1.000000 0.000000 -0.000000
vn 0.086938 -0.991709 -0.094637
vn 0.086939 -0.991709 -0.094636
vn 0.086939 -0.991708 0.094637
vn 0.086938 -0.991709 0.094636
vn 0.181874 -0.859346 0.477960
vn 0.181874 -0.859346 0.477961
vn 0.181874 0.859346 0.477960
vn 0.181874 0.859346 0.477961
vn 0.086936 0.991709 0.094635
vn 0.086938 0.991709 0.094634
vn 0.086938 0.991709 -0.094635
vn 0.086936 0.991709 -0.094634
vn 0.181874 0.859346 -0.477960
vn 0.181874 0.859346 -0.477961
vn 0.181874 -0.859346 -0.477960
vn 0.181874 -0.859346 -0.477961
vn 0.034726 -0.873394 -0.485775
vn 0.034726 0.873394 -0.485775
vn 0.034724 0.873396 -0.485771
vn 0.014882 0.995368 -0.094983
vn 0.014884 0.995367 -0.094985
vn 0.012750 0.995397 0.094985
vn 0.012748 0.995397 0.094988
vn 0.023816 0.873673 0.485930
vn 0.023817 0.873675 0.485927
vn 0.023817 -0.873673 0.485930
vn 0.023818 -0.873673 0.485930
vn 0.012750 -0.995397 0.094988
vn 0.014884 -0.995367 -0.094985
vn -0.057468 -0.993832 -0.094839
vn -0.057467 -0.993833 -0.094837
vn -0.055161 -0.993962 0.094851
vn -0.055162 -0.993962 0.094850
vn -0.112890 -0.868334 0.482961
vn -0.112889 -0.868334 0.482962
vn -0.112889 0.868336 0.482957
vn -0.112889 0.868336 0.482958
vn -0.055160 0.993962 0.094851
vn -0.055161 0.993962 0.094852
vn -0.057467 0.993833 -0.094839
vn -0.057466 0.993833 -0.094840
vn -0.124494 0.867124 -0.482283
vn -0.124494 0.867125 -0.482282
vn -0.124495 -0.867122 -0.482287
vn -0.124495 -0.867122 -0.482286
vn -0.310316 -0.830779 -0.462072
vn -0.310313 0.830782 -0.462068
vn -0.152223 0.983876 -0.093890
vn -0.152223 0.983876 0.093890
vn -0.310314 0.830781 0.462070
vn -0.310316 -0.830778 0.462074
vn -0.152223 -0.983877 0.093887
vn -0.152223 -0.983877 -0.093887
vn -0.000000 -0.943884 -0.330278
vn 0.000000 -0.330274 -0.943885
vn -0.000000 -0.846724 0.532032
vn -0.000000 -0.111966 0.993712
vn 0.000000 0.707104 0.707109
vn -0.000000 0.993712 -0.111966
vn -0.000000 0.532032 -0.846724
usemtl (null).001_texture_sw
s off
f 1/1/1 2/2/1 3/3/1
f 1/1/1 3/3/1 4/4/1
f 1/1/1 4/5/1 5/6/1
f 1/1/1 5/6/1 6/7/1
f 1/1/1 6/7/1 7/8/1
f 1/1/1 7/8/1 8/9/1
f 2/2/1 1/1/1 8/9/1
f 16/10/1 17/11/1 18/12/1
f 16/13/1 18/14/1 19/15/1
f 16/13/1 19/15/1 20/16/1
f 16/13/1 20/16/1 21/17/1
f 16/13/1 21/17/1 22/18/1
f 16/10/1 22/19/1 23/20/1
f 16/10/1 23/20/1 24/21/1
f 16/10/1 24/21/1 17/11/1
f 17/11/2 24/21/2 25/22/2
f 17/11/3 25/21/3 26/22/3
f 24/21/4 23/20/4 27/23/4
f 24/21/5 27/20/5 25/23/5
f 23/20/6 22/19/6 28/24/6
f 23/20/7 28/19/7 27/24/7
f 22/18/8 21/17/8 29/25/8
f 22/18/9 29/17/9 28/25/9
f 21/17/10 20/16/10 30/26/10
f 21/17/11 30/16/11 29/26/11
f 20/16/12 19/15/12 31/27/12
f 20/16/13 31/15/13 30/27/13
f 19/15/14 18/14/14 32/28/14
f 19/15/15 32/14/15 31/28/15
f 18/12/16 17/11/16 26/29/16
f 18/12/17 26/11/17 32/29/17
f 32/30/18 26/29/18 33/31/18
f 32/30/18 33/29/18 34/31/18
f 31/27/19 32/28/19 34/32/19
f 31/27/20 34/28/20 35/32/20
f 30/26/21 31/27/21 35/33/21
f 30/26/22 35/27/22 36/33/22
f 29/25/23 30/26/23 36/34/23
f 29/25/24 36/26/24 37/34/24
f 28/35/25 29/25/25 37/36/25
f 28/35/26 37/25/26 38/36/26
f 27/23/27 28/24/27 38/37/27
f 27/23/28 38/24/28 39/37/28
f 25/22/29 27/23/29 39/38/29
f 25/22/29 39/23/29 40/38/29
f 26/29/30 25/22/30 40/39/30
f 26/29/30 40/22/30 33/39/30
f 33/31/31 40/39/31 41/40/31
f 33/31/32 41/39/32 42/40/32
f 40/39/33 39/38/33 43/41/33
f 40/39/34 43/38/34 41/41/34
f 39/38/35 38/37/35 44/42/35
f 39/38/36 44/37/36 43/42/36
f 38/43/37 37/36/37 45/44/37
f 38/43/38 45/36/38 44/44/38
f 37/36/39 36/34/39 46/45/39
f 37/36/40 46/34/40 45/45/40
f 36/34/41 35/33/41 47/46/41
f 36/34/42 47/33/42 46/46/42
f 35/33/43 34/32/43 48/47/43
f 35/33/44 48/32/44 47/47/44
f 34/48/45 33/31/45 42/49/45
f 34/48/46 42/31/46 48/49/46
f 48/50/47 42/49/47 49/51/47
f 47/46/48 48/47/48 49/52/48
f 46/45/49 47/46/49 49/52/49
f 45/44/50 46/45/50 49/52/50
f 44/53/51 45/44/51 49/52/51
f 43/41/52 44/42/52 49/51/52
f 41/40/53 43/41/53 49/51/53
f 42/49/54 41/40/54 49/51/54
f 8/9/55 13/54/55 14/54/55 2/2/55
f 15/55/56 3/3/56 2/3/56 14/56/56
f 13/54/57 8/9/57 7/9/57 12/57/57
f 12/57/58 7/8/58 6/8/58 11/58/58
f 11/58/59 6/7/59 5/7/59 10/59/59
f 10/59/60 5/6/60 4/6/60 9/60/60
f 9/61/61 4/4/61 3/4/61 15/55/61
