# Blender v2.55 (sub 0) OBJ File: 'weapons.blend'
# www.blender.org
o Mesh.019_Mesh.twohandedsword
v -23.590321 0.486626 1.559011
v -40.755070 0.003864 1.782417
v -23.590321 0.003866 2.177043
v -40.755070 0.419125 1.261487
v -23.590321 -0.513691 1.559012
v -40.755066 -0.411392 1.261487
v -23.590321 0.486626 -1.551279
v -40.755070 0.419125 -1.253761
v -23.590321 0.486626 0.003863
v -48.755066 0.591125 0.003863
v -23.590321 -0.513691 0.003863
v -48.755066 -0.583393 0.003863
v -3.475062 -0.513693 0.003862
v -3.475063 -0.513693 2.177043
v -61.302032 0.003868 0.003863
v -40.755070 0.003864 -1.774684
v -40.755066 -0.411392 -1.253761
v -3.475063 -0.513693 -2.169309
v -23.590321 -0.513691 -1.551278
v -3.475063 0.486625 0.003862
v -3.475063 0.486625 -2.169309
v -23.590321 0.003866 -2.169309
v -3.475063 0.486625 2.177043
v 4.581988 0.003872 0.003866
v 3.781987 0.003872 0.753864
v 3.781987 -0.436967 0.610627
v 3.781987 0.444711 0.610627
v 3.781988 0.717164 0.235627
v 3.781988 0.717164 -0.227899
v 3.781989 0.444711 -0.602899
v 3.781989 0.003872 -0.746136
v 3.781989 -0.436967 -0.602899
v 3.781988 -0.709421 -0.227898
v 3.781988 -0.709420 0.235628
v 3.781988 -0.709420 -0.227898
v -1.818012 -0.709419 -0.227900
v -1.818012 -0.436966 -0.602899
v 3.781988 -0.436967 -0.602899
v 3.781988 -0.709420 0.235627
v -1.818012 -0.709420 0.235626
v 3.781988 -0.436967 0.610628
v -1.818012 -0.436968 0.610627
v 3.781988 0.003872 0.753865
v -1.818012 0.003871 0.753865
v 3.781988 0.444711 0.610628
v -1.818012 0.444710 0.610629
v 3.781988 0.717164 0.235628
v -1.818012 0.717165 0.235629
v 3.781988 0.717164 -0.227898
v -1.818012 0.717166 -0.227896
v 3.781988 0.444711 -0.602898
v -1.818012 0.444713 -0.602897
v 3.781988 0.003872 -0.746135
v -1.818012 0.003874 -0.746135
v -1.818012 1.003873 -3.996134
v -3.418012 1.003873 -3.996133
v -1.818012 1.003873 4.003864
v -3.418012 1.003873 4.003865
v -1.818012 0.003873 4.003864
v -1.818012 0.003873 -3.996134
v -3.418012 0.003873 -3.996133
v -3.418012 0.003872 4.003865
v -1.818012 -0.996127 4.003862
v -3.418012 -0.996127 4.003864
v -3.418012 -0.996127 -3.996137
v -1.818012 -0.996127 -3.996134
v -23.590321 0.486626 2.177043
v -3.475062 0.003865 2.177043
v -3.475062 0.003865 -2.169309
v -23.590321 0.486626 -2.169309
v -23.590321 -0.513691 2.177043
v -23.590321 -0.513691 -2.169309
vt 0.281644 0.435073
vt 0.273895 0.762749
vt 0.264810 0.435228
vt 0.285455 0.763329
vt 0.264668 0.433803
vt 0.254420 0.761739
vt 0.246991 0.433843
vt 0.243810 0.762348
vt 0.334788 0.435129
vt 0.331792 0.763695
vt 0.308245 0.433866
vt 0.308924 0.854962
vt 0.220585 0.432727
vt 0.220577 0.854194
vt 0.220586 0.374355
vt 0.246929 0.373853
vt 0.220573 0.992431
vt 0.185716 0.762761
vt 0.197352 0.762347
vt 0.344409 0.763052
vt 0.309207 0.992691
vt 0.194243 0.373852
vt 0.194178 0.433842
vt 0.308675 0.374616
vt 0.335216 0.374515
vt 0.352608 0.435161
vt 0.282011 0.373852
vt 0.176501 0.433800
vt 0.325705 0.355462
vt 0.315343 0.347773
vt 0.318857 0.344526
vt 0.328972 0.326105
vt 0.319965 0.340489
vt 0.315343 0.336218
vt 0.325826 0.342782
vt 0.332119 0.342782
vt 0.337980 0.340489
vt 0.342602 0.336218
vt 0.332554 0.344526
vt 0.336068 0.347773
vt 0.328098 0.342782
vt 0.323313 0.342782
vt 0.275033 0.404601
vt 0.268421 0.374129
vt 0.348755 0.374705
vt 0.341772 0.404917
vt 0.260345 0.373897
vt 0.253668 0.403870
vt 0.187503 0.403868
vt 0.180828 0.373895
vt 0.365845 0.228153
vt 0.365845 0.324870
vt 0.353193 0.325487
vt 0.353193 0.228770
vt 0.378497 0.227535
vt 0.378497 0.324253
vt 0.340541 0.326105
vt 0.340541 0.229388
vt 0.327995 0.130201
vt 0.327995 0.226918
vt 0.315343 0.227535
vt 0.315343 0.130818
vt 0.327942 0.325291
vt 0.327942 0.228574
vt 0.316347 0.013734
vt 0.334636 0.026666
vt 0.339182 0.053893
vt 0.315343 0.070361
vt 0.320959 0.128966
vt 0.341403 0.088828
vt 0.338587 0.114503
vt 0.427472 0.021475
vt 0.428179 0.049829
vt 0.340646 0.129583
vt 0.340646 0.226300
vt 0.353298 0.128966
vt 0.353298 0.225683
vt 0.365897 0.226497
vt 0.365897 0.129780
vt 0.378497 0.227311
vt 0.378496 0.130593
vt 0.425997 0.084823
vt 0.423180 0.110499
vt 0.443624 0.070361
vt 0.449241 0.128966
vt 0.447193 0.000000
vt 0.462207 0.070361
vt 0.315343 0.324477
vt 0.315343 0.227760
vn -0.014151 0.787993 0.615521
vn -0.013878 0.781879 0.623276
vn -0.014759 -0.766591 0.641966
vn -0.015463 -0.781863 0.623258
vn -0.003933 0.999992 -0.000000
vn 0.004128 0.993958 -0.109684
vn -0.005960 -0.999982 0.000000
vn 0.002750 -0.992973 0.118310
vn -0.000000 -1.000000 0.000000
vn -0.041137 -0.878896 -0.475237
vn -0.080912 -0.779389 -0.621294
vn -0.041136 0.878895 -0.475238
vn -0.080913 0.779386 -0.621297
vn -0.080912 0.779390 0.621292
vn -0.041136 0.878896 0.475236
vn 0.000000 1.000000 0.000000
vn -0.041137 -0.878896 0.475236
vn -0.080911 -0.779393 0.621288
vn 0.004128 0.993958 0.109684
vn -0.014151 0.787993 -0.615521
vn -0.013878 0.781875 -0.623281
vn 0.002750 -0.992973 -0.118310
vn -0.014759 -0.766591 -0.641966
vn -0.015463 -0.781859 -0.623263
vn 0.665498 -0.230650 0.709868
vn 0.665498 0.230650 0.709868
vn 0.665499 0.603849 0.438723
vn 0.665500 0.746398 0.000000
vn 0.665501 0.603849 -0.438720
vn 0.665501 0.230649 -0.709866
vn 0.665501 -0.230650 -0.709865
vn 0.665501 -0.603849 -0.438720
vn 0.665500 -0.746398 0.000002
vn 0.665499 -0.603848 0.438723
vn 0.000000 0.000000 1.000000
vn -1.000000 0.000000 0.000000
vn -0.000000 -0.000000 -1.000000
vn 0.000000 -0.809019 0.587783
vn -0.000000 -0.309017 0.951056
vn -0.000000 -1.000000 -0.000001
vn 0.000000 0.309015 0.951057
vn -0.000000 -0.809017 -0.587785
vn 0.000001 -0.000001 1.000000
vn 0.000001 -0.000000 1.000000
vn 0.000000 0.809016 0.587786
vn 0.000000 1.000000 0.000001
vn 0.000000 0.809018 -0.587784
vn 0.000000 0.309017 -0.951056
vn -0.000001 0.000000 -1.000000
vn 0.000000 0.000002 -1.000000
vn 1.000000 -0.000000 -0.000000
vn -0.000000 -0.309016 -0.951057
usemtl sword_blade_texture_s
s off
f 1/1/1 2/2/1 3/3/1
f 2/2/2 1/1/2 4/4/2
f 3/5/3 2/6/3 5/7/3
f 2/6/4 6/8/4 5/7/4
f 7/9/5 8/10/5 9/11/5
f 8/10/6 10/12/6 9/11/6
f 5/7/7 6/8/7 11/13/7
f 6/8/8 12/14/8 11/13/8
f 13/15/9 14/16/9 11/13/9
f 14/16/9 5/7/9 11/13/9
f 12/14/10 15/17/10 16/18/10
f 12/14/11 16/18/11 17/19/11
f 16/20/12 15/21/12 10/12/12
f 16/20/13 10/12/13 8/10/13
f 13/15/9 11/13/9 18/22/9
f 11/13/9 19/23/9 18/22/9
f 2/2/14 4/4/14 10/12/14
f 2/2/15 10/12/15 15/21/15
f 20/24/16 21/25/16 9/11/16
f 21/25/16 7/9/16 9/11/16
f 2/6/17 15/17/17 12/14/17
f 2/6/18 12/14/18 6/8/18
f 1/1/5 9/11/5 4/4/5
f 9/11/19 10/12/19 4/4/19
f 22/26/20 16/20/20 7/9/20
f 16/20/21 8/10/21 7/9/21
f 19/23/7 11/13/7 17/19/7
f 11/13/22 12/14/22 17/19/22
f 20/24/16 9/11/16 23/27/16
f 9/11/16 1/1/16 23/27/16
f 22/28/23 19/23/23 16/18/23
f 19/23/24 17/19/24 16/18/24
f 24/29/25 25/30/25 26/31/25
f 24/32/26 27/33/26 25/34/26
f 24/32/27 28/35/27 27/33/27
f 24/32/28 29/36/28 28/35/28
f 24/32/29 30/37/29 29/36/29
f 24/32/30 31/38/30 30/37/30
f 24/29/31 32/39/31 31/40/31
f 24/29/32 33/41/32 32/39/32
f 24/29/33 34/42/33 33/41/33
f 24/29/34 26/31/34 34/42/34
f 1/1/16 67/43/16 23/27/16
f 67/43/35 68/44/35 23/27/35
f 68/44/35 67/43/35 3/3/35
f 67/43/36 1/1/36 3/3/36
f 69/45/37 70/46/37 21/25/37
f 70/46/16 7/9/16 21/25/16
f 7/9/36 70/46/36 22/26/36
f 70/46/37 69/45/37 22/26/37
f 68/47/35 71/48/35 14/16/35
f 71/48/9 5/7/9 14/16/9
f 5/7/36 71/48/36 3/5/36
f 71/48/35 68/47/35 3/5/35
f 19/23/9 72/49/9 18/22/9
f 72/49/37 69/50/37 18/22/37
f 69/50/37 72/49/37 22/28/37
f 72/49/36 19/23/36 22/28/36
f 41/51/38 42/52/38 40/53/38 39/54/38
f 43/55/39 44/56/39 42/52/39 41/51/39
f 39/54/40 40/53/40 36/57/40 35/58/40
f 45/59/41 46/60/41 44/61/41 43/62/41
f 36/57/42 37/63/42 38/64/42 35/58/42
f 62/65/43 64/66/43 63/67/43 59/68/43
f 62/69/44 59/68/44 57/70/44 58/71/44
f 64/66/9 65/72/9 66/73/9 63/67/9
f 47/74/45 48/75/45 46/60/45 45/59/45
f 49/76/46 50/77/46 48/75/46 47/74/46
f 52/78/47 50/77/47 49/76/47 51/79/47
f 54/80/48 52/78/48 51/79/48 53/81/48
f 55/82/16 56/83/16 58/71/16 57/70/16
f 60/84/49 61/85/49 56/83/49 55/82/49
f 66/73/50 65/72/50 61/86/50 60/87/50
f 60/84/51 55/82/51 57/70/51 59/68/51
f 59/68/51 63/67/51 66/73/51 60/87/51
f 65/72/36 64/66/36 62/65/36 61/86/36
f 62/69/36 58/71/36 56/83/36 61/85/36
f 37/63/52 54/88/52 53/89/52 38/64/52
