# Blender v2.55 (sub 0) OBJ File: ''
# www.blender.org
mtllib cube.mtl
o Cube.001
v 3.000000 -3.000000 -3.000000
v 3.000000 -3.000000 3.000000
v -3.000000 -3.000000 3.000000
v -3.000000 -3.000000 -3.000000
v 3.000000 3.000000 -3.000000
v 2.999999 3.000000 3.000001
v -3.000000 3.000000 3.000000
v -3.000000 3.000000 -3.000000
vt 0.000000 0.500000
vt 0.000000 0.250000
vt 0.250000 0.250000
vt 0.250000 0.500000
vt 0.750000 0.499999
vt 0.500000 0.500000
vt 0.499999 0.250000
vt 0.749999 0.249999
vt 0.250000 0.750000
vt 0.500000 0.750000
vt 0.500000 1.000000
vt 0.249999 1.000000
vt 0.250000 0.000000
vt 0.499999 0.000000
vn -0.000000 -1.000000 0.000000
vn 0.000000 1.000000 -0.000000
vn 1.000000 0.000000 0.000000
vn -0.000000 -0.000000 1.000000
vn -1.000000 -0.000000 -0.000000
vn 0.000000 0.000000 -1.000000
usemtl None_texture_cube.png
s off
f 1/1/1 2/2/1 3/3/1 4/4/1
f 5/5/2 8/6/2 7/7/2 6/8/2
f 1/9/3 5/10/3 6/11/3 2/12/3
f 2/13/4 6/14/4 7/7/4 3/3/4
f 3/3/5 7/7/5 8/6/5 4/4/5
f 5/10/6 1/9/6 4/4/6 8/6/6
