# Blender v2.55 (sub 0) OBJ File: 'untitled.blend'
# www.blender.org
o Cube_Cube.002
v 0.000000 -0.000000 -1.414214
v 1.414214 0.000000 0.000000
v -0.000000 0.000000 1.414213
v -1.414213 -0.000000 -0.000000
v 0.000000 1.414000 0.000000
v 0.000000 -1.414000 -0.000000
vt 0.879136 0.072512
vt 0.937476 0.173549
vt 0.820805 0.173564
vt 0.879162 0.274601
vt 0.995842 0.274571
vt 0.995815 0.072512
vt 0.820832 0.375654
vt 0.762492 0.274617
vt 0.704152 0.375654
vt 0.645822 0.274602
vn 0.577321 0.577408 -0.577321
vn 0.577321 0.577408 0.577321
vn -0.577321 0.577408 0.577321
vn -0.577321 0.577408 -0.577321
vn -0.577321 -0.577408 0.577321
vn -0.577321 -0.577408 -0.577321
vn 0.577321 -0.577408 -0.577321
vn 0.577321 -0.577408 0.577321
usemtl (null)
s off
f 1/1/1 5/2/1 2/3/1
f 2/3/2 5/2/2 3/4/2
f 3/4/3 5/2/3 4/5/3
f 5/2/4 1/1/4 4/6/4
f 3/4/5 4/7/5 6/8/5
f 4/7/6 1/9/6 6/8/6
f 1/9/7 2/10/7 6/8/7
f 2/3/8 3/4/8 6/8/8
