# Blender v2.55 (sub 0) OBJ File: ''
# www.blender.org
o Mesh_Mesh.002_Cylinder.004
v 0.847524 -0.826878 10.172925
v 1.407915 -1.315161 -0.015651
v 1.990257 0.568395 -0.015935
v 1.224748 0.393239 10.172740
v 0.399269 1.947252 -0.016145
v 0.194150 1.286425 10.172605
v -1.774065 1.442557 -0.016069
v -1.213675 0.959495 10.172654
v -2.356408 -0.440999 -0.015782
v -1.590900 -0.260620 10.172839
v -0.765420 -1.819856 -0.015574
v -0.560301 -1.153805 10.172975
v 0.520836 0.229934 10.799350
v -0.183075 0.066502 10.923499
v 0.332225 -0.380123 10.799441
v 0.612420 -0.625979 -0.983047
v -0.183075 0.063402 -1.174768
v 0.903591 0.315799 -0.983188
v 0.005536 0.676527 10.799283
v 0.108096 1.005228 -0.983293
v -0.698376 0.513062 10.799308
v -0.978570 0.752881 -0.983255
v -0.886987 -0.096994 10.799399
v -1.269742 -0.188898 -0.983111
v -0.371688 -0.543588 10.799466
v -0.474248 -0.878328 -0.983008
vn 0.953265 -0.294712 0.066555
vn 0.653663 0.754236 0.062078
vn -0.225813 0.972411 0.058523
vn -0.953269 0.294734 0.066405
vn -0.653656 -0.754209 0.062464
vn 0.225810 -0.972382 0.059021
vn 0.186326 -0.057459 0.980806
vn 0.676821 -0.209147 0.705812
vn 0.186328 -0.057754 -0.980789
vn 0.676842 -0.209367 -0.705726
vn 0.136041 0.157116 0.978165
vn 0.478913 0.552694 0.682035
vn 0.136037 0.156816 -0.978214
vn 0.478875 0.552444 -0.682264
vn -0.049662 0.214005 0.975569
vn -0.169798 0.731285 0.660599
vn -0.049660 0.213701 -0.975636
vn -0.169780 0.731011 -0.660907
vn -0.186327 0.057754 0.980789
vn -0.676843 0.209367 0.705726
vn -0.186326 0.057457 -0.980806
vn -0.676821 0.209147 -0.705812
vn -0.136036 -0.156817 0.978214
vn -0.478874 -0.552444 0.682265
vn -0.136041 -0.157117 -0.978165
vn -0.478913 -0.552694 -0.682035
vn 0.049661 -0.213702 0.975636
vn 0.169780 -0.731010 0.660907
vn 0.049662 -0.214005 -0.975569
vn 0.169797 -0.731285 -0.660599
usemtl (null)
s off
f 1//1 2//1 3//1 4//1
f 4//2 3//2 5//2 6//2
f 6//3 5//3 7//3 8//3
f 8//4 7//4 9//4 10//4
f 10//5 9//5 11//5 12//5
f 2//6 1//6 12//6 11//6
f 13//7 14//7 15//7
f 15//8 1//8 4//8 13//8
f 16//9 17//9 18//9
f 2//10 16//10 18//10 3//10
f 19//11 14//11 13//11
f 6//12 19//12 13//12 4//12
f 18//13 17//13 20//13
f 3//14 18//14 20//14 5//14
f 21//15 14//15 19//15
f 8//16 21//16 19//16 6//16
f 20//17 17//17 22//17
f 5//18 20//18 22//18 7//18
f 23//19 14//19 21//19
f 10//20 23//20 21//20 8//20
f 22//21 17//21 24//21
f 7//22 22//22 24//22 9//22
f 25//23 14//23 23//23
f 12//24 25//24 23//24 10//24
f 24//25 17//25 26//25
f 9//26 24//26 26//26 11//26
f 15//27 14//27 25//27
f 1//28 15//28 25//28 12//28
f 26//29 17//29 16//29
f 11//30 26//30 16//30 2//30
