# Blender v2.55 (sub 0) OBJ File: 'bodyparts.blend'
# www.blender.org
o Mesh.002_Mesh_Head.001
v -5.798044 -4.499094 11.177271
v -5.925056 -3.955513 11.108016
v -6.768492 -5.056221 11.442994
v -6.671884 -5.469680 11.495670
v -6.033243 -3.755291 10.593611
v -6.850780 -4.903927 11.051727
v -6.014417 -4.098646 10.148461
v -6.836461 -5.165091 10.713137
v -5.887405 -4.642225 10.217715
v -6.739853 -5.578549 10.765813
v -5.779219 -4.842448 10.732121
v -6.657564 -5.730843 11.157080
v 5.822657 -3.718522 10.908826
v 5.668759 -4.205215 11.290731
v 6.535942 -5.254530 11.525786
v 6.639228 -4.927894 11.269476
v 5.573333 -4.785562 11.044770
v 6.471898 -5.644022 11.360713
v 5.631805 -4.879217 10.416904
v 6.511141 -5.706878 10.939329
v 5.785703 -4.392523 10.034999
v 6.614427 -5.380241 10.683019
v 5.881129 -3.812177 10.280960
v 6.678471 -4.990748 10.848092
v 2.597035 -2.834221 10.370493
v 4.207039 -3.146106 10.521025
v 4.268950 -3.245270 9.856225
v 2.665825 -2.944403 9.631826
v 4.167912 -3.859756 9.595797
v 2.553559 -3.627165 9.342461
v 4.004961 -4.375077 10.000167
v 2.372503 -4.199744 9.791762
v 3.943049 -4.275913 10.664966
v 2.303713 -4.089562 10.530428
v 4.044089 -3.661428 10.925396
v 2.415979 -3.406800 10.819794
v -2.519520 -3.783948 10.767001
v -4.155176 -4.000860 10.877881
v -4.132586 -4.412885 10.343700
v -2.494420 -4.241754 10.173466
v -4.262409 -4.172616 9.726416
v -2.638668 -3.974789 9.487594
v -4.414824 -3.520322 9.643310
v -2.808018 -3.250017 9.395254
v -4.437415 -3.108297 10.177491
v -2.833118 -2.792211 9.988790
v -4.307591 -3.348565 10.794777
v -2.688870 -3.059175 10.674662
v -7.440636 -6.380495 11.642229
v 7.261658 -6.380495 11.642228
v -0.089542 -7.186176 9.945803
v 2.407021 -4.449268 10.557086
v -0.089540 -4.235210 11.584388
v -2.586103 -4.449267 10.557086
v 1.879832 -1.517152 11.200801
v -2.058913 -1.517151 11.200801
v -0.089540 -0.329027 11.499640
v 0.882498 -12.085156 6.293857
v -0.089542 -11.179630 7.260320
v -0.089542 -11.987077 6.280133
v -1.061581 -12.085156 6.293857
v -0.089540 -4.307365 1.461085
v 0.816119 -11.198859 3.588079
v -0.089542 -11.411752 3.523403
v -0.995202 -11.198857 3.588079
v 2.272000 -6.723206 9.391765
v 3.340664 -2.318784 8.790456
v -3.519746 -2.318782 8.790456
v -2.451082 -6.723206 9.391765
v -0.089542 -7.664570 8.419438
v 2.414263 -1.340868 0.560023
v -0.089540 1.586043 1.360256
v -0.089540 0.988314 4.607703
v -2.593344 -1.340868 0.560023
v 2.328841 -1.934706 3.278582
v -2.507923 -1.934706 3.278582
v -0.089540 -3.400992 -0.613692
v 2.175844 -7.202702 7.956957
v 2.701192 -6.180501 6.319664
v -2.880274 -6.180501 6.319664
v -2.354926 -7.202700 7.956957
v -0.089542 -9.066890 8.027099
v 3.425831 -2.566639 6.290325
v 2.600404 -6.703526 5.333864
v -2.779486 -6.703526 5.333864
v -3.604913 -2.566638 6.290326
v -0.089540 1.897840 7.035956
v -0.089540 1.678462 9.353175
v 4.021782 -0.695282 11.081948
v 2.559343 -1.807768 9.774329
v 3.340308 -2.517789 10.859808
v -3.519390 -2.517789 10.859808
v -2.738424 -1.807767 9.774329
v -4.200863 -0.695281 11.081948
v 3.079157 -2.567529 8.393814
v -3.258238 -2.567528 8.393814
v 3.478603 -1.394241 8.138534
v -3.657684 -1.394240 8.138534
v 2.510513 -0.036886 6.355694
v -2.689594 -0.036886 6.355694
v 2.467930 0.535310 9.071824
v -2.647009 0.535311 9.071822
v -2.513370 -3.855817 2.431934
v 2.334288 -3.855817 2.431934
v 1.708261 -8.951193 3.120369
v -1.887344 -8.951191 3.120369
v 1.033442 -10.576023 7.314526
v -1.212525 -10.576023 7.314526
v 1.255431 -7.885207 6.834530
v -1.434514 -7.885207 6.834530
v 1.305825 -7.623695 7.173383
v -1.484908 -7.623694 7.173383
v 0.343333 -0.743100 -1.148849
vt 0.500784 0.502369
vt 0.481382 0.385870
vt 0.522312 0.349985
vt 0.481382 0.618872
vt 0.500785 0.502372
vt 0.522313 0.654756
vt 0.484029 0.307018
vt 0.484030 0.697724
vt 0.507983 0.269587
vt 0.507984 0.735155
vt 0.341588 0.472704
vt 0.341513 0.502372
vt 0.325212 0.502372
vt 0.341588 0.532039
vt 0.198424 0.473287
vt 0.224907 0.474730
vt 0.222933 0.502372
vt 0.222934 0.502375
vt 0.224907 0.530013
vt 0.198425 0.531455
vt 0.483875 0.430295
vt 0.431089 0.323821
vt 0.431090 0.680921
vt 0.483875 0.574448
vt 0.410781 0.502372
vt 0.914821 0.969966
vt 0.991506 0.962628
vt 0.991317 0.999714
vt 0.534358 0.999714
vt 0.534169 0.962628
vt 0.610854 0.969966
vt 0.921978 0.993321
vt 0.603697 0.993321
vt 0.762841 0.944014
vt 0.799014 0.960971
vt 0.798677 0.990414
vt 0.726999 0.990414
vt 0.726661 0.960972
vt 0.762834 0.944014
vt 0.762856 0.975953
vt 0.762819 0.975953
vt 0.408788 0.433230
vt 0.390111 0.417196
vt 0.390111 0.587548
vt 0.408788 0.571514
vt 0.389999 0.502372
vt 0.363853 0.318004
vt 0.360023 0.420272
vt 0.360023 0.584472
vt 0.363853 0.686738
vt 0.262240 0.329025
vt 0.287719 0.215483
vt 0.354161 0.200259
vt 0.354162 0.804483
vt 0.287720 0.789259
vt 0.262241 0.675717
vt 0.447405 0.212931
vt 0.447405 0.791811
vt 0.512189 0.173593
vt 0.407070 0.186438
vt 0.431811 0.163797
vt 0.362514 0.163957
vt 0.387256 0.186598
vt 0.282136 0.173753
vt 0.429618 0.055039
vt 0.364708 0.055199
vt 0.504195 0.010529
vt 0.481363 0.043781
vt 0.312962 0.043940
vt 0.290130 0.010667
vt 0.380866 0.252452
vt 0.380866 0.752290
vt 0.440113 0.275832
vt 0.440113 0.728910
vt 0.271454 0.586974
vt 0.271454 0.417769
vt 0.292465 0.447501
vt 0.292465 0.557243
vt 0.365793 0.487538
vt 0.365793 0.517205
vt 0.375011 0.461322
vt 0.375011 0.543422
vt 0.390055 0.459784
vt 0.390055 0.544960
vt 0.366846 0.916499
vt 0.366846 0.918609
vt 0.406967 0.916235
vt 0.406967 0.914804
vt 0.366846 0.906880
vt 0.366846 0.908456
vt 0.406967 0.909914
vt 0.406967 0.909112
vt 0.366846 0.910271
vt 0.406967 0.911290
vt 0.366846 0.912113
vt 0.406967 0.912434
vt 0.366846 0.914201
vt 0.406967 0.913468
vt 0.366846 0.888508
vt 0.366846 0.886937
vt 0.406967 0.889212
vt 0.406967 0.889788
vt 0.366846 0.898929
vt 0.366846 0.896446
vt 0.406967 0.894560
vt 0.406967 0.896120
vt 0.366846 0.894063
vt 0.406967 0.893336
vt 0.366846 0.892144
vt 0.406967 0.892396
vt 0.366846 0.890281
vt 0.406967 0.891074
vt 0.260187 0.886470
vt 0.314144 0.887530
vt 0.314144 0.889888
vt 0.260187 0.889422
vt 0.314144 0.892287
vt 0.260187 0.892397
vt 0.314144 0.894814
vt 0.260187 0.895289
vt 0.314144 0.897401
vt 0.260187 0.898122
vt 0.314144 0.900051
vt 0.260187 0.900924
vt 0.260187 0.883566
vt 0.314144 0.885039
vt 0.260187 0.917596
vt 0.314144 0.917158
vt 0.314144 0.914653
vt 0.260187 0.914921
vt 0.314144 0.912171
vt 0.260187 0.912217
vt 0.314144 0.909764
vt 0.260187 0.909435
vt 0.314144 0.907476
vt 0.260187 0.906586
vt 0.314144 0.905053
vt 0.260187 0.903791
vt 0.260187 0.920245
vt 0.314144 0.919694
vt 0.446560 0.912711
vt 0.446560 0.892398
vn 0.000000 -0.682302 0.731040
vn 0.610889 -0.265053 0.745994
vn 0.000000 -0.206153 0.978515
vn -0.610889 -0.265053 0.745994
vn 0.574847 0.262917 0.774865
vn -0.574847 0.262917 0.774865
vn 0.000000 0.385540 0.922666
vn 0.587420 -0.779473 0.217505
vn 0.000000 -0.577929 0.816065
vn 0.000000 -0.970885 0.239479
vn -0.587420 -0.779473 0.217505
vn 0.000000 -0.228156 -0.973601
vn 0.351909 -0.472976 -0.807733
vn 0.000000 -0.829402 -0.558611
vn -0.351909 -0.472976 -0.807733
vn 0.709281 -0.604389 0.362774
vn 0.979003 0.043458 0.199103
vn -0.979003 0.043458 0.199103
vn -0.709281 -0.604389 0.362774
vn 0.000000 -0.812067 0.583544
vn 0.920774 0.236610 -0.310038
vn 0.037446 0.940001 -0.339030
vn 0.000000 0.999969 0.006897
vn -0.884823 0.270669 -0.379192
vn 0.883511 0.253426 -0.393872
vn -0.883511 0.253426 -0.393872
vn 0.022340 -0.773827 -0.632954
vn 0.641682 -0.745079 0.181829
vn 0.899197 -0.431257 0.073641
vn -0.899197 -0.431257 0.073641
vn -0.641682 -0.745079 0.181829
vn 0.000000 -0.558977 0.829157
vn 0.990417 0.049013 -0.128910
vn 0.963591 -0.265999 0.026276
vn -0.963591 -0.265999 0.026276
vn -0.990417 0.049013 -0.128910
vn 0.000000 0.957366 -0.288797
vn 0.000000 0.927976 0.372600
vn -0.381085 0.765984 0.517655
vn -0.979430 0.189032 0.070376
vn 0.300607 -0.857967 0.416547
vn -0.300607 -0.857967 0.416547
vn 0.979430 0.189032 0.070376
vn 0.381085 0.765984 0.517655
vn -0.591571 -0.707389 -0.386792
vn 0.591571 -0.707389 -0.386792
vn 0.489181 0.385907 -0.782128
vn -0.489181 0.385907 -0.782128
vn 0.766472 0.620655 -0.165075
vn -0.766472 0.620655 -0.165075
vn 0.752342 0.601001 0.269662
vn -0.752342 0.601001 0.269662
vn -0.683889 -0.017151 -0.729362
vn 0.683889 -0.017151 -0.729362
vn 0.832606 -0.310190 -0.458815
vn -0.832606 -0.310190 -0.458815
vn 0.524857 -0.260018 0.810480
vn -0.524857 -0.260018 0.810480
vn 0.814417 -0.372753 0.444655
vn -0.814417 -0.372753 0.444655
vn 0.725455 -0.687857 0.022858
vn -0.725455 -0.687857 0.022858
vn 0.063387 0.303812 -0.950591
vn 0.171875 0.163919 0.971385
vn -0.671175 0.632137 0.387205
vn -0.820099 0.435803 -0.370828
vn -0.364047 -0.200930 -0.909449
vn 0.548294 -0.733893 -0.400968
vn 0.735977 -0.520661 0.432723
vn 0.383509 0.492018 0.781562
vn -0.528999 -0.255932 0.809110
vn -0.697809 -0.715070 0.041677
vn -0.088737 -0.597373 -0.797039
vn 0.722428 0.165718 -0.671294
vn 0.829588 0.558343 -0.006026
vn 0.200027 0.971616 -0.126302
vn 0.354512 0.929073 -0.105570
vn 0.194674 0.355443 -0.914201
vn 0.344467 0.317754 -0.883388
vn 0.032779 -0.623390 -0.781224
vn 0.009294 -0.619117 -0.785244
vn -0.122858 -0.983170 0.135212
vn -0.319919 -0.940971 0.110565
vn -0.117772 -0.371024 0.921125
vn -0.310244 -0.327266 0.892550
vn 0.043700 0.608147 0.792620
vn 0.027005 0.611802 0.790550
vn 0.144734 -0.780516 0.608150
vn 0.331134 -0.740327 0.585035
vn 0.058020 -0.926141 -0.372688
vn 0.146731 -0.910989 -0.385447
vn -0.125367 -0.154158 -0.980060
vn -0.237552 -0.177188 -0.955078
vn -0.221955 0.767512 -0.601383
vn -0.432410 0.705033 -0.562095
vn -0.134821 0.913475 0.383909
vn -0.254143 0.882036 0.396766
vn 0.048836 0.137452 0.989304
vn 0.131291 0.155416 0.979086
vn 0.718867 -0.535401 0.443370
vn 0.422318 -0.811163 -0.404551
vn -0.637554 -0.242149 -0.731361
vn -0.929597 0.271793 -0.248954
vn -0.812250 0.465206 0.351899
vn 0.030798 0.133400 0.990584
vn 0.916453 0.399312 0.025787
vn 0.860183 0.072505 -0.504805
vn 0.137091 -0.637964 -0.757765
vn -0.689623 -0.722855 0.043601
vn -0.527759 -0.256414 0.809767
vn 0.526074 0.415790 0.741866
usemtl Skin_maleSkin.png.005
s 1
f 51/1/1 52/2/2 53/3/3
f 54/4/4 51/5/1 53/6/3
f 52/2/2 55/7/5 53/3/3
f 53/6/3 56/8/6 54/4/4
f 55/7/5 57/9/7 53/3/3
f 53/6/3 57/10/7 56/8/6
f 58/11/8 59/12/9 60/13/10
f 60/13/10 59/12/9 61/14/11
f 62/15/12 63/16/13 64/17/14
f 64/18/14 65/19/15 62/20/12
f 60/13/10 64/17/14 58/11/8
f 61/14/11 64/17/14 60/13/10
f 64/17/14 63/16/13 58/11/8
f 61/14/11 65/19/15 64/17/14
f 66/21/16 67/22/17 52/2/2
f 54/4/4 68/23/18 69/24/19
f 67/22/17 55/7/5 52/2/2
f 54/4/4 56/8/6 68/23/18
f 66/21/16 51/5/1 70/25/20
f 51/5/1 69/24/19 70/25/20
f 71/26/21 72/27/22 73/28/23
f 73/29/23 72/30/22 74/31/24
f 71/26/21 73/28/23 75/32/25
f 76/33/26 73/29/23 74/31/24
f 77/34/27 71/35/21 75/36/25
f 76/37/26 74/38/24 77/39/27
f 77/34/27 75/36/25 62/40/12
f 62/41/12 76/37/26 77/39/27
f 66/21/16 78/42/28 79/43/29
f 80/44/30 81/45/31 69/24/19
f 82/46/32 78/42/28 70/25/20
f 70/25/20 81/45/31 82/46/32
f 78/42/28 66/21/16 70/25/20
f 70/25/20 69/24/19 81/45/31
f 83/47/33 79/43/29 84/48/34
f 85/49/35 80/44/30 86/50/36
f 75/51/25 73/52/23 87/53/37
f 87/54/37 73/55/23 76/56/26
f 88/57/38 57/9/7 55/7/5
f 56/8/6 57/10/7 88/58/38
f 79/43/29 83/47/33 67/22/17
f 68/23/18 86/50/36 80/44/30
f 67/22/17 66/21/16 79/43/29
f 80/44/30 69/24/19 68/23/18
f 51/1/1 66/21/16 52/2/2
f 69/24/19 51/5/1 54/4/4
f 89/59/39 90/60/40 91/61/41
f 92/62/42 93/63/43 94/64/44
f 91/61/41 90/60/40 95/65/45
f 96/66/46 93/63/43 92/62/42
f 95/65/45 90/67/40 97/68/47
f 98/69/48 93/70/43 96/66/46
f 97/68/47 90/67/40 89/59/39
f 94/64/44 93/70/43 98/69/48
f 87/53/37 99/71/49 75/51/25
f 76/56/26 100/72/50 87/54/37
f 99/71/49 83/47/33 75/51/25
f 76/56/26 86/50/36 100/72/50
f 67/22/17 101/73/51 55/7/5
f 56/8/6 102/74/52 68/23/18
f 101/73/51 88/57/38 55/7/5
f 56/8/6 88/58/38 102/74/52
f 88/57/38 101/73/51 99/71/49
f 100/72/50 102/74/52 88/58/38
f 88/57/38 99/71/49 87/53/37
f 87/54/37 100/72/50 88/58/38
f 83/47/33 99/71/49 67/22/17
f 68/23/18 100/72/50 86/50/36
f 99/71/49 101/73/51 67/22/17
f 68/23/18 102/74/52 100/72/50
f 91/61/41 97/68/47 89/59/39
f 94/64/44 98/69/48 92/62/42
f 91/61/41 95/65/45 97/68/47
f 98/69/48 96/66/46 92/62/42
f 65/19/15 103/75/53 62/20/12
f 103/75/53 76/56/26 62/20/12
f 75/51/25 104/76/54 62/15/12
f 104/76/54 63/16/13 62/15/12
f 83/47/33 84/48/34 104/76/54
f 104/76/54 75/51/25 83/47/33
f 86/50/36 76/56/26 103/75/53
f 103/75/53 85/49/35 86/50/36
f 84/48/34 105/77/55 104/76/54
f 105/77/55 63/16/13 104/76/54
f 63/16/13 105/77/55 58/11/8
f 105/77/55 84/48/34 58/11/8
f 65/19/15 106/78/56 103/75/53
f 106/78/56 85/49/35 103/75/53
f 85/49/35 106/78/56 61/14/11
f 106/78/56 65/19/15 61/14/11
f 58/11/8 107/79/57 59/12/9
f 107/79/57 82/46/32 59/12/9
f 82/46/32 108/80/58 59/12/9
f 108/80/58 61/14/11 59/12/9
f 109/81/59 82/46/32 107/79/57
f 84/48/34 109/81/59 107/79/57 58/11/8
f 108/80/58 82/46/32 110/82/60
f 61/14/11 108/80/58 110/82/60 85/49/35
f 109/81/59 84/48/34 79/43/29
f 85/49/35 110/82/60 80/44/30
f 82/46/32 111/83/61 78/42/28
f 111/83/61 79/43/29 78/42/28
f 80/44/30 112/84/62 81/45/31
f 112/84/62 82/46/32 81/45/31
f 79/43/29 111/83/61 109/81/59
f 111/83/61 82/46/32 109/81/59
f 82/46/32 112/84/62 110/82/60
f 112/84/62 80/44/30 110/82/60
f 74/29/24 72/30/22 113/31/63
f 72/26/22 71/27/21 113/28/63
f 77/37/27 74/38/24 113/39/63
f 71/34/21 77/35/27 113/36/63
usemtl Skin_maleSkin.png.005_texture_humanmale.png
s off
f 1/85/64 2/86/64 3/87/64 4/88/64
f 2/89/65 5/90/65 6/91/65 3/92/65
f 5/90/66 7/93/66 8/94/66 6/91/66
f 7/93/67 9/95/67 10/96/67 8/94/67
f 9/95/68 11/97/68 12/98/68 10/96/68
f 11/97/69 1/85/69 4/88/69 12/98/69
f 13/99/70 14/100/70 15/101/70 16/102/70
f 14/103/71 17/104/71 18/105/71 15/106/71
f 17/104/72 19/107/72 20/108/72 18/105/72
f 19/107/73 21/109/73 22/110/73 20/108/73
f 21/109/74 23/111/74 24/112/74 22/110/74
f 23/111/75 13/99/75 16/102/75 24/112/75
f 25/113/76 26/114/76 27/115/76 28/116/76
f 26/114/77 13/99/77 23/111/77 27/115/77
f 28/116/78 27/115/78 29/117/78 30/118/78
f 27/115/79 23/111/79 21/109/79 29/117/79
f 30/118/80 29/117/80 31/119/80 32/120/80
f 29/117/81 21/109/81 19/107/81 31/119/81
f 32/120/82 31/119/82 33/121/82 34/122/82
f 31/119/83 19/107/83 17/104/83 33/121/83
f 34/122/84 33/121/84 35/123/84 36/124/84
f 33/121/85 17/104/85 14/103/85 35/123/85
f 36/125/86 35/126/86 26/114/86 25/113/86
f 35/126/87 14/100/87 13/99/87 26/114/87
f 37/127/88 38/128/88 39/129/88 40/130/88
f 38/128/89 1/85/89 11/97/89 39/129/89
f 40/130/90 39/129/90 41/131/90 42/132/90
f 39/129/91 11/97/91 9/95/91 41/131/91
f 42/132/92 41/131/92 43/133/92 44/134/92
f 41/131/93 9/95/93 7/93/93 43/133/93
f 44/134/94 43/133/94 45/135/94 46/136/94
f 43/133/95 7/93/95 5/90/95 45/135/95
f 46/136/96 45/135/96 47/137/96 48/138/96
f 45/135/97 5/90/97 2/89/97 47/137/97
f 48/139/98 47/140/98 38/128/98 37/127/98
f 1/85/99 38/128/99 47/140/99 2/86/99
f 12/98/100 4/88/100 49/141/100
f 10/96/101 12/98/101 49/141/101
f 8/94/102 10/96/102 49/141/102
f 6/91/103 8/94/103 49/141/103
f 3/92/104 6/91/104 49/141/104
f 4/88/105 3/87/105 49/141/105
f 24/112/106 16/102/106 50/142/106
f 22/110/107 24/112/107 50/142/107
f 20/108/108 22/110/108 50/142/108
f 18/105/109 20/108/109 50/142/109
f 15/106/110 18/105/110 50/142/110
f 16/102/111 15/101/111 50/142/111
