# Blender v2.55 (sub 0) OBJ File: ''
# www.blender.org
o Mesh.008_Lowerleg
v 1.544905 1.252980 16.981188
v 2.342694 1.891147 -0.018813
v -0.004488 3.017168 -0.018813
v -0.002959 1.995541 16.981188
v -2.348291 1.884129 -0.018813
v -1.548595 1.248352 16.981188
v 1.305692 -3.877208 4.474702
v 1.305692 -2.683786 -0.018813
v 2.925779 -0.646017 -0.018813
v 2.925779 -0.646016 8.481187
v 1.929425 -0.420169 16.981188
v -2.923782 -0.654766 8.481187
v -2.923781 -0.654769 -0.018813
v -1.928108 -0.425941 16.981188
v -1.297603 -2.687681 -0.018813
v -1.297605 -3.881100 4.474702
v 1.305693 -2.257563 10.003366
v 0.861048 -1.763992 16.981188
v -1.297606 -2.261456 10.003366
v -0.855716 -1.766559 16.981188
v -0.899779 -1.858416 -1.518813
v 0.905387 -1.855715 -1.518813
v -2.027396 -0.448763 -1.518813
v -1.628342 1.311749 -1.518813
v -0.003112 2.097416 -1.518813
v 1.624461 1.316615 -1.518813
v 2.028781 -0.442694 -1.518813
v 0.471045 -0.957234 -1.768813
v 1.055512 -0.222083 -1.768813
v 0.845157 0.693231 -1.768813
v -0.001619 1.099458 -1.768813
v -0.847176 0.690699 -1.768813
v -1.054791 -0.225240 -1.768813
v -0.468127 -0.958640 -1.768813
v 0.000000 0.017170 -2.195036
v 0.531915 -1.083146 18.034679
v -0.528622 -1.084733 18.034679
v -1.191095 -0.256561 18.034679
v -0.956650 0.777737 18.034678
v -0.001828 1.239318 18.034678
v 0.954370 0.780597 18.034678
v 1.191908 -0.252998 18.034679
v 0.000000 0.017173 18.561424
vt 0.686918 0.119603
vt 0.694736 0.304080
vt 0.677717 0.307376
vt 0.671613 0.115529
vt 0.660110 0.303248
vt 0.657127 0.114150
vt 0.605952 0.294037
vt 0.608776 0.308603
vt 0.589271 0.304667
vt 0.576579 0.241599
vt 0.705773 0.245008
vt 0.697605 0.118039
vt 0.707863 0.303533
vt 0.648008 0.240164
vt 0.644722 0.305513
vt 0.644249 0.119861
vt 0.629088 0.305236
vt 0.625989 0.287642
vt 0.598648 0.215657
vt 0.594658 0.109874
vt 0.615350 0.112566
vt 0.626994 0.220567
vt 0.631029 0.114501
vt 0.634187 0.322177
vt 0.623978 0.329242
vt 0.645651 0.314324
vt 0.657649 0.312758
vt 0.670464 0.317790
vt 0.683313 0.322999
vt 0.711201 0.324576
vt 0.599580 0.335667
vt 0.628186 0.340028
vt 0.626798 0.355690
vt 0.684114 0.349124
vt 0.679493 0.335187
vt 0.665588 0.329645
vt 0.657119 0.324601
vt 0.648524 0.325289
vt 0.640599 0.331467
vt 0.654088 0.348179
vt 0.626399 0.093790
vt 0.635717 0.096238
vt 0.645351 0.105015
vt 0.654870 0.105517
vt 0.664361 0.097198
vt 0.672549 0.094371
vt 0.676181 0.082080
vt 0.620064 0.081778
vt 0.648450 0.069408
vn 0.431903 0.900298 0.054065
vn -0.434595 0.899002 0.054065
vn 0.866071 -0.497826 -0.045724
vn 0.912857 0.404137 0.058010
vn 0.968929 0.222678 0.107659
vn 0.974594 0.223979 -0.000000
vn -0.914062 0.401404 0.058010
vn -0.975260 0.221061 -0.000000
vn -0.969591 0.219778 0.107660
vn -0.864881 -0.499873 -0.045912
vn 0.001446 -0.966493 -0.256688
vn 0.749262 -0.653865 0.105200
vn 0.779335 -0.619594 0.093488
vn 0.773075 -0.608731 0.178330
vn -0.747017 -0.656433 0.105176
vn -0.771169 -0.610954 0.178981
vn -0.777488 -0.621931 0.093347
vn 0.001435 -0.959666 0.281138
vn 0.001492 -0.997500 0.070653
vn 0.001310 -0.875309 -0.483562
vn -0.683528 -0.546771 -0.483561
vn -0.853655 0.193497 -0.483561
vn -0.380962 0.788058 -0.483562
vn 0.378603 0.789195 -0.483562
vn 0.853072 0.196051 -0.483562
vn 0.685161 -0.544723 -0.483562
vn 0.209690 -0.166710 -0.963451
vn 0.261078 0.060000 -0.963451
vn 0.115869 0.241529 -0.963451
vn -0.116592 0.241181 -0.963451
vn -0.261257 0.059219 -0.963451
vn -0.209190 -0.167336 -0.963451
vn 0.000401 -0.267884 -0.963451
vn 0.000600 -0.400513 -0.916291
vn -0.312760 -0.250184 -0.916291
vn -0.390605 0.088538 -0.916291
vn -0.174316 0.360590 -0.916291
vn 0.173236 0.361110 -0.916291
vn 0.390338 0.089706 -0.916291
vn 0.313507 -0.249248 -0.916291
vn 0.001256 -0.839691 0.543063
vn -0.655714 -0.524521 0.543063
vn -0.818918 0.185625 0.543063
vn -0.365460 0.755990 0.543063
vn 0.363197 0.757080 0.543063
vn 0.818358 0.188074 0.543064
vn 0.657280 -0.522557 0.543063
vn 0.337793 -0.268555 0.902094
vn 0.420575 0.096657 0.902094
vn 0.186657 0.389083 0.902094
vn -0.187820 0.388523 0.902094
vn -0.420863 0.095399 0.902094
vn -0.336988 -0.269564 0.902094
vn 0.000646 -0.431539 0.902094
usemtl None_maleSkin.png.006
s off
f 1/1/1 2/2/1 3/3/1 4/4/1
f 4/4/2 3/3/2 5/5/2 6/6/2
f 7/7/3 8/8/3 9/9/3 10/10/3
f 2/2/4 1/1/4 10/11/4
f 10/11/5 1/1/5 11/12/5
f 10/11/6 9/13/6 2/2/6
f 12/14/7 6/6/7 5/5/7
f 13/15/8 12/14/8 5/5/8
f 12/14/9 14/16/9 6/6/9
f 12/14/10 13/15/10 15/17/10 16/18/10
f 8/8/11 7/7/11 16/18/11 15/17/11
f 17/19/12 10/10/12 11/20/12
f 18/21/13 17/19/13 11/20/13
f 17/19/14 7/7/14 10/10/14
f 19/22/15 14/16/15 12/14/15
f 16/18/16 19/22/16 12/14/16
f 19/22/17 20/23/17 14/16/17
f 7/7/18 17/19/18 19/22/18 16/18/18
f 20/23/19 19/22/19 17/19/19 18/21/19
f 8/8/20 15/17/20 21/24/20 22/25/20
f 15/17/21 13/15/21 23/26/21 21/24/21
f 13/15/22 5/5/22 24/27/22 23/26/22
f 5/5/23 3/3/23 25/28/23 24/27/23
f 3/3/24 2/2/24 26/29/24 25/28/24
f 2/2/25 9/13/25 27/30/25 26/29/25
f 9/9/26 8/8/26 22/25/26 27/31/26
f 27/31/27 22/25/27 28/32/27 29/33/27
f 26/29/28 27/30/28 29/34/28 30/35/28
f 25/28/29 26/29/29 30/35/29 31/36/29
f 24/27/30 25/28/30 31/36/30 32/37/30
f 23/26/31 24/27/31 32/37/31 33/38/31
f 21/24/32 23/26/32 33/38/32 34/39/32
f 22/25/33 21/24/33 34/39/33 28/32/33
f 28/32/34 34/39/34 35/40/34
f 34/39/35 33/38/35 35/40/35
f 33/38/36 32/37/36 35/40/36
f 32/37/37 31/36/37 35/40/37
f 31/36/38 30/35/38 35/40/38
f 30/35/39 29/34/39 35/40/39
f 29/33/40 28/32/40 35/40/40
f 18/21/41 36/41/41 37/42/41 20/23/41
f 20/23/42 37/42/42 38/43/42 14/16/42
f 14/16/43 38/43/43 39/44/43 6/6/43
f 6/6/44 39/44/44 40/45/44 4/4/44
f 41/46/45 1/1/45 4/4/45 40/45/45
f 1/1/46 41/46/46 42/47/46 11/12/46
f 11/20/47 42/48/47 36/41/47 18/21/47
f 42/48/48 43/49/48 36/41/48
f 41/46/49 43/49/49 42/47/49
f 40/45/50 43/49/50 41/46/50
f 39/44/51 43/49/51 40/45/51
f 38/43/52 43/49/52 39/44/52
f 37/42/53 43/49/53 38/43/53
f 36/41/54 43/49/54 37/42/54
