# Blender v2.55 (sub 0) OBJ File: ''
# www.blender.org
o Mesh.009_Mesh.020_Mesh.009_Foo
v 2.194571 -4.696357 0.298502
v 2.194571 -0.601996 -1.798212
v 2.253499 0.954421 1.241083
v 2.253500 -3.139940 3.337796
v -2.346501 -3.139940 3.337795
v -2.346501 0.954420 1.241081
v -2.287570 -0.514384 -1.627129
v -2.287570 -4.608745 0.469586
v -2.759007 -0.662290 8.176030
v -2.759007 0.361299 7.651850
v 2.312425 0.552458 8.025135
v 2.312426 -0.471132 8.549313
v 0.733333 0.661972 8.238989
v 0.733334 -0.361619 8.763166
v -0.046500 -5.178219 -0.642456
v -0.046500 -1.083859 -2.739169
v 2.312425 0.552458 8.025135
v 0.733333 0.661972 8.238989
v 0.733334 -0.361619 8.763166
v 2.312426 -0.471132 8.549313
vt 0.103585 0.409096
vt 0.088951 0.411717
vt 0.090442 0.395254
vt 0.100083 0.394277
vt 0.125006 0.392256
vt 0.132141 0.391440
vt 0.131241 0.399297
vt 0.122575 0.412031
vt 0.125812 0.375429
vt 0.131127 0.375678
vt 0.097244 0.376453
vt 0.099329 0.376071
vt 0.093234 0.373378
vt 0.072370 0.391574
vt 0.074722 0.373017
vt 0.114477 0.373585
vt 0.075233 0.367498
vt 0.093404 0.367480
vt 0.115330 0.412714
vt 0.078687 0.409369
vt 0.063860 0.399219
vt 0.102315 0.419175
vt 0.094041 0.416553
vt 0.124684 0.416414
vt 0.097271 0.376362
vt 0.093306 0.373472
vt 0.093585 0.367700
vt 0.097755 0.369976
vn 0.999851 -0.007865 -0.015358
vn -0.999833 -0.008334 -0.016275
vn -0.997133 -0.034491 -0.067352
vn 0.999949 -0.004587 -0.008957
vn -0.000000 0.999128 0.041754
vn -0.099692 0.991355 0.085305
vn 0.076925 0.995331 0.058306
vn -0.000000 -0.890078 0.455807
vn 0.000001 -0.890078 0.455808
vn -0.185602 0.447888 0.874613
vn -0.000000 -0.890079 0.455807
vn 0.000000 -0.890078 0.455808
vn 0.000000 0.890078 -0.455808
vn -0.000000 0.890078 -0.455807
vn 0.000001 0.890078 -0.455807
vn 0.426636 -0.412243 -0.805008
vn -0.486934 -0.398120 -0.777429
vn 0.150422 0.450621 0.879951
usemtl (null).009
s off
f 1/1/1 2/2/1 3/3/1 4/4/1
f 5/5/2 6/6/2 7/7/2 8/8/2
f 6/6/3 5/5/3 9/9/3 10/10/3
f 4/4/4 3/3/4 11/11/4 12/12/4
f 13/13/5 3/3/5 6/14/5
f 10/15/6 13/13/6 6/14/6
f 13/13/7 11/11/7 3/3/7
f 14/16/8 5/5/8 4/4/8
f 12/12/9 14/16/9 4/4/9
f 14/16/8 9/9/8 5/5/8
f 13/13/10 10/15/10 9/17/10 14/18/10
f 15/19/11 4/4/11 5/5/11
f 8/8/12 15/19/12 5/5/12
f 15/19/8 1/1/8 4/4/8
f 16/20/13 6/14/13 3/3/13
f 2/2/14 16/20/14 3/3/14
f 16/20/15 7/21/15 6/14/15
f 1/1/16 15/19/16 16/22/16 2/23/16
f 15/19/17 8/8/17 7/7/17 16/24/17
f 17/25/18 18/26/18 19/27/18 20/28/18
