# Blender v2.55 (sub 0) OBJ File: ''
# www.blender.org
o Mesh.009_Foot
v 1.948757 -4.218086 0.821088
v 1.948758 -0.657772 -1.002141
v 1.999999 0.695634 1.640724
v 2.000000 -2.864680 3.463953
v -2.000001 -2.864680 3.463952
v -2.000001 0.695633 1.640722
v -1.948757 -0.581588 -0.853373
v -1.948757 -4.141902 0.969857
v -2.358702 -0.710202 7.671113
v -2.358702 0.179876 7.215304
v 2.051239 0.346101 7.539900
v 2.051240 -0.543978 7.995707
v 0.678116 0.441330 7.725861
v 0.678117 -0.448749 8.181666
v 0.000000 -4.637097 0.002864
v 0.000000 -1.076783 -1.820365
v 2.051239 0.346101 7.539900
v 0.678116 0.441330 7.725861
v 0.678117 -0.448749 8.181666
v 2.051240 -0.543978 7.995707
vt 0.722642 0.090117
vt 0.693375 0.095360
vt 0.696356 0.062433
vt 0.715638 0.060480
vt 0.765485 0.056437
vt 0.779755 0.054806
vt 0.777954 0.070520
vt 0.760623 0.095987
vt 0.767096 0.022783
vt 0.777726 0.023282
vt 0.709961 0.024831
vt 0.714131 0.024068
vt 0.701941 0.018682
vt 0.660213 0.055073
vt 0.664917 0.017960
vt 0.744427 0.019095
vt 0.665938 0.006922
vt 0.702281 0.006886
vt 0.746133 0.097353
vt 0.672847 0.090663
vt 0.643192 0.070364
vt 0.720102 0.110276
vt 0.703554 0.105031
vt 0.764841 0.104753
vt 0.710140 0.015257
vt 0.702244 0.006575
vt 0.702190 0.018637
vt 0.709562 0.024697
vn 0.999851 -0.007865 -0.015358
vn -0.999833 -0.008334 -0.016275
vn -0.997133 -0.034491 -0.067352
vn 0.999949 -0.004587 -0.008957
vn -0.000000 0.999128 0.041755
vn -0.099692 0.991355 0.085305
vn 0.076924 0.995331 0.058306
vn -0.000000 -0.890079 0.455807
vn 0.000001 -0.890078 0.455807
vn -0.000000 -0.890078 0.455807
vn -0.185602 0.447888 0.874613
vn 0.000000 -0.890078 0.455808
vn 0.000000 0.890078 -0.455807
vn 0.426636 -0.412243 -0.805008
vn -0.486934 -0.398120 -0.777429
vn 0.150422 0.450620 0.879951
usemtl None_maleSkin.png.007
s off
f 1/1/1 2/2/1 3/3/1 4/4/1
f 5/5/2 6/6/2 7/7/2 8/8/2
f 6/6/3 5/5/3 9/9/3 10/10/3
f 4/4/4 3/3/4 11/11/4 12/12/4
f 13/13/5 3/3/5 6/14/5
f 10/15/6 13/13/6 6/14/6
f 13/13/7 11/11/7 3/3/7
f 14/16/8 5/5/8 4/4/8
f 12/12/9 14/16/9 4/4/9
f 14/16/10 9/9/10 5/5/10
f 13/13/11 10/15/11 9/17/11 14/18/11
f 15/19/10 4/4/10 5/5/10
f 8/8/12 15/19/12 5/5/12
f 15/19/10 1/1/10 4/4/10
f 16/20/13 6/14/13 3/3/13
f 2/2/13 16/20/13 3/3/13
f 16/20/13 7/21/13 6/14/13
f 1/1/14 15/19/14 16/22/14 2/23/14
f 15/19/15 8/8/15 7/7/15 16/24/15
f 17/25/16 18/26/16 19/27/16 20/28/16
