# Blender v2.55 (sub 0) OBJ File: 'bodyparts.blend'
# www.blender.org
o Mesh.002_Pelvis
v 6.119092 3.966274 -4.932802
v 6.152647 0.076636 0.172855
v 7.845757 -0.324850 -6.323295
v -7.845757 -0.324847 -6.323295
v -6.152648 0.076638 0.172854
v -6.119092 3.966276 -4.932803
v 3.014410 4.121593 0.036681
v -3.014408 4.121595 0.036681
v 2.302637 -3.219130 -7.085674
v 5.074198 -3.370575 -7.417524
v 3.384691 -2.565764 0.307363
v -3.384692 -2.565763 0.307362
v -5.074198 -3.370574 -7.417524
v -2.302638 -3.219129 -7.085675
v 0.000000 4.855785 -9.932261
v 3.523368 4.903735 -10.989020
v -3.523367 4.903735 -10.989020
v 0.000000 5.279453 -3.723873
v -0.000005 2.698466 1.413531
v 2.391514 7.039855 -6.906718
v -2.391511 7.039855 -6.906718
v 6.567278 3.245502 -9.147031
v -6.567278 3.245503 -9.147031
v -0.000001 -4.064193 0.428772
v -0.000001 -3.899574 -4.904888
v -0.010725 0.486182 -10.244665
v 0.831984 -0.504408 -10.186352
v -0.825619 -0.374285 -10.208447
v -0.000001 -2.640021 2.571213
v -0.000004 2.093841 3.260544
v -2.369285 -1.591119 2.486226
v 2.369283 -1.591119 2.486227
v -2.110086 3.090031 2.296749
v 2.110086 3.090030 2.296749
v -4.306854 0.258562 2.392071
v 4.306852 0.258560 2.392071
v -0.000001 0.434544 3.549344
v 1.868475 -0.997537 -11.543621
v 1.278579 -0.304123 -11.584440
v 5.883182 1.627401 -10.816096
v 3.752444 2.788164 -12.105489
v 4.838025 -3.003854 -9.605441
v 2.897932 -2.897842 -9.373146
v 6.778116 -0.871846 -8.839480
v 3.979232 -1.160957 -11.389128
v -2.003490 -0.313267 -11.541096
v -1.433064 0.289060 -11.566447
v -6.022652 2.220585 -10.798103
v -3.891914 3.381347 -12.087497
v -3.037404 -2.304658 -9.355155
v -4.977496 -2.410669 -9.587449
v -6.917587 -0.278660 -8.821488
v -4.189835 0.030014 -11.400300
vt 0.907697 0.620755
vt 0.875847 0.674631
vt 0.875468 0.589748
vt 0.650208 0.589749
vt 0.649829 0.674631
vt 0.617979 0.620755
vt 0.950131 0.678681
vt 0.575544 0.678681
vt 0.795895 0.557638
vt 0.835681 0.562910
vt 0.811429 0.672266
vt 0.714247 0.672266
vt 0.689994 0.562910
vt 0.729780 0.557638
vt 0.988785 0.524817
vt 0.991331 0.553304
vt 0.934782 0.538740
vt 0.590893 0.538741
vt 0.534344 0.553304
vt 0.536890 0.524817
vt 0.991331 0.638355
vt 0.991331 0.679569
vt 0.534344 0.679569
vt 0.534344 0.638355
vt 0.958645 0.596419
vt 0.567031 0.596419
vt 0.907988 0.555577
vt 0.617688 0.555577
vt 0.762841 0.672678
vt 0.762841 0.587104
vt 0.762834 0.587104
vt 0.762834 0.672679
vt 0.508761 0.906898
vt 0.409820 0.906898
vt 0.409820 0.870090
vt 0.487671 0.856578
vt 0.409820 0.943707
vt 0.487671 0.957218
vt 0.000000 1.000000
vn 0.785699 0.587512 0.193548
vn 0.880459 0.026307 0.473373
vn 0.964171 -0.264168 0.023957
vn -0.968627 -0.248177 0.012452
vn -0.880459 0.026307 0.473373
vn -0.785699 0.587512 0.193548
vn 0.233283 0.864925 0.444319
vn -0.233283 0.864925 0.444319
vn -0.169469 -0.967650 -0.186743
vn 0.372051 -0.928159 -0.007843
vn 0.455275 -0.856227 0.244057
vn -0.455275 -0.856227 0.244057
vn -0.374462 -0.920865 -0.108371
vn 0.131565 -0.951170 -0.279122
vn -0.022401 -0.288217 -0.957274
vn 0.000000 0.748650 -0.662923
vn 0.045564 0.619404 -0.783715
vn -0.038636 0.662618 -0.747917
vn 0.000000 0.956206 0.292611
vn 0.000000 0.924223 0.381817
vn 0.161901 0.986236 -0.033235
vn -0.161901 0.986236 -0.033235
vn 0.810175 0.509598 -0.289651
vn -0.803156 0.540117 -0.251350
vn 0.000000 -0.960784 0.277200
vn -0.003296 -0.952483 -0.304514
vn -0.598712 -0.685202 -0.414716
vn 0.504318 -0.686789 -0.523392
vn -0.516037 -0.009461 0.856502
vn -0.290262 0.542955 0.787988
vn 0.364574 -0.500839 0.784997
vn 0.000000 -0.594104 0.804346
vn -0.364574 -0.500839 0.784997
vn 0.516037 -0.009461 0.856502
vn 0.000000 0.658681 0.752403
vn 0.290262 0.542955 0.787988
vn 0.000000 -0.030183 0.999542
vn 0.157414 0.131108 -0.978759
vn -0.362377 -0.140996 -0.921262
vn 0.712790 -0.001953 -0.701346
vn -0.400647 -0.619160 -0.675344
vn 0.357768 -0.787957 -0.501083
vn 0.790094 -0.334300 -0.513749
vn -0.238472 -0.845882 -0.477065
vn 0.273049 -0.386242 -0.881039
vn 0.319163 -0.117130 -0.940397
vn -0.162175 0.179113 -0.970336
vn -0.780816 -0.310923 -0.541826
vn -0.336009 -0.702506 -0.627308
vn 0.245827 -0.577715 -0.778314
vn -0.729911 0.037996 -0.682455
vn 0.143529 -0.778008 -0.611621
vn -0.285836 -0.353862 -0.890530
usemtl Skin_maleSkin.png.002
s 1
f 1/1/1 2/2/2 3/3/3
f 4/4/4 5/5/5 6/6/6
f 1/1/1 7/7/7 2/2/2
f 5/5/5 8/8/8 6/6/6
f 9/9/9 10/10/10 11/11/11
f 12/12/12 13/13/13 14/14/14
f 26/15/15 15/16/16 16/17/17
f 17/18/18 15/19/16 26/20/15
f 18/21/19 19/22/20 7/7/7
f 8/8/8 19/23/20 18/24/19
f 20/25/21 15/16/16 18/21/19
f 18/24/19 15/19/16 21/26/22
f 22/27/23 1/1/1 3/3/3
f 6/6/6 23/28/24 4/4/4
f 20/25/21 1/1/1 22/27/23
f 23/28/24 6/6/6 21/26/22
f 20/25/21 18/21/19 7/7/7
f 8/8/8 18/24/19 21/26/22
f 7/7/7 1/1/1 20/25/21
f 21/26/22 6/6/6 8/8/8
f 11/11/11 10/10/10 3/3/3
f 4/4/4 13/13/13 12/12/12
f 3/3/3 2/2/2 11/11/11
f 12/12/12 5/5/5 4/4/4
f 20/25/21 22/27/23 16/17/17
f 17/18/18 23/28/24 21/26/22
f 20/25/21 16/17/17 15/16/16
f 15/19/16 17/18/18 21/26/22
f 11/11/11 24/29/25 25/30/26
f 25/31/26 24/32/25 12/12/12
f 25/30/26 9/9/9 11/11/11
f 12/12/12 14/14/14 25/31/26
f 25/33/26 26/34/15 27/35/27
f 27/35/27 9/36/9 25/33/26
f 28/37/28 26/34/15 25/33/26
f 25/33/26 14/38/14 28/37/28
f 8/5/8 5/8/5 35/6/29 33/39/30
f 24/11/25 11/29/11 32/30/31 29/39/32
f 12/31/12 24/32/25 29/12/32 31/39/33
f 11/3/11 2/2/2 36/11/34 32/39/31
f 5/12/5 12/5/12 31/4/33 35/39/29
f 7/21/7 19/22/20 30/7/35 34/39/36
f 2/1/2 7/7/7 34/2/36 36/39/34
f 19/8/20 8/23/8 33/24/30 30/39/35
f 30/8/35 33/23/30 37/24/37
f 36/1/34 34/7/36 37/2/37
f 34/21/36 30/22/35 37/7/37
f 35/12/29 31/5/33 37/4/37
f 32/3/31 36/2/34 37/11/37
f 31/31/33 29/32/32 37/12/37
f 29/11/32 32/29/31 37/30/37
f 33/5/30 35/8/29 37/6/37
f 26/15/15 16/16/17 41/17/38 39/39/39
f 16/25/17 22/27/23 40/17/40 41/39/38
f 27/33/27 26/34/15 39/35/39 38/39/41
f 3/11/3 10/10/10 42/3/42 44/39/43
f 10/9/10 9/10/9 43/11/44 42/39/42
f 9/35/9 27/36/27 38/33/41 43/39/44
f 22/27/23 3/1/3 44/3/43 40/39/40
f 40/27/40 44/1/43 45/3/45
f 43/35/44 38/36/41 45/33/45
f 42/9/42 43/10/44 45/11/45
f 44/11/43 42/10/42 45/3/45
f 38/33/41 39/34/39 45/35/45
f 41/25/38 40/27/40 45/17/45
f 39/15/39 41/16/38 45/17/45
f 17/18/18 26/19/15 47/20/46 49/39/47
f 13/4/13 4/13/4 52/12/48 51/39/49
f 26/37/15 28/34/28 46/33/50 47/39/46
f 4/6/4 23/28/24 48/4/51 52/39/48
f 14/12/14 13/13/13 51/14/49 50/39/52
f 23/18/24 17/28/18 49/26/47 48/39/51
f 28/33/28 14/38/14 50/37/52 46/39/50
f 46/33/50 50/38/52 53/37/53
f 48/18/51 49/28/47 53/26/53
f 50/12/52 51/13/49 53/14/53
f 52/6/48 48/28/51 53/4/53
f 47/37/46 46/34/50 53/33/53
f 51/4/49 52/13/48 53/12/53
f 49/18/47 47/19/46 53/20/53
