# Blender v2.55 (sub 0) OBJ File: 'untitled.blend'
# www.blender.org
o Icosphere
v 1.418270 -1.621242 -1.585829
v 1.418270 -1.621242 0.414171
v -0.581730 -1.621242 0.414171
v -0.581729 -1.621242 -1.585829
v 1.418271 0.378758 -1.585829
v 1.418270 0.378758 0.414171
v -0.581730 0.378758 0.414170
v -0.581730 0.378758 -1.585829
vt 0.116543 0.466475
vt 0.214844 0.466475
vt 0.214844 0.564775
vt 0.116544 0.564775
vt 0.411445 0.466475
vt 0.411445 0.564775
vt 0.313145 0.564775
vt 0.313145 0.466475
vt 0.116543 0.368174
vt 0.214844 0.368174
vt 0.214844 0.663076
vt 0.116544 0.663076
vt 0.018243 0.466475
vt 0.018243 0.564775
vn -0.000000 -1.000000 0.000000
vn 0.000000 1.000000 -0.000000
vn 1.000000 0.000000 0.000000
vn -0.000000 -0.000000 1.000000
vn -1.000000 -0.000000 -0.000000
vn 0.000000 0.000000 -1.000000
usemtl (null)
s off
f 1/1/1 2/2/1 3/3/1 4/4/1
f 5/5/2 8/6/2 7/7/2 6/8/2
f 1/1/3 5/9/3 6/10/3 2/2/3
f 2/2/4 6/8/4 7/7/4 3/3/4
f 3/3/5 7/11/5 8/12/5 4/4/5
f 5/13/6 1/1/6 4/4/6 8/14/6
