# Blender v2.55 (sub 0) OBJ File: 'weapons.blend'
# www.blender.org
o Mesh.003_bow_ready
v -22.880123 -0.216716 -16.021328
v -22.736050 -0.009888 -15.663105
v -22.736050 -0.423545 -15.663105
v -3.378879 0.313620 -0.164171
v 3.362264 0.313619 -0.164173
v 3.329364 -0.216712 -0.380505
v -3.345979 -0.216712 -0.380505
v 3.362264 -0.747041 -0.164173
v -3.378879 -0.747041 -0.368568
v 3.441692 -0.966711 0.358101
v -3.458308 -0.966711 0.358101
v 3.521121 -0.747041 0.880375
v -3.537736 -0.747040 0.880373
v 3.554021 -0.216710 1.096706
v -3.570636 -0.216710 1.096706
v 3.521121 0.313620 0.880373
v -3.537736 0.313620 0.880375
v 3.441692 0.533289 0.358099
v -3.458308 0.533289 0.358101
v -9.439027 0.313619 -3.349322
v -9.709556 0.533288 -3.015660
v -10.002857 0.313619 -2.634567
v -10.000652 -0.216712 -2.644104
v -10.002857 -0.747042 -2.634568
v -9.709555 -0.966712 -3.015660
v -9.439027 -0.747041 -3.349322
v -9.439027 -0.216711 -3.349322
v 9.703284 0.533291 -3.024922
v 9.432755 0.313619 -3.358582
v 9.973816 0.313621 -2.691260
v 9.973816 -0.216708 -2.691260
v 9.973816 -0.747040 -2.691260
v 9.703285 -0.966709 -3.024920
v 9.432755 -0.747041 -3.358582
v 9.681152 -0.216710 -2.737790
v -14.363061 -0.966711 -8.919352
v -14.068479 -0.747040 -9.224405
v -14.683893 -0.747041 -8.569347
v -14.363062 0.533289 -8.919352
v -14.683895 0.313619 -8.569347
v -14.068479 0.313620 -9.224405
v 14.005072 -0.747046 -9.296585
v 14.299652 -0.966714 -8.991531
v 14.594234 -0.747045 -8.686478
v 14.594234 0.313616 -8.686478
v 14.299652 0.533286 -8.991533
v 14.005072 0.313614 -9.296585
v -20.105278 0.313613 -13.380991
v -20.105274 -0.747048 -13.380993
v -19.597322 -0.747046 -14.150002
v -19.597321 0.313615 -14.150002
v -19.841740 0.533285 -13.790272
v -19.841740 -0.966715 -13.790274
v 19.475407 0.313609 -14.301828
v 19.475407 -0.747050 -14.301828
v 19.964241 -0.747050 -13.582373
v 19.964241 0.313611 -13.582373
v 19.719822 0.533281 -13.942102
v 19.719826 -0.966719 -13.942101
v -22.906158 -0.966714 -15.637987
v -22.719330 -0.747042 -16.041456
v -23.104389 -0.747044 -15.181866
v -22.906155 0.533286 -15.637985
v -23.104393 0.313617 -15.181864
v -22.719330 0.313617 -16.041456
v -22.906155 -0.216712 -15.637985
v 22.572636 -0.747056 -16.237625
v 22.759462 -0.966727 -15.834148
v 22.946293 -0.747056 -15.430677
v 22.946293 0.313606 -15.430677
v 22.759462 0.533273 -15.834152
v 22.572636 0.313604 -16.237625
v 22.759462 -0.216727 -15.834150
v 22.615211 -0.423547 -15.663105
v 22.615211 -0.009888 -15.663105
v 22.759285 -0.216717 -16.021328
v -0.060419 -0.423546 -27.943037
v -0.060419 -0.216717 -28.338291
v -0.060419 -0.009890 -27.943037
vt 0.886545 0.327209
vt 0.886503 0.267105
vt 0.899560 0.267139
vt 0.899265 0.327338
vt 0.912547 0.267050
vt 0.912648 0.327830
vt 0.925629 0.266770
vt 0.925807 0.327465
vt 0.939311 0.266724
vt 0.939729 0.327674
vt 0.953386 0.267044
vt 0.954141 0.327596
vt 0.967815 0.267010
vt 0.968163 0.327861
vt 0.859967 0.327540
vt 0.859482 0.266828
vt 0.873539 0.267055
vt 0.873479 0.327489
vt 0.890467 0.387562
vt 0.875420 0.389540
vt 0.860361 0.390833
vt 0.969338 0.390552
vt 0.955050 0.390383
vt 0.940766 0.390729
vt 0.926127 0.389508
vt 0.911280 0.387611
vt 0.901023 0.386864
vt 0.874353 0.204306
vt 0.889269 0.205865
vt 0.859412 0.202644
vt 0.954828 0.203246
vt 0.969396 0.203075
vt 0.940291 0.202844
vt 0.925371 0.204475
vt 0.910366 0.206021
vt 0.899822 0.206663
vt 0.922318 0.458119
vt 0.907709 0.456692
vt 0.937018 0.459164
vt 0.878492 0.458023
vt 0.863905 0.458992
vt 0.893086 0.456651
vt 0.907026 0.135042
vt 0.921701 0.134044
vt 0.936770 0.132632
vt 0.862694 0.132635
vt 0.877664 0.134060
vt 0.892281 0.135066
vt 0.956485 0.202544
vt 0.952546 0.132388
vt 0.955743 0.391008
vt 0.952283 0.459311
vt 0.949689 0.524108
vt 0.932049 0.523918
vt 0.906820 0.521408
vt 0.889482 0.521152
vt 0.876824 0.521815
vt 0.863766 0.522528
vt 0.919385 0.522637
vt 0.889176 0.069870
vt 0.906887 0.069369
vt 0.932101 0.066946
vt 0.949613 0.066715
vt 0.876349 0.069261
vt 0.863515 0.068437
vt 0.919618 0.068266
vt 0.919425 0.573098
vt 0.907836 0.573125
vt 0.931312 0.572890
vt 0.871862 0.572802
vt 0.859412 0.572386
vt 0.883531 0.573003
vt 0.954220 0.572177
vt 0.878851 0.581854
vt 0.864329 0.581442
vt 0.926210 0.581448
vt 0.912085 0.581977
vt 0.895592 0.579091
vt 0.943363 0.578870
vt 0.908376 0.016815
vt 0.920120 0.016948
vt 0.931180 0.017055
vt 0.859764 0.017150
vt 0.871515 0.016893
vt 0.883484 0.016644
vt 0.953591 0.017509
vt 0.878580 0.007580
vt 0.863416 0.008071
vt 0.927433 0.008558
vt 0.912927 0.007882
vt 0.942727 0.011725
vt 0.896059 0.010556
vt 0.682177 0.923225
vt 0.698090 0.921018
vt 0.691127 0.954389
vt 0.666263 0.796074
vt 0.666263 0.666717
vt 0.682177 0.664512
vt 0.682177 0.793868
vt 0.666263 0.925431
vt 0.698090 0.662305
vt 0.698090 0.791662
vt 0.714003 0.660099
vt 0.714003 0.789456
vt 0.714003 0.918813
vt 0.689139 0.631141
vn -0.000000 0.377703 -0.925927
vn 0.014892 -0.210373 -0.977508
vn 0.004972 -0.943325 -0.331833
vn -0.000000 -0.921783 0.387706
vn -0.000000 -0.377704 0.925926
vn 0.000000 0.377704 0.925926
vn 0.000000 0.921784 0.387703
vn -0.000000 0.921783 -0.387705
vn 0.202623 0.902380 -0.380333
vn -0.196211 0.911215 0.362199
vn -0.482271 0.181064 0.857106
vn -0.482271 -0.181066 0.857106
vn -0.196211 -0.911214 0.362201
vn 0.169757 -0.928985 -0.328891
vn 0.439564 -0.023739 -0.897898
vn 0.443319 0.192317 -0.875490
vn -0.202813 0.902371 -0.380255
vn 0.207004 0.902182 0.378439
vn 0.487392 0.188992 0.852485
vn 0.487392 -0.188990 0.852485
vn 0.207006 -0.902181 0.378441
vn -0.202811 -0.902372 -0.380252
vn -0.374694 0.395835 -0.838403
vn -0.374694 -0.395834 -0.838403
vn 0.364279 -0.885934 -0.287092
vn -0.333971 -0.905052 0.263333
vn -0.333971 0.905052 0.263333
vn 0.364276 0.885936 -0.287089
vn -0.368058 -0.885539 -0.283470
vn 0.367986 -0.885546 0.283540
vn 0.367986 0.885547 0.283538
vn -0.368062 0.885535 -0.283474
vn 0.792067 -0.000000 0.610434
vn -0.792326 0.000000 -0.610098
vn -0.785160 -0.000001 0.619292
vn 0.785453 0.000000 -0.618922
vn -0.663796 -0.000002 0.747913
vn 0.665199 -0.000001 -0.746667
vn 0.303867 0.889433 -0.341430
vn -0.277381 0.908601 0.312258
vn -0.277378 -0.908602 0.312257
vn 0.303869 -0.889431 -0.341431
vn -0.675048 0.000000 -0.737774
vn 0.673732 0.000000 0.738976
vn -0.308569 0.889298 -0.337540
vn 0.308252 0.889312 0.337795
vn 0.308252 -0.889311 0.337797
vn -0.308566 -0.889302 -0.337535
vn 0.231847 -0.893927 -0.383591
vn -0.210987 -0.912436 0.350635
vn -0.210986 0.912436 0.350636
vn 0.231847 0.893928 -0.383588
vn 0.518167 -0.000000 -0.855279
vn -0.514791 -0.000003 0.857316
vn -0.907439 0.000000 -0.420184
vn -0.917125 0.000000 -0.398599
vn -0.917130 0.000006 -0.398588
vn -0.907436 0.000006 -0.420190
vn -0.917126 -0.000003 -0.398596
vn -0.237306 -0.893836 -0.380450
vn 0.236576 -0.893850 0.380873
vn 0.236576 0.893853 0.380866
vn -0.237305 0.893835 -0.380454
vn 0.526823 0.000000 0.849975
vn -0.530005 0.000000 -0.847995
vn 0.907438 -0.000001 -0.420186
vn 0.907435 -0.000001 -0.420192
vn 0.907434 -0.000001 -0.420194
vn 0.907439 -0.000001 -0.420183
vn 0.907435 0.000000 -0.420193
vn 0.907439 0.000000 -0.420184
vn -0.927775 -0.000000 -0.373141
vn 0.234145 0.870411 0.433083
vn -0.234145 0.870411 0.433083
vn -0.476202 0.000000 -0.879336
vn 0.476202 0.000000 -0.879336
vn 0.234143 -0.870413 0.433080
vn -0.234144 -0.870412 0.433082
vn 0.927775 0.000000 -0.373141
usemtl (null).003
s off
f 4/1/1 5/2/1 6/3/1 7/4/1
f 7/4/2 6/3/2 8/5/2 9/6/2
f 9/6/3 8/5/3 10/7/3 11/8/3
f 11/8/4 10/7/4 12/9/4 13/10/4
f 13/10/5 12/9/5 14/11/5 15/12/5
f 15/12/6 14/11/6 16/13/6 17/14/6
f 17/15/7 16/16/7 18/17/7 19/18/7
f 5/2/8 4/1/8 19/18/8 18/17/8
f 19/18/9 4/1/9 20/19/9 21/20/9
f 17/15/10 19/18/10 21/20/10 22/21/10
f 15/12/11 17/14/11 22/22/11 23/23/11
f 13/10/12 15/12/12 23/23/12 24/24/12
f 11/8/13 13/10/13 24/24/13 25/25/13
f 9/6/14 11/8/14 25/25/14 26/26/14
f 7/4/15 9/6/15 26/26/15 27/27/15
f 4/1/16 7/4/16 27/27/16 20/19/16
f 5/2/17 18/17/17 28/28/17 29/29/17
f 18/17/18 16/16/18 30/30/18 28/28/18
f 16/13/19 14/11/19 31/31/19 30/32/19
f 14/11/20 12/9/20 32/33/20 31/31/20
f 12/9/21 10/7/21 33/34/21 32/33/21
f 10/7/22 8/5/22 34/35/22 33/34/22
f 8/5/23 6/3/23 35/36/23 34/35/23
f 6/3/24 5/2/24 29/29/24 35/36/24
f 26/26/25 25/25/25 36/37/25 37/38/25
f 25/25/26 24/24/26 38/39/26 36/37/26
f 22/21/27 21/20/27 39/40/27 40/41/27
f 21/20/28 20/19/28 41/42/28 39/40/28
f 33/34/29 34/35/29 42/43/29 43/44/29
f 32/33/30 33/34/30 43/44/30 44/45/30
f 28/28/31 30/30/31 45/46/31 46/47/31
f 29/29/32 28/28/32 46/47/32 47/48/32
f 30/49/33 32/33/33 44/45/33 45/50/33
f 34/35/34 29/29/34 47/48/34 42/43/34
f 22/51/35 40/52/35 38/39/35 24/24/35
f 26/26/36 37/38/36 41/42/36 20/19/36
f 38/39/37 40/52/37 48/53/37 49/54/37
f 41/42/38 37/38/38 50/55/38 51/56/38
f 39/40/39 41/42/39 51/56/39 52/57/39
f 40/41/40 39/40/40 52/57/40 48/58/40
f 36/37/41 38/39/41 49/54/41 53/59/41
f 37/38/42 36/37/42 53/59/42 50/55/42
f 42/43/43 47/48/43 54/60/43 55/61/43
f 45/50/44 44/45/44 56/62/44 57/63/44
f 47/48/45 46/47/45 58/64/45 54/60/45
f 46/47/46 45/46/46 57/65/46 58/64/46
f 44/45/47 43/44/47 59/66/47 56/62/47
f 43/44/48 42/43/48 55/61/48 59/66/48
f 50/55/49 53/59/49 60/67/49 61/68/49
f 53/59/50 49/54/50 62/69/50 60/67/50
f 48/58/51 52/57/51 63/70/51 64/71/51
f 52/57/52 51/56/52 65/72/52 63/70/52
f 51/56/53 50/55/53 61/68/53 65/72/53
f 49/54/54 48/53/54 64/73/54 62/69/54
f 63/70/55 65/72/55 66/74/55
f 66/75/56 64/71/56 63/70/56
f 66/76/57 60/67/57 62/69/57
f 66/77/58 61/68/58 60/67/58
f 65/72/55 61/68/55 66/78/55
f 62/69/59 64/73/59 66/79/59
f 59/66/60 55/61/60 67/80/60 68/81/60
f 56/62/61 59/66/61 68/81/61 69/82/61
f 58/64/62 57/65/62 70/83/62 71/84/62
f 54/60/63 58/64/63 71/84/63 72/85/63
f 57/63/64 56/62/64 69/82/64 70/86/64
f 55/61/65 54/60/65 72/85/65 67/80/65
f 73/87/66 72/85/66 71/84/66
f 73/88/67 71/84/67 70/83/67
f 73/89/68 69/82/68 68/81/68
f 73/90/69 68/81/69 67/80/69
f 69/82/70 73/91/70 70/86/70
f 72/85/71 73/92/71 67/80/71
f 74/93/72 75/94/72 76/95/72
f 78/96/73 1/97/73 3/98/73 77/99/73
f 77/99/74 74/93/74 76/100/74 78/96/74
f 2/101/75 79/102/75 77/99/75 3/98/75
f 79/102/76 75/94/76 74/93/76 77/99/76
f 1/103/77 78/104/77 79/102/77 2/101/77
f 78/104/78 76/105/78 75/94/78 79/102/78
usemtl None_texture_weap.000
f 1/106/79 2/101/79 3/98/79
