# Blender v2.55 (sub 0) OBJ File: 'weapons.blend'
# www.blender.org
o Mesh.031_Mesh.031_Mesh.010_Mes
v 2.612073 -0.061676 0.062610
v 2.068736 -0.061676 -0.330932
v 2.068736 0.169643 -0.255772
v 2.068736 -0.292995 -0.255772
v 2.068736 -0.435959 -0.059000
v 2.068736 -0.435958 0.184223
v 2.068736 -0.292995 0.380994
v 2.068736 -0.061676 0.456154
v 2.068736 0.169643 0.380994
v 2.068736 0.312606 0.184223
v 2.068736 0.312606 -0.059001
v -2.392608 0.158783 -0.467664
v -2.392586 -0.061677 0.248165
v -10.695825 -0.061677 0.197746
v -10.695825 0.151427 -0.467664
v -2.392586 -0.061677 0.248165
v -2.392613 -0.288569 -0.467664
v -10.695825 -0.281212 -0.467664
v -10.695825 -0.061677 0.197746
v 2.068736 0.312606 -0.059001
v -1.734627 0.312607 -0.059000
v -1.734627 0.312606 0.184224
v 2.068736 0.312606 0.184223
v 2.068736 0.169643 -0.255772
v -1.734627 0.169644 -0.255772
v -1.734627 0.169643 0.380994
v 2.068736 0.169643 0.380994
v -1.734627 -0.061677 0.456154
v 2.068736 -0.061676 0.456154
v -1.734627 -0.292996 0.380994
v 2.068736 -0.292995 0.380994
v -1.734627 -0.435958 0.184222
v 2.068736 -0.435959 0.184223
v -1.734627 -0.435957 -0.059002
v 2.068736 -0.435959 -0.059001
v -1.734627 -0.292994 -0.255773
v 2.068736 -0.292995 -0.255772
v 2.068736 -0.061676 -0.330933
v -1.734627 -0.061675 -0.330933
v -2.389330 -0.061676 -1.207254
v -1.796049 -0.061676 -1.207254
v -1.796049 -0.701874 -0.914679
v -2.389330 -0.701874 -0.914679
v -2.389330 0.578522 -0.914679
v -1.796049 0.578522 -0.914679
v -1.796049 -0.701874 0.713344
v -2.389330 -0.701874 0.713344
v -1.796049 -0.061676 1.477612
v -1.796049 0.578522 0.713344
v -2.389330 0.578522 0.713344
v -2.389330 -0.061676 1.477610
v -15.596659 -0.063285 -0.156893
vt 0.325705 0.355462
vt 0.315343 0.347773
vt 0.318857 0.344526
vt 0.328972 0.326105
vt 0.319965 0.340489
vt 0.315343 0.336218
vt 0.325826 0.342782
vt 0.332119 0.342782
vt 0.337980 0.340489
vt 0.342602 0.336218
vt 0.332554 0.344526
vt 0.336068 0.347773
vt 0.328098 0.342782
vt 0.323313 0.342782
vt 0.904819 0.648058
vt 0.927031 0.647371
vt 0.927031 0.816955
vt 0.903987 0.833941
vt 0.857728 0.648699
vt 0.879952 0.649182
vt 0.882575 0.834658
vt 0.859265 0.818326
vt 0.353193 0.228770
vt 0.353193 0.325487
vt 0.340541 0.326105
vt 0.340541 0.229388
vt 0.365845 0.228153
vt 0.365845 0.324870
vt 0.327942 0.325291
vt 0.327942 0.228574
vt 0.315343 0.324477
vt 0.315343 0.227760
vt 0.378497 0.227311
vt 0.365897 0.226497
vt 0.365897 0.129780
vt 0.378496 0.130593
vt 0.353298 0.225683
vt 0.353298 0.128966
vt 0.340646 0.226300
vt 0.340646 0.129583
vt 0.327995 0.226918
vt 0.327995 0.130201
vt 0.378497 0.227535
vt 0.378497 0.324253
vt 0.315343 0.227535
vt 0.315343 0.130818
vt 0.320959 0.128966
vt 0.315343 0.070361
vt 0.341403 0.088828
vt 0.338587 0.114503
vt 0.316347 0.013734
vt 0.334636 0.026666
vt 0.339182 0.053893
vt 0.425997 0.084823
vt 0.423180 0.110499
vt 0.443624 0.070361
vt 0.428179 0.049829
vt 0.462207 0.070361
vt 0.427472 0.021475
vt 0.447193 0.000000
vt 0.449241 0.128966
vt 0.895333 0.988169
vn 0.567287 0.254481 -0.783214
vn 0.567287 -0.254481 -0.783214
vn 0.567288 -0.666240 -0.484055
vn 0.567289 -0.823519 0.000003
vn 0.567289 -0.666240 0.484053
vn 0.567289 -0.254481 0.783213
vn 0.567289 0.254481 0.783213
vn 0.567289 0.666240 0.484053
vn 0.567288 0.823519 0.000000
vn 0.567287 0.666241 -0.484054
vn 0.001332 -0.954099 -0.299487
vn 0.001355 0.951533 -0.307543
vn 0.000000 1.000000 0.000002
vn 0.000000 0.809017 -0.587786
vn 0.000000 0.809015 0.587788
vn -0.000000 0.309016 0.951057
vn 0.000000 -0.309017 0.951057
vn -0.000000 -0.809017 0.587786
vn -0.000000 -1.000000 -0.000002
vn -0.000000 -0.809015 -0.587788
vn 0.000000 0.309020 -0.951055
vn 0.000000 -0.309018 -0.951056
vn 0.000000 -0.415658 -0.909521
vn 0.000000 0.415658 -0.909521
vn 0.000000 -1.000000 0.000000
vn 1.000000 0.000000 -0.000000
vn 0.000000 1.000000 -0.000000
vn -0.000001 0.766587 0.642141
vn -0.000001 -0.766587 0.642141
vn -1.000000 0.000000 0.000000
vn 0.000000 -0.000000 1.000000
vn 0.063285 0.000000 0.997995
vn 0.022378 -0.952114 -0.304923
vn 0.022355 0.949413 -0.313235
usemtl sword_blade_textu.002
s off
f 1/1/1 2/2/1 3/3/1
f 1/4/2 4/5/2 2/6/2
f 1/4/3 5/7/3 4/5/3
f 1/4/4 6/8/4 5/7/4
f 1/4/5 7/9/5 6/8/5
f 1/4/6 8/10/6 7/9/6
f 1/1/7 9/11/7 8/12/7
f 1/1/8 10/13/8 9/11/8
f 1/1/9 11/14/9 10/13/9
f 1/1/10 3/3/10 11/14/10
f 12/15/11 13/16/11 14/17/11 15/18/11
f 16/19/12 17/20/12 18/21/12 19/22/12
f 20/23/13 21/24/13 22/25/13 23/26/13
f 24/27/14 25/28/14 21/24/14 20/23/14
f 22/25/15 26/29/15 27/30/15 23/26/15
f 26/29/16 28/31/16 29/32/16 27/30/16
f 28/33/17 30/34/17 31/35/17 29/36/17
f 30/34/18 32/37/18 33/38/18 31/35/18
f 33/38/19 32/37/19 34/39/19 35/40/19
f 35/40/20 34/39/20 36/41/20 37/42/20
f 38/43/21 39/44/21 25/28/21 24/27/21
f 37/42/22 36/41/22 39/45/22 38/46/22
f 40/47/23 41/48/23 42/49/23 43/50/23
f 40/51/24 44/52/24 45/53/24 41/48/24
f 46/54/25 47/55/25 43/50/25 42/49/25
f 48/56/26 46/54/26 42/49/26 41/48/26
f 41/48/26 45/53/26 49/57/26 48/58/26
f 44/52/27 50/59/27 49/57/27 45/53/27
f 49/57/28 50/59/28 51/60/28 48/58/28
f 48/56/29 51/61/29 47/55/29 46/54/29
f 50/59/30 44/52/30 40/51/30 51/60/30
f 40/47/30 43/50/30 47/55/30 51/61/30
f 12/15/31 15/18/31 18/21/31 17/20/31
f 18/21/32 15/18/32 52/62/32
f 15/18/33 14/17/33 52/62/33
f 19/22/34 18/21/34 52/62/34
