# Blender v2.55 (sub 0) OBJ File: 'weapons.blend'
# www.blender.org
o Mesh.005_greataxe
v -28.075903 0.000008 -0.000007
v -28.193405 0.000008 -1.365069
v -28.193403 -1.499992 -1.365069
v -28.075903 -1.499992 -0.000007
v -28.193405 0.000008 1.365055
v -28.193405 -1.499992 1.365055
v -19.806595 -0.000012 1.365062
v -19.806595 -1.500009 1.365062
v -19.924095 -1.500010 0.000000
v -19.924097 -0.000010 0.000000
v -19.806595 -0.000010 -1.365061
v -19.806595 -1.500010 -1.365061
v -31.071068 0.000002 -7.662046
v -30.196709 -0.749998 -5.963706
v -31.608337 -0.749997 -4.379460
v -33.238792 0.000003 -5.460254
v -33.238796 0.000003 5.460242
v -31.608337 -0.749997 4.379457
v -30.196709 -0.749997 5.963706
v -31.071072 0.000003 7.662047
v -27.468311 -0.749999 7.410090
v -27.826836 0.000001 9.238795
v -24.000000 -0.750001 8.020625
v -24.000000 -0.000001 10.000001
v -20.531687 -0.750004 7.410090
v -20.173164 -0.000004 9.238795
v -17.803291 -0.750004 5.963706
v -16.928930 -0.000006 7.662047
v -16.391663 -0.750006 4.379457
v -14.761204 -0.000006 5.460247
v -14.761205 -0.000007 -5.460245
v -16.391663 -0.750006 -4.379460
v -17.803291 -0.750004 -5.963706
v -16.928932 -0.000005 -7.662046
v -20.531687 -0.750004 -7.410089
v -20.173164 -0.000002 -9.238794
v -24.000000 -0.750002 -8.020624
v -24.000000 -0.000002 -9.999999
v -27.468311 -0.749998 -7.410089
v -27.826836 0.000002 -9.238794
v -28.075905 1.500008 -0.000007
v -28.193405 1.500008 -1.365069
v -28.193405 1.500008 1.365055
v -19.924097 1.499990 0.000000
v -19.806595 1.499991 1.365062
v -19.806595 1.499990 -1.365061
v -30.196709 0.750002 -5.963706
v -31.608335 0.750003 -4.379460
v -30.196709 0.750001 5.963706
v -31.608335 0.750003 4.379457
v -27.468311 0.750001 7.410091
v -24.000000 0.749999 8.020625
v -20.531687 0.749998 7.410090
v -17.803291 0.749996 5.963706
v -16.391663 0.749995 4.379457
v -17.803291 0.749996 -5.963706
v -16.391663 0.749995 -4.379460
v -20.531687 0.749998 -7.410089
v -24.000000 0.749998 -8.020624
v -27.468313 0.750000 -7.410089
v -29.413809 -0.599994 -2.730129
v -29.413809 0.000006 -2.730129
v -29.413809 -1.199993 -2.730130
v -29.413811 -0.599994 2.730119
v -29.413811 -1.199994 2.730119
v -29.413811 0.000007 2.730119
v -18.586189 -0.600008 2.730124
v -18.586189 -1.200009 2.730124
v -18.586189 -0.000010 2.730124
v -18.586189 -0.600008 -2.730122
v -18.586189 -1.200009 -2.730122
v -18.586189 -0.000008 -2.730122
v -29.413809 0.600007 -2.730129
v -29.413811 1.200007 -2.730129
v -29.413811 0.600007 2.730119
v -29.413811 1.200007 2.730119
v -18.586189 0.599991 2.730124
v -18.586189 1.199991 2.730124
v -18.586189 0.599990 -2.730122
v -18.586189 1.199991 -2.730122
v -23.999998 -1.200001 -3.957930
v -24.000000 1.199999 -3.957930
v -24.000000 -1.200000 3.957923
v -24.000000 1.199999 3.957923
v 24.000000 -0.000006 0.000001
v 24.000000 -0.707112 -0.707106
v 24.000000 -0.000006 -0.999999
v -24.000000 -0.000002 0.000001
v -24.000000 -0.000002 -0.999999
v -24.000000 -0.707107 -0.707105
v 24.000000 0.707102 -0.707106
v -24.000000 0.707106 -0.707106
v 24.000000 0.999994 0.000001
v -24.000000 0.999998 0.000001
v 24.000000 0.707102 0.707108
v -24.000000 0.707104 0.707108
v 24.000000 -0.000006 1.000001
v -24.000000 -0.000002 1.000001
v 24.000000 -0.707112 0.707108
v -24.000000 -0.707109 0.707107
v 24.000000 -1.000006 0.000001
v -24.000000 -1.000002 0.000000
vt 0.464836 0.722429
vt 0.475127 0.721564
vt 0.477729 0.734328
vt 0.464842 0.735752
vt 0.454428 0.721490
vt 0.451753 0.734257
vt 0.455150 0.827484
vt 0.452163 0.814674
vt 0.464921 0.813827
vt 0.464911 0.826141
vt 0.474773 0.827582
vt 0.477848 0.814758
vt 0.535293 0.717084
vt 0.520231 0.723400
vt 0.509664 0.710995
vt 0.519955 0.698514
vt 0.409439 0.698514
vt 0.419787 0.710979
vt 0.409260 0.723434
vt 0.394156 0.717184
vt 0.399108 0.746430
vt 0.383106 0.743902
vt 0.394996 0.774794
vt 0.377823 0.774863
vt 0.399351 0.803149
vt 0.383341 0.805817
vt 0.409738 0.826104
vt 0.394644 0.832520
vt 0.420433 0.838485
vt 0.410182 0.851125
vt 0.519943 0.851189
vt 0.509629 0.838550
vt 0.520295 0.826109
vt 0.535444 0.832469
vt 0.530575 0.803079
vt 0.546617 0.805661
vt 0.534775 0.774681
vt 0.551954 0.774649
vt 0.530502 0.746337
vt 0.546485 0.743720
vt 0.455735 0.827520
vt 0.465495 0.826172
vt 0.465499 0.813858
vt 0.452741 0.814712
vt 0.475358 0.827607
vt 0.478426 0.814781
vt 0.465361 0.722460
vt 0.465375 0.735783
vt 0.478261 0.734352
vt 0.475652 0.721589
vt 0.454952 0.721527
vt 0.452285 0.734296
vt 0.410322 0.826166
vt 0.395232 0.832592
vt 0.410781 0.851187
vt 0.421024 0.838542
vt 0.536032 0.832460
vt 0.520880 0.826109
vt 0.510220 0.838555
vt 0.520541 0.851188
vt 0.547190 0.805645
vt 0.531146 0.803072
vt 0.552509 0.774630
vt 0.535329 0.774672
vt 0.547022 0.743704
vt 0.531040 0.746331
vt 0.535814 0.717075
vt 0.520757 0.723400
vt 0.520466 0.698514
vt 0.510182 0.711001
vt 0.394679 0.717255
vt 0.409786 0.723497
vt 0.420306 0.711036
vt 0.409951 0.698577
vt 0.383643 0.743979
vt 0.399647 0.746498
vt 0.378378 0.774943
vt 0.395551 0.774865
vt 0.383914 0.805894
vt 0.399922 0.803217
vt 0.490119 0.720713
vt 0.488077 0.716375
vt 0.492244 0.725245
vt 0.439379 0.720642
vt 0.437258 0.725181
vt 0.441417 0.716289
vt 0.439988 0.828555
vt 0.437790 0.824027
vt 0.442094 0.832909
vt 0.490011 0.828659
vt 0.492209 0.824122
vt 0.487904 0.833032
vt 0.440573 0.828600
vt 0.438373 0.824074
vt 0.442683 0.832953
vt 0.490597 0.828676
vt 0.488492 0.833050
vt 0.492792 0.824137
vt 0.490642 0.720730
vt 0.488598 0.716393
vt 0.492771 0.725261
vt 0.439904 0.720688
vt 0.441939 0.716334
vt 0.437785 0.725228
vt 0.499466 0.774690
vt 0.430846 0.774671
vt 0.430291 0.774620
vt 0.500021 0.774701
vt 0.597223 0.560802
vt 0.607498 0.496392
vt 0.617670 0.530687
vt 0.599538 0.105859
vt 0.620470 0.150557
vt 0.608402 0.180185
vt 0.639694 0.560802
vt 0.620470 0.519754
vt 0.631553 0.492544
vt 0.641819 0.142995
vt 0.632383 0.202147
vt 0.623041 0.170651
vt 0.640533 0.487940
vt 0.641073 0.211718
vt 0.649118 0.497154
vt 0.650064 0.206610
vt 0.659796 0.527566
vt 0.659795 0.178052
vt 0.577649 0.522630
vt 0.588246 0.491533
vt 0.589275 0.175164
vt 0.577649 0.142049
vt 0.598036 0.485971
vt 0.598624 0.185197
vn -0.996316 -0.000001 0.085760
vn -0.996316 0.000000 -0.085761
vn 0.996316 0.000001 -0.085760
vn 0.996316 0.000001 0.085761
vn -0.271159 -0.927768 -0.256356
vn -0.271160 -0.927768 0.256356
vn -0.169528 -0.926869 0.334925
vn -0.067717 -0.930443 0.360125
vn 0.067715 -0.930443 0.360126
vn 0.169527 -0.926869 0.334925
vn 0.271159 -0.927769 0.256356
vn 0.271159 -0.927768 -0.256357
vn 0.169527 -0.926869 -0.334926
vn 0.067716 -0.930443 -0.360126
vn -0.067717 -0.930443 -0.360125
vn -0.169527 -0.926869 -0.334925
vn -0.996316 -0.000001 -0.085760
vn 0.996316 0.000000 -0.085761
vn 0.996316 0.000000 0.085761
vn -0.271159 0.927768 -0.256356
vn -0.271159 0.927769 0.256356
vn -0.169526 0.926869 0.334925
vn -0.067715 0.930443 0.360125
vn 0.067716 0.930443 0.360126
vn 0.169528 0.926868 0.334926
vn 0.271160 0.927768 0.256356
vn 0.271160 0.927768 -0.256356
vn 0.169528 0.926869 -0.334925
vn 0.067716 0.930443 -0.360126
vn -0.067715 0.930443 -0.360125
vn -0.169527 0.926869 -0.334925
vn 0.000002 1.000000 -0.000000
vn -0.000002 -1.000000 0.000000
vn -0.745503 -0.000001 0.666502
vn -0.745504 0.000000 0.666502
vn -0.745503 -0.000000 0.666502
vn -0.745504 0.000000 -0.666502
vn 0.745503 0.000000 -0.666502
vn 0.745503 -0.000000 0.666502
vn -0.589548 -0.133713 0.796589
vn -0.600800 -0.000000 0.799399
vn -0.580955 0.000000 0.813935
vn -0.589549 -0.133729 -0.796586
vn -0.600803 0.000000 -0.799397
vn -0.580955 0.000000 -0.813936
vn 0.589548 -0.133723 -0.796587
vn 0.580955 0.000000 -0.813936
vn 0.600801 0.000000 -0.799398
vn 0.589549 -0.133729 0.796586
vn 0.580955 -0.000000 0.813936
vn 0.600803 -0.000000 0.799397
vn -0.745503 -0.000002 0.666502
vn -0.589549 0.133716 0.796588
vn -0.600801 -0.000002 0.799399
vn -0.589549 0.133732 -0.796585
vn 0.589548 0.133722 -0.796587
vn 0.589549 0.133729 0.796586
vn -0.000002 -0.993373 -0.114935
vn -0.040732 -0.982897 -0.179596
vn 0.040730 -0.982897 -0.179598
vn 0.000002 0.993373 -0.114935
vn 0.040732 0.982897 -0.179595
vn -0.040730 0.982896 -0.179599
vn -0.000002 -0.993373 0.114935
vn 0.040730 -0.982897 0.179599
vn -0.040732 -0.982897 0.179594
vn 0.000002 0.993373 0.114935
vn -0.040730 0.982897 0.179598
vn 0.040732 0.982897 0.179596
vn -0.121184 0.986739 0.107981
vn -0.121182 -0.986740 0.107978
vn -0.029647 0.990974 0.130732
vn -0.029649 -0.990975 0.130729
vn -0.044882 -0.995398 0.084662
vn -0.044881 0.995398 0.084662
vn -0.019376 -0.993735 0.110070
vn -0.019375 0.993735 0.110070
vn 0.019375 -0.993735 0.110070
vn 0.019376 0.993735 0.110070
vn 0.044881 -0.995398 0.084661
vn 0.044882 0.995398 0.084662
vn 0.029647 -0.990974 0.130732
vn 0.029649 0.990975 0.130728
vn 0.121183 -0.986740 0.107980
vn 0.121182 0.986740 0.107978
vn -0.121182 -0.986740 -0.107978
vn -0.121184 0.986739 -0.107980
vn -0.029647 0.990974 -0.130732
vn -0.029649 -0.990975 -0.130729
vn -0.044882 -0.995398 -0.084663
vn -0.044881 0.995398 -0.084662
vn -0.019375 0.993735 -0.110070
vn -0.019377 -0.993735 -0.110070
vn 0.019375 -0.993735 -0.110070
vn 0.019376 0.993735 -0.110070
vn 0.121183 -0.986740 -0.107980
vn 0.121182 0.986740 -0.107978
vn 0.029650 0.990975 -0.130728
vn 0.044882 0.995398 -0.084662
vn 0.044881 -0.995399 -0.084661
vn 0.029647 -0.990974 -0.130732
vn 1.000000 0.000000 -0.000000
vn -1.000000 0.000000 0.000000
vn -0.000000 -0.382684 -0.923879
vn 0.000000 0.382683 -0.923880
vn 0.000000 0.923880 -0.382683
vn 0.000000 0.923880 0.382683
vn 0.000000 0.382683 0.923880
vn -0.000000 -0.382684 0.923879
vn -0.000000 -0.923880 0.382684
vn -0.000000 -0.923879 -0.382685
usemtl None_texture_swor.000
s off
f 1/1/1 2/2/1 3/3/1 4/4/1
f 5/5/2 1/1/2 4/4/2 6/6/2
f 7/7/3 8/8/3 9/9/3 10/10/3
f 11/11/4 10/10/4 9/9/4 12/12/4
f 13/13/5 14/14/5 15/15/5 16/16/5
f 17/17/6 18/18/6 19/19/6 20/20/6
f 20/20/7 19/19/7 21/21/7 22/22/7
f 22/22/8 21/21/8 23/23/8 24/24/8
f 24/24/9 23/23/9 25/25/9 26/26/9
f 26/26/10 25/25/10 27/27/10 28/28/10
f 28/28/11 27/27/11 29/29/11 30/30/11
f 31/31/12 32/32/12 33/33/12 34/34/12
f 34/34/13 33/33/13 35/35/13 36/36/13
f 36/36/14 35/35/14 37/37/14 38/38/14
f 38/38/15 37/37/15 39/39/15 40/40/15
f 14/14/16 13/13/16 40/40/16 39/39/16
f 2/41/1 1/42/1 41/43/1 42/44/1
f 1/42/17 5/45/17 43/46/17 41/43/17
f 10/47/18 44/48/18 45/49/18 7/50/18
f 10/47/19 11/51/19 46/52/19 44/48/19
f 47/53/20 13/54/20 16/55/20 48/56/20
f 20/57/21 49/58/21 50/59/21 17/60/21
f 22/61/22 51/62/22 49/58/22 20/57/22
f 24/63/23 52/64/23 51/62/23 22/61/23
f 26/65/24 53/66/24 52/64/24 24/63/24
f 28/67/25 54/68/25 53/66/25 26/65/25
f 30/69/26 55/70/26 54/68/26 28/67/26
f 34/71/27 56/72/27 57/73/27 31/74/27
f 36/75/28 58/76/28 56/72/28 34/71/28
f 38/77/29 59/78/29 58/76/29 36/75/29
f 40/79/30 60/80/30 59/78/30 38/77/30
f 13/54/31 47/53/31 60/80/31 40/79/31
f 42/44/32 41/43/32 44/48/32 46/52/32
f 3/3/33 12/12/33 9/9/33 4/4/33
f 6/6/33 4/4/33 9/9/33 8/8/33
f 43/46/32 45/49/32 44/48/32 41/43/32
f 61/81/34 3/3/34 2/2/34
f 62/82/35 61/81/35 2/2/35
f 61/81/36 63/83/36 3/3/36
f 64/84/37 5/5/37 6/6/37
f 65/85/37 64/84/37 6/6/37
f 64/84/37 66/86/37 5/5/37
f 67/87/38 8/8/38 7/7/38
f 68/88/38 8/8/38 67/87/38
f 67/87/38 7/7/38 69/89/38
f 70/90/39 11/11/39 12/12/39
f 71/91/39 70/90/39 12/12/39
f 70/90/39 72/92/39 11/11/39
f 61/81/40 16/16/40 15/15/40
f 63/83/41 61/81/41 15/15/41
f 61/81/42 62/82/42 16/16/42
f 64/84/43 18/18/43 17/17/43
f 65/85/44 18/18/44 64/84/44
f 64/84/45 17/17/45 66/86/45
f 67/87/46 30/30/46 29/29/46
f 69/89/47 30/30/47 67/87/47
f 67/87/48 29/29/48 68/88/48
f 70/90/49 32/32/49 31/31/49
f 72/92/50 70/90/50 31/31/50
f 70/90/51 71/91/51 32/32/51
f 73/93/36 2/41/36 42/44/36
f 74/94/52 73/93/52 42/44/52
f 73/93/35 62/95/35 2/41/35
f 75/96/37 43/46/37 5/45/37
f 66/97/37 75/96/37 5/45/37
f 75/96/37 76/98/37 43/46/37
f 77/99/38 7/50/38 45/49/38
f 69/100/38 7/50/38 77/99/38
f 77/99/38 45/49/38 78/101/38
f 79/102/39 46/52/39 11/51/39
f 72/103/39 79/102/39 11/51/39
f 79/102/39 80/104/39 46/52/39
f 73/93/53 48/56/53 16/55/53
f 62/95/42 73/93/42 16/55/42
f 73/93/54 74/94/54 48/56/54
f 75/96/55 17/60/55 50/59/55
f 66/97/45 17/60/45 75/96/45
f 75/96/44 50/59/44 76/98/44
f 77/99/56 55/70/56 30/69/56
f 78/101/48 55/70/48 77/99/48
f 77/99/47 30/69/47 69/100/47
f 79/102/57 31/74/57 57/73/57
f 80/104/51 79/102/51 57/73/51
f 79/102/50 72/103/50 31/74/50
f 81/105/58 12/12/58 3/3/58
f 63/83/59 81/105/59 3/3/59
f 81/105/60 71/91/60 12/12/60
f 82/106/61 42/44/61 46/52/61
f 80/104/62 82/106/62 46/52/62
f 82/106/63 74/94/63 42/44/63
f 83/107/64 6/6/64 8/8/64
f 68/88/65 83/107/65 8/8/65
f 83/107/66 65/85/66 6/6/66
f 84/108/67 45/49/67 43/46/67
f 76/98/68 84/108/68 43/46/68
f 84/108/69 78/101/69 45/49/69
f 76/98/70 50/59/70 49/58/70
f 65/85/71 19/19/71 18/18/71
f 76/98/72 49/58/72 84/108/72
f 65/85/73 83/107/73 19/19/73
f 19/19/74 83/107/74 21/21/74
f 49/58/75 51/62/75 84/108/75
f 21/21/76 83/107/76 23/23/76
f 51/62/77 52/64/77 84/108/77
f 23/23/78 83/107/78 25/25/78
f 52/64/79 53/66/79 84/108/79
f 25/25/80 83/107/80 27/27/80
f 53/66/81 54/68/81 84/108/81
f 68/88/82 27/27/82 83/107/82
f 78/101/83 84/108/83 54/68/83
f 68/88/84 29/29/84 27/27/84
f 78/101/85 54/68/85 55/70/85
f 63/83/86 15/15/86 14/14/86
f 74/94/87 47/53/87 48/56/87
f 74/94/88 82/106/88 47/53/88
f 63/83/89 14/14/89 81/105/89
f 39/39/90 81/105/90 14/14/90
f 60/80/91 47/53/91 82/106/91
f 59/78/92 60/80/92 82/106/92
f 37/37/93 81/105/93 39/39/93
f 35/35/94 81/105/94 37/37/94
f 58/76/95 59/78/95 82/106/95
f 71/91/96 33/33/96 32/32/96
f 80/104/97 57/73/97 56/72/97
f 80/104/98 56/72/98 82/106/98
f 56/72/99 58/76/99 82/106/99
f 33/33/100 81/105/100 35/35/100
f 71/91/101 81/105/101 33/33/101
f 85/109/102 86/110/102 87/111/102
f 88/112/103 89/113/103 90/114/103
f 85/115/102 87/116/102 91/117/102
f 88/118/103 92/119/103 89/120/103
f 85/115/102 91/117/102 93/121/102
f 88/118/103 94/122/103 92/119/103
f 85/115/102 93/121/102 95/123/102
f 88/118/103 96/124/103 94/122/103
f 85/115/102 95/123/102 97/125/102
f 88/118/103 98/126/103 96/124/103
f 85/109/102 97/127/102 99/128/102
f 88/112/103 100/129/103 98/130/103
f 85/109/102 99/128/102 101/131/102
f 88/112/103 102/132/103 100/129/103
f 85/109/102 101/131/102 86/110/102
f 88/112/103 90/114/103 102/132/103
f 86/110/104 90/114/104 89/113/104 87/111/104
f 87/116/105 89/120/105 92/119/105 91/117/105
f 91/117/106 92/119/106 94/122/106 93/121/106
f 93/121/107 94/122/107 96/124/107 95/123/107
f 95/123/108 96/124/108 98/126/108 97/125/108
f 97/127/109 98/130/109 100/129/109 99/128/109
f 99/128/110 100/129/110 102/132/110 101/131/110
f 101/131/111 102/132/111 90/114/111 86/110/111
