# Blender v2.55 (sub 0) OBJ File: 'weapons.blend'
# www.blender.org
o knife
v 2.612073 -0.061676 0.062610
v 2.068736 -0.061676 -0.330932
v 2.068736 0.169643 -0.255772
v 2.068736 -0.292995 -0.255772
v 2.068736 -0.435959 -0.059000
v 2.068736 -0.435958 0.184223
v 2.068736 -0.292995 0.380994
v 2.068736 -0.061676 0.456154
v 2.068736 0.169643 0.380994
v 2.068736 0.312606 0.184223
v 2.068736 0.312606 -0.059001
v -2.392613 -0.288569 -0.467664
v -2.392608 0.158783 -0.467664
v -10.978076 0.151427 -0.467664
v -10.978088 -0.281212 -0.467664
v -2.392586 0.134232 0.248165
v -10.413568 0.126879 0.153878
v -2.392586 -0.257586 0.248165
v -10.413568 -0.250232 0.153878
v -2.392586 -0.061675 0.556413
v -10.063193 -0.061675 0.462107
v 2.068736 0.312606 -0.059001
v -1.734627 0.312607 -0.059000
v -1.734627 0.312606 0.184224
v 2.068736 0.312606 0.184223
v 2.068736 0.169643 -0.255772
v -1.734627 0.169644 -0.255772
v -1.734627 0.169643 0.380994
v 2.068736 0.169643 0.380994
v -1.734627 -0.061677 0.456154
v 2.068736 -0.061676 0.456154
v -1.734627 -0.292996 0.380994
v 2.068736 -0.292995 0.380994
v -1.734627 -0.435958 0.184222
v 2.068736 -0.435959 0.184223
v -1.734627 -0.435957 -0.059002
v 2.068736 -0.435959 -0.059001
v -1.734627 -0.292994 -0.255773
v 2.068736 -0.292995 -0.255772
v 2.068736 -0.061676 -0.330933
v -1.734627 -0.061675 -0.330933
v -2.389330 -0.061676 -1.207254
v -1.796049 -0.061676 -1.207254
v -1.796049 -0.701874 -0.914679
v -2.389330 -0.701874 -0.914679
v -2.389330 0.578522 -0.914679
v -1.796049 0.578522 -0.914679
v -1.796049 -0.701874 0.713344
v -2.389330 -0.701874 0.713344
v -1.796049 -0.061676 1.477612
v -1.796049 0.578522 0.713344
v -2.389330 0.578522 0.713344
v -2.389330 -0.061676 1.477610
v -11.838799 -0.064893 -0.467664
v -2.392611 -0.064893 -0.467664
v -11.216201 -0.061676 0.153878
vt 0.325705 0.355462
vt 0.315343 0.347773
vt 0.318857 0.344526
vt 0.328972 0.326105
vt 0.319965 0.340489
vt 0.315343 0.336218
vt 0.325826 0.342782
vt 0.332119 0.342782
vt 0.337980 0.340489
vt 0.342602 0.336218
vt 0.332554 0.344526
vt 0.336068 0.347773
vt 0.328098 0.342782
vt 0.323313 0.342782
vt 0.792748 0.609938
vt 0.767556 0.609938
vt 0.764254 0.807535
vt 0.767170 0.853215
vt 0.765286 0.806297
vt 0.745337 0.609938
vt 0.744294 0.783164
vt 0.742686 0.785035
vt 0.353193 0.228770
vt 0.353193 0.325487
vt 0.340541 0.326105
vt 0.340541 0.229388
vt 0.365845 0.228153
vt 0.365845 0.324870
vt 0.327942 0.325291
vt 0.327942 0.228574
vt 0.315343 0.324477
vt 0.315343 0.227760
vt 0.378497 0.227311
vt 0.365897 0.226497
vt 0.365897 0.129780
vt 0.378496 0.130593
vt 0.353298 0.225683
vt 0.353298 0.128966
vt 0.340646 0.226300
vt 0.340646 0.129583
vt 0.327995 0.226918
vt 0.327995 0.130201
vt 0.378497 0.227535
vt 0.378497 0.324253
vt 0.315343 0.227535
vt 0.315343 0.130818
vt 0.320959 0.128966
vt 0.315343 0.070361
vt 0.341403 0.088828
vt 0.338587 0.114503
vt 0.316347 0.013734
vt 0.334636 0.026666
vt 0.339182 0.053893
vt 0.425997 0.084823
vt 0.423180 0.110499
vt 0.443624 0.070361
vt 0.428179 0.049829
vt 0.462207 0.070361
vt 0.427472 0.021475
vt 0.447193 0.000000
vt 0.449241 0.128966
vt 0.798979 0.837408
vt 0.753116 0.916941
vt 0.754656 0.916941
vt 0.741996 0.846855
vn 0.567287 0.254482 -0.783214
vn 0.567287 -0.254484 -0.783213
vn 0.567287 -0.666241 -0.484054
vn 0.567288 -0.823519 0.000002
vn 0.567288 -0.666240 0.484054
vn 0.567289 -0.254482 0.783213
vn 0.567289 0.254482 0.783213
vn 0.567288 0.666241 0.484052
vn 0.567288 0.823520 0.000000
vn 0.567287 0.666242 -0.484053
vn 0.001096 -0.999309 -0.037150
vn 0.001150 0.998905 -0.046767
vn 0.006790 0.846754 -0.531941
vn 0.006790 -0.846759 -0.531934
vn 0.000000 1.000000 0.000003
vn 0.000000 0.809017 -0.587785
vn 0.000000 0.809016 0.587787
vn -0.000000 0.309014 0.951057
vn 0.000000 -0.309015 0.951057
vn -0.000000 -0.809017 0.587785
vn -0.000000 -1.000000 -0.000001
vn -0.000000 -0.809016 -0.587787
vn -0.000000 0.309021 -0.951055
vn 0.000000 -0.309019 -0.951056
vn 0.000000 -0.415658 -0.909521
vn 0.000000 0.415658 -0.909521
vn 0.000000 -1.000000 0.000000
vn 1.000000 0.000000 -0.000000
vn 0.000000 1.000000 -0.000000
vn -0.000001 0.766587 0.642141
vn -0.000001 -0.766587 0.642141
vn -1.000000 0.000000 0.000000
vn -0.000000 0.000000 1.000000
vn 0.173780 0.739736 -0.650070
vn 0.173780 -0.739740 -0.650066
vn 0.229303 0.942044 -0.244894
vn 0.229840 -0.944257 -0.235694
usemtl sword_blade_textu.002
s off
f 1/1/1 2/2/1 3/3/1
f 1/4/2 4/5/2 2/6/2
f 1/4/3 5/7/3 4/5/3
f 1/4/4 6/8/4 5/7/4
f 1/4/5 7/9/5 6/8/5
f 1/4/6 8/10/6 7/9/6
f 1/1/7 9/11/7 8/12/7
f 1/1/8 10/13/8 9/11/8
f 1/1/9 11/14/9 10/13/9
f 1/1/10 3/3/10 11/14/10
f 13/15/11 16/16/11 17/17/11 14/18/11
f 18/16/12 12/15/12 15/18/12 19/19/12
f 20/20/13 18/16/13 19/19/13 21/21/13
f 16/16/14 20/20/14 21/22/14 17/17/14
f 22/23/15 23/24/15 24/25/15 25/26/15
f 26/27/16 27/28/16 23/24/16 22/23/16
f 24/25/17 28/29/17 29/30/17 25/26/17
f 28/29/18 30/31/18 31/32/18 29/30/18
f 30/33/19 32/34/19 33/35/19 31/36/19
f 32/34/20 34/37/20 35/38/20 33/35/20
f 35/38/21 34/37/21 36/39/21 37/40/21
f 37/40/22 36/39/22 38/41/22 39/42/22
f 40/43/23 41/44/23 27/28/23 26/27/23
f 39/42/24 38/41/24 41/45/24 40/46/24
f 42/47/25 43/48/25 44/49/25 45/50/25
f 42/51/26 46/52/26 47/53/26 43/48/26
f 48/54/27 49/55/27 45/50/27 44/49/27
f 50/56/28 48/54/28 44/49/28 43/48/28
f 43/48/28 47/53/28 51/57/28 50/58/28
f 46/52/29 52/59/29 51/57/29 47/53/29
f 51/57/30 52/59/30 53/60/30 50/58/30
f 50/56/31 53/61/31 49/55/31 48/54/31
f 52/59/32 46/52/32 42/51/32 53/60/32
f 42/47/32 45/50/32 49/55/32 53/61/32
f 12/15/33 55/62/33 54/63/33 15/18/33
f 55/62/33 13/15/33 14/18/33 54/64/33
f 19/19/34 56/65/34 21/21/34
f 56/65/35 17/17/35 21/22/35
f 15/18/36 54/63/36 56/65/36 19/19/36
f 14/18/37 17/17/37 56/65/37 54/64/37
