# Blender v2.55 (sub 0) OBJ File: 'weapons.blend'
# www.blender.org
o Mesh.009_longbow_ready
v -26.024040 -0.023047 -16.306313
v -25.860157 -0.229876 -15.948091
v -25.860157 0.183780 -15.948091
v -3.841376 0.507288 -0.449156
v 3.826674 0.507288 -0.449158
v 3.789250 -0.023044 -0.665490
v -3.803952 -0.023043 -0.665490
v 3.826674 -0.553372 -0.449158
v -3.841376 -0.553372 -0.653553
v 3.917023 -0.773043 0.073116
v -3.931726 -0.773042 0.073116
v 4.007373 -0.553372 0.595390
v -4.022076 -0.553373 0.595388
v 4.044798 -0.023042 0.811721
v -4.059500 -0.023042 0.811721
v 4.007373 0.507289 0.595388
v -4.022076 0.507287 0.595390
v 3.917023 0.726957 0.073114
v -3.931726 0.726958 0.073116
v -10.734795 0.507288 -3.634306
v -11.042519 0.726957 -3.300644
v -11.376150 0.507288 -2.919552
v -11.373642 -0.023043 -2.929089
v -11.376150 -0.553373 -2.919552
v -11.042519 -0.773043 -3.300644
v -10.734795 -0.553372 -3.634306
v -10.734795 -0.023042 -3.634306
v 11.039583 0.726959 -3.309906
v 10.731857 0.507288 -3.643566
v 11.347313 0.507290 -2.976244
v 11.347313 -0.023041 -2.976244
v 11.347313 -0.553372 -2.976244
v 11.039585 -0.773041 -3.309904
v 10.731857 -0.553374 -3.643566
v 11.014410 -0.023042 -3.022774
v -16.335882 -0.773042 -9.204337
v -16.000797 -0.553372 -9.509391
v -16.700829 -0.553374 -8.854333
v -16.335882 0.726957 -9.204336
v -16.700830 0.507286 -8.854332
v -16.000795 0.507288 -9.509390
v 15.932867 -0.553378 -9.581571
v 16.267954 -0.773045 -9.276517
v 16.603039 -0.553376 -8.971463
v 16.603039 0.507286 -8.971462
v 16.267954 0.726954 -9.276518
v 15.932866 0.507284 -9.581570
v -22.867653 0.507282 -13.665977
v -22.867651 -0.553378 -13.665978
v -22.289856 -0.553378 -14.434987
v -22.289856 0.507282 -14.434987
v -22.567879 0.726953 -14.075257
v -22.567879 -0.773047 -14.075259
v 22.155375 0.507280 -14.586814
v 22.155375 -0.553382 -14.586814
v 22.711426 -0.553382 -13.867358
v 22.711426 0.507280 -13.867358
v 22.433395 0.726949 -14.227088
v 22.433399 -0.773051 -14.227084
v -26.053654 -0.773045 -15.922973
v -25.841137 -0.553374 -16.326443
v -26.279144 -0.553376 -15.466849
v -26.053650 0.726955 -15.922971
v -26.279148 0.507285 -15.466847
v -25.841137 0.507285 -16.326443
v -26.053650 -0.023045 -15.922971
v 25.678471 -0.553387 -16.522610
v 25.890985 -0.773059 -16.119133
v 26.103506 -0.553387 -15.715663
v 26.103508 0.507274 -15.715663
v 25.890985 0.726941 -16.119137
v 25.678471 0.507272 -16.522610
v 25.890985 -0.023059 -16.119137
v 25.726900 -0.229878 -15.948091
v 25.890785 -0.023049 -16.306313
v 25.726902 0.183780 -15.948091
v -0.066628 -0.023049 -28.623276
v -0.066628 -0.229878 -28.228024
v -0.066628 0.183778 -28.228024
vt 0.886545 0.327209
vt 0.886503 0.267105
vt 0.899560 0.267139
vt 0.899265 0.327338
vt 0.912547 0.267050
vt 0.912648 0.327830
vt 0.925629 0.266770
vt 0.925807 0.327465
vt 0.939311 0.266724
vt 0.939729 0.327674
vt 0.953386 0.267044
vt 0.954141 0.327596
vt 0.967815 0.267010
vt 0.968163 0.327861
vt 0.859967 0.327540
vt 0.859482 0.266828
vt 0.873539 0.267055
vt 0.873479 0.327489
vt 0.890467 0.387562
vt 0.875420 0.389540
vt 0.860361 0.390833
vt 0.969338 0.390552
vt 0.955050 0.390383
vt 0.940766 0.390729
vt 0.926127 0.389508
vt 0.911280 0.387611
vt 0.901023 0.386864
vt 0.874353 0.204306
vt 0.889269 0.205865
vt 0.859412 0.202644
vt 0.954828 0.203246
vt 0.969396 0.203075
vt 0.940291 0.202844
vt 0.925371 0.204475
vt 0.910366 0.206021
vt 0.899822 0.206663
vt 0.922318 0.458119
vt 0.907709 0.456692
vt 0.937018 0.459164
vt 0.878492 0.458023
vt 0.863905 0.458992
vt 0.893086 0.456651
vt 0.907026 0.135042
vt 0.921701 0.134044
vt 0.936770 0.132632
vt 0.862694 0.132635
vt 0.877664 0.134060
vt 0.892281 0.135066
vt 0.956485 0.202544
vt 0.952546 0.132388
vt 0.955743 0.391008
vt 0.952283 0.459311
vt 0.949689 0.524108
vt 0.932049 0.523918
vt 0.906820 0.521408
vt 0.889482 0.521152
vt 0.876824 0.521815
vt 0.863766 0.522528
vt 0.919385 0.522637
vt 0.889176 0.069870
vt 0.906887 0.069369
vt 0.932101 0.066946
vt 0.949613 0.066715
vt 0.876349 0.069261
vt 0.863515 0.068437
vt 0.919618 0.068266
vt 0.919425 0.573098
vt 0.907836 0.573125
vt 0.931312 0.572890
vt 0.871862 0.572802
vt 0.859412 0.572386
vt 0.883531 0.573003
vt 0.954220 0.572177
vt 0.878851 0.581854
vt 0.864329 0.581442
vt 0.926210 0.581448
vt 0.912085 0.581977
vt 0.895592 0.579091
vt 0.943363 0.578870
vt 0.908376 0.016815
vt 0.920120 0.016948
vt 0.931180 0.017055
vt 0.859764 0.017150
vt 0.871515 0.016893
vt 0.883484 0.016644
vt 0.953591 0.017509
vt 0.878580 0.007580
vt 0.863416 0.008071
vt 0.927433 0.008558
vt 0.912927 0.007882
vt 0.942727 0.011725
vt 0.896059 0.010556
vt 0.682177 0.923225
vt 0.691127 0.954389
vt 0.698090 0.921018
vt 0.682177 0.664512
vt 0.666263 0.666717
vt 0.666263 0.796074
vt 0.682177 0.793868
vt 0.666263 0.925431
vt 0.698090 0.662305
vt 0.698090 0.791662
vt 0.714003 0.660099
vt 0.714003 0.789456
vt 0.714003 0.918813
vt 0.689139 0.631141
vn -0.000000 0.377703 -0.925927
vn 0.013092 -0.210378 -0.977532
vn 0.004371 -0.943328 -0.331834
vn -0.000000 -0.921783 0.387705
vn -0.000000 -0.377704 0.925927
vn 0.000000 0.377705 0.925926
vn 0.000000 0.921784 0.387704
vn -0.000000 0.921783 -0.387705
vn 0.178967 0.906617 -0.382121
vn -0.173252 0.915225 0.363794
vn -0.435638 0.186046 0.880685
vn -0.435638 -0.186047 0.880685
vn -0.173252 -0.915226 0.363794
vn 0.149728 -0.932040 -0.329974
vn 0.395199 -0.024278 -0.918275
vn 0.398732 0.196759 -0.895711
vn -0.179136 0.906616 -0.382044
vn 0.182874 0.906605 0.380294
vn 0.440526 0.194307 0.876459
vn 0.440527 -0.194306 0.876460
vn 0.182875 -0.906604 0.380297
vn -0.179134 -0.906618 -0.382041
vn -0.334783 0.402302 -0.852100
vn -0.334783 -0.402302 -0.852100
vn 0.325184 -0.899595 -0.291519
vn -0.297391 -0.916740 0.266733
vn -0.297392 0.916739 0.266734
vn 0.325182 0.899597 -0.291518
vn -0.328662 -0.899487 -0.287933
vn 0.328598 -0.899487 0.288005
vn 0.328597 0.899488 0.288002
vn -0.328666 0.899483 -0.287938
vn 0.751960 -0.000000 0.659208
vn -0.752247 -0.000000 -0.658882
vn -0.744330 -0.000001 0.667812
vn 0.744652 -0.000000 -0.667453
vn -0.615153 -0.000002 0.788408
vn 0.616597 -0.000000 -0.787279
vn 0.269984 0.898908 -0.345071
vn -0.246011 0.916646 0.315023
vn -0.246008 -0.916647 0.315022
vn 0.269985 -0.898908 -0.345070
vn -0.626773 0.000000 -0.779202
vn 0.625410 -0.000000 0.780296
vn -0.274250 0.899075 -0.341248
vn 0.273963 0.899068 0.341499
vn 0.273964 -0.899066 0.341503
vn -0.274248 -0.899078 -0.341244
vn 0.205078 -0.899435 -0.385954
vn -0.186428 -0.917084 0.352422
vn -0.186427 0.917084 0.352422
vn 0.205079 0.899435 -0.385953
vn 0.470093 0.000000 -0.882617
vn -0.466832 -0.000003 0.884346
vn -0.884774 0.000000 -0.466020
vn -0.896433 0.000000 -0.443179
vn -0.896438 0.000006 -0.443169
vn -0.884771 0.000006 -0.466026
vn -0.896434 -0.000002 -0.443176
vn -0.209968 -0.899609 -0.382907
vn 0.209314 -0.899586 0.383317
vn 0.209313 0.899590 0.383310
vn -0.209966 0.899608 -0.382910
vn 0.478469 -0.000000 0.878105
vn -0.481555 0.000000 -0.876416
vn 0.884773 0.000000 -0.466022
vn 0.884767 0.000000 -0.466035
vn 0.884767 -0.000002 -0.466034
vn 0.884774 -0.000002 -0.466020
vn 0.884767 -0.000002 -0.466033
vn 0.909354 -0.000004 0.416023
vn -0.207136 -0.875881 -0.435807
vn 0.207136 -0.875881 -0.435806
vn 0.429857 0.000000 0.902897
vn -0.429857 0.000001 0.902897
vn -0.207135 0.875883 -0.435804
vn 0.207135 0.875882 -0.435805
vn -0.909355 0.000000 0.416021
usemtl (null).006
s off
f 4/1/1 5/2/1 6/3/1 7/4/1
f 7/4/2 6/3/2 8/5/2 9/6/2
f 9/6/3 8/5/3 10/7/3 11/8/3
f 11/8/4 10/7/4 12/9/4 13/10/4
f 13/10/5 12/9/5 14/11/5 15/12/5
f 15/12/6 14/11/6 16/13/6 17/14/6
f 17/15/7 16/16/7 18/17/7 19/18/7
f 5/2/8 4/1/8 19/18/8 18/17/8
f 19/18/9 4/1/9 20/19/9 21/20/9
f 17/15/10 19/18/10 21/20/10 22/21/10
f 15/12/11 17/14/11 22/22/11 23/23/11
f 13/10/12 15/12/12 23/23/12 24/24/12
f 11/8/13 13/10/13 24/24/13 25/25/13
f 9/6/14 11/8/14 25/25/14 26/26/14
f 7/4/15 9/6/15 26/26/15 27/27/15
f 4/1/16 7/4/16 27/27/16 20/19/16
f 5/2/17 18/17/17 28/28/17 29/29/17
f 18/17/18 16/16/18 30/30/18 28/28/18
f 16/13/19 14/11/19 31/31/19 30/32/19
f 14/11/20 12/9/20 32/33/20 31/31/20
f 12/9/21 10/7/21 33/34/21 32/33/21
f 10/7/22 8/5/22 34/35/22 33/34/22
f 8/5/23 6/3/23 35/36/23 34/35/23
f 6/3/24 5/2/24 29/29/24 35/36/24
f 26/26/25 25/25/25 36/37/25 37/38/25
f 25/25/26 24/24/26 38/39/26 36/37/26
f 22/21/27 21/20/27 39/40/27 40/41/27
f 21/20/28 20/19/28 41/42/28 39/40/28
f 33/34/29 34/35/29 42/43/29 43/44/29
f 32/33/30 33/34/30 43/44/30 44/45/30
f 28/28/31 30/30/31 45/46/31 46/47/31
f 29/29/32 28/28/32 46/47/32 47/48/32
f 30/49/33 32/33/33 44/45/33 45/50/33
f 34/35/34 29/29/34 47/48/34 42/43/34
f 22/51/35 40/52/35 38/39/35 24/24/35
f 26/26/36 37/38/36 41/42/36 20/19/36
f 38/39/37 40/52/37 48/53/37 49/54/37
f 41/42/38 37/38/38 50/55/38 51/56/38
f 39/40/39 41/42/39 51/56/39 52/57/39
f 40/41/40 39/40/40 52/57/40 48/58/40
f 36/37/41 38/39/41 49/54/41 53/59/41
f 37/38/42 36/37/42 53/59/42 50/55/42
f 42/43/43 47/48/43 54/60/43 55/61/43
f 45/50/44 44/45/44 56/62/44 57/63/44
f 47/48/45 46/47/45 58/64/45 54/60/45
f 46/47/46 45/46/46 57/65/46 58/64/46
f 44/45/47 43/44/47 59/66/47 56/62/47
f 43/44/48 42/43/48 55/61/48 59/66/48
f 50/55/49 53/59/49 60/67/49 61/68/49
f 53/59/50 49/54/50 62/69/50 60/67/50
f 48/58/51 52/57/51 63/70/51 64/71/51
f 52/57/52 51/56/52 65/72/52 63/70/52
f 51/56/53 50/55/53 61/68/53 65/72/53
f 49/54/54 48/53/54 64/73/54 62/69/54
f 63/70/55 65/72/55 66/74/55
f 66/75/56 64/71/56 63/70/56
f 66/76/57 60/67/57 62/69/57
f 66/77/58 61/68/58 60/67/58
f 65/72/55 61/68/55 66/78/55
f 62/69/59 64/73/59 66/79/59
f 59/66/60 55/61/60 67/80/60 68/81/60
f 56/62/61 59/66/61 68/81/61 69/82/61
f 58/64/62 57/65/62 70/83/62 71/84/62
f 54/60/63 58/64/63 71/84/63 72/85/63
f 57/63/64 56/62/64 69/82/64 70/86/64
f 55/61/65 54/60/65 72/85/65 67/80/65
f 73/87/66 72/85/66 71/84/66
f 73/88/67 71/84/67 70/83/67
f 73/89/68 69/82/68 68/81/68
f 73/90/69 68/81/69 67/80/69
f 69/82/70 73/91/70 70/86/70
f 72/85/66 73/92/66 67/80/66
f 74/93/71 75/94/71 76/95/71
f 2/96/72 1/97/72 77/98/72 78/99/72
f 78/99/73 77/98/73 75/100/73 74/93/73
f 3/101/74 2/96/74 78/99/74 79/102/74
f 79/102/75 78/99/75 74/93/75 76/95/75
f 1/103/76 3/101/76 79/102/76 77/104/76
f 77/104/77 79/102/77 76/95/77 75/105/77
usemtl None_texture_weap.002
f 1/106/78 2/96/78 3/101/78
