# Blender v2.55 (sub 0) OBJ File: 'weapons.blend'
# www.blender.org
o Mesh.013_Mesh.sabre
v -39.269356 0.174232 -1.238970
v -35.711807 -0.046227 -0.053023
v -40.081802 -0.046227 -1.293887
v -35.680679 0.128960 -0.327843
v -39.269356 -0.273121 -1.238970
v -35.680679 -0.221416 -0.327843
v 3.364545 -0.046229 0.047163
v 2.587942 -0.046229 -0.515336
v 2.587942 0.284400 -0.407908
v 2.587942 -0.376858 -0.407907
v 2.587942 -0.581199 -0.126657
v 2.587942 -0.581198 0.220987
v 2.587942 -0.376858 0.502236
v 2.587942 -0.046229 0.609664
v 2.587942 0.284400 0.502236
v 2.587942 0.488740 0.220986
v 2.587942 0.488740 -0.126658
v -3.444822 -0.273122 -0.428079
v -3.444822 0.174230 -0.428079
v -12.438448 0.174231 -0.306882
v -12.438448 -0.273122 -0.306882
v -21.407833 0.174231 -0.313166
v -21.407833 -0.273121 -0.313166
v -30.359856 0.174232 -0.579815
v -30.359856 -0.273121 -0.579815
v -3.444822 0.170401 0.395494
v -11.501423 0.160040 0.464783
v -19.568930 0.149681 0.431626
v -27.635044 0.139320 0.199532
v -3.444822 -0.262860 0.395494
v -11.501423 -0.252499 0.464783
v -19.568930 -0.242138 0.431626
v -27.635044 -0.231775 0.199532
v -3.444822 -0.046227 0.736630
v -11.494087 -0.046227 0.789553
v -19.568930 -0.046226 0.740130
v -27.648247 -0.046226 0.491541
v 2.587942 0.488740 -0.126658
v -2.848285 0.488742 -0.126657
v -2.848285 0.488740 0.220988
v 2.587942 0.488740 0.220987
v 2.587942 0.284400 -0.407908
v -2.848285 0.284402 -0.407907
v -2.848285 0.284400 0.502236
v 2.587942 0.284400 0.502236
v -2.848285 -0.046230 0.609663
v 2.587942 -0.046229 0.609663
v -2.848285 -0.376859 0.502236
v 2.587942 -0.376858 0.502236
v -2.848285 -0.581198 0.220985
v 2.587942 -0.581199 0.220986
v -2.848285 -0.581197 -0.126660
v 2.587942 -0.581199 -0.126658
v -2.848285 -0.376857 -0.407909
v 2.587942 -0.376858 -0.407908
v 2.587942 -0.046229 -0.515337
v -2.848285 -0.046228 -0.515337
v -3.441566 -0.046229 -1.939330
v -2.848285 -0.046229 -1.939330
v -2.848285 -0.889979 -1.066786
v -3.441566 -0.889979 -1.066786
v -3.441566 0.797521 -1.066786
v -2.848285 0.797521 -1.066786
v -2.848285 -0.889979 1.161113
v -3.441566 -0.889979 1.161113
v -2.848285 -0.046229 2.033658
v -2.848285 0.797521 1.161113
v -3.441566 0.797521 1.161113
v -3.441566 -0.046229 2.033656
vt 0.762632 0.949687
vt 0.748376 0.886389
vt 0.748376 0.979406
vt 0.762632 0.886199
vt 0.748376 0.886513
vt 0.762632 0.949798
vt 0.748376 0.978777
vt 0.762632 0.886640
vt 0.325705 0.355462
vt 0.315343 0.347773
vt 0.318857 0.344526
vt 0.328972 0.326105
vt 0.319965 0.340489
vt 0.315343 0.336218
vt 0.325826 0.342782
vt 0.332119 0.342782
vt 0.337980 0.340489
vt 0.342602 0.336218
vt 0.332554 0.344526
vt 0.336068 0.347773
vt 0.328098 0.342782
vt 0.323313 0.342782
vt 0.778002 0.959027
vt 0.769176 0.950557
vt 0.761499 0.975733
vt 0.834347 0.875189
vt 0.801980 0.875189
vt 0.801763 0.809463
vt 0.834130 0.809463
vt 0.801871 0.725289
vt 0.834238 0.725289
vt 0.802178 0.635501
vt 0.834546 0.635501
vt 0.796497 0.892133
vt 0.796497 0.945955
vt 0.781990 0.946105
vt 0.781990 0.892283
vt 0.783000 0.882201
vt 0.764667 0.882379
vt 0.766024 0.752266
vt 0.784357 0.752266
vt 0.762632 0.623129
vt 0.780966 0.623129
vt 0.762632 0.761747
vt 0.780966 0.761747
vt 0.764667 0.882625
vt 0.783000 0.882598
vt 0.750411 0.883153
vt 0.751767 0.752266
vt 0.748376 0.623129
vt 0.748376 0.761747
vt 0.750411 0.882732
vt 0.353193 0.228770
vt 0.353193 0.325487
vt 0.340541 0.326105
vt 0.340541 0.229388
vt 0.365845 0.228153
vt 0.365845 0.324870
vt 0.327942 0.325291
vt 0.327942 0.228574
vt 0.315343 0.324477
vt 0.315343 0.227760
vt 0.378497 0.227311
vt 0.365897 0.226497
vt 0.365897 0.129780
vt 0.378496 0.130593
vt 0.353298 0.225683
vt 0.353298 0.128966
vt 0.340646 0.226300
vt 0.340646 0.129583
vt 0.327995 0.226918
vt 0.327995 0.130201
vt 0.378497 0.227535
vt 0.378497 0.324253
vt 0.315343 0.227535
vt 0.315343 0.130818
vt 0.320959 0.128966
vt 0.315343 0.070361
vt 0.341403 0.088828
vt 0.338587 0.114503
vt 0.316347 0.013734
vt 0.334636 0.026666
vt 0.339182 0.053893
vt 0.425997 0.084823
vt 0.423180 0.110499
vt 0.443624 0.070361
vt 0.428179 0.049829
vt 0.462207 0.070361
vt 0.427472 0.021475
vt 0.447193 0.000000
vt 0.449241 0.128966
vn 0.216740 -0.608601 -0.763301
vn 0.122302 -0.843134 -0.523610
vn 0.219020 0.597560 -0.771331
vn 0.120847 0.843206 -0.523832
vn 0.567287 0.254482 -0.783214
vn 0.567287 -0.254484 -0.783213
vn 0.567287 -0.666241 -0.484054
vn 0.567288 -0.823519 0.000002
vn 0.567289 -0.666240 0.484053
vn 0.567289 -0.254482 0.783213
vn 0.567289 0.254482 0.783213
vn 0.567289 0.666241 0.484053
vn 0.567288 0.823519 0.000000
vn 0.567288 0.666241 -0.484053
vn -0.067441 0.000000 0.997723
vn 0.013475 -0.000000 0.999909
vn -0.000701 0.000000 1.000000
vn -0.029773 0.000000 0.999557
vn -0.073782 0.000000 0.997274
vn 0.000478 -0.999933 -0.011576
vn 0.000670 -0.999642 -0.026763
vn 0.001919 -0.998998 -0.044719
vn 0.005309 -0.997729 -0.067154
vn 0.000389 0.999808 -0.019586
vn 0.000689 0.999377 -0.035272
vn 0.002189 0.998542 -0.053940
vn 0.006024 0.996984 -0.077375
vn -0.003525 0.844164 -0.536073
vn 0.003285 0.844128 -0.536131
vn 0.016495 0.844146 -0.535859
vn 0.036113 0.844368 -0.534545
vn -0.003525 -0.844169 -0.536066
vn 0.003284 -0.844133 -0.536124
vn 0.016495 -0.844150 -0.535853
vn 0.036112 -0.844372 -0.534539
vn 0.000000 1.000000 0.000003
vn 0.000000 0.809017 -0.587785
vn 0.000000 0.809016 0.587787
vn -0.000000 0.309014 0.951057
vn 0.000000 -0.309015 0.951057
vn -0.000000 -0.809018 0.587784
vn -0.000000 -1.000000 -0.000001
vn -0.000000 -0.809016 -0.587787
vn -0.000000 0.309021 -0.951055
vn 0.000000 -0.309019 -0.951056
vn -0.000000 -0.718869 -0.695146
vn 0.000000 0.718869 -0.695146
vn -0.000000 -1.000000 0.000000
vn 1.000000 0.000000 -0.000000
vn 0.000000 1.000000 -0.000000
vn -0.000001 0.718868 0.695146
vn -0.000001 -0.718868 0.695146
vn -1.000000 0.000000 0.000000
usemtl sword_blade_textu.003
s off
f 1/1/1 2/2/1 3/3/1
f 1/1/2 4/4/2 2/2/2
f 2/5/3 5/6/3 3/7/3
f 2/5/4 6/8/4 5/6/4
f 7/9/5 8/10/5 9/11/5
f 7/12/6 10/13/6 8/14/6
f 7/12/7 11/15/7 10/13/7
f 7/12/8 12/16/8 11/15/8
f 7/12/9 13/17/9 12/16/9
f 7/12/10 14/18/10 13/17/10
f 7/9/11 15/19/11 14/20/11
f 7/9/12 16/21/12 15/19/12
f 7/9/13 17/22/13 16/21/13
f 7/9/14 9/11/14 17/22/14
f 5/23/15 1/24/15 3/25/15
f 18/26/16 19/27/16 20/28/16 21/29/16
f 21/29/17 20/28/17 22/30/17 23/31/17
f 23/31/18 22/30/18 24/32/18 25/33/18
f 1/34/19 5/35/19 25/36/19 24/37/19
f 19/38/20 26/39/20 27/40/20 20/41/20
f 20/41/21 27/40/21 28/42/21 22/43/21
f 22/43/22 28/42/22 29/44/22 24/45/22
f 4/4/23 1/1/23 24/45/23 29/44/23
f 30/46/24 18/47/24 21/41/24 31/40/24
f 31/40/25 21/41/25 23/43/25 32/42/25
f 32/42/26 23/43/26 25/45/26 33/44/26
f 33/44/27 25/45/27 5/6/27 6/8/27
f 34/48/28 30/46/28 31/40/28 35/49/28
f 35/49/29 31/40/29 32/42/29 36/50/29
f 36/50/30 32/42/30 33/44/30 37/51/30
f 37/51/31 33/44/31 6/8/31 2/5/31
f 26/39/32 34/52/32 35/49/32 27/40/32
f 27/40/33 35/49/33 36/50/33 28/42/33
f 28/42/34 36/50/34 37/51/34 29/44/34
f 29/44/35 37/51/35 2/2/35 4/4/35
f 38/53/36 39/54/36 40/55/36 41/56/36
f 42/57/37 43/58/37 39/54/37 38/53/37
f 40/55/38 44/59/38 45/60/38 41/56/38
f 44/59/39 46/61/39 47/62/39 45/60/39
f 46/63/40 48/64/40 49/65/40 47/66/40
f 48/64/41 50/67/41 51/68/41 49/65/41
f 51/68/42 50/67/42 52/69/42 53/70/42
f 53/70/43 52/69/43 54/71/43 55/72/43
f 56/73/44 57/74/44 43/58/44 42/57/44
f 55/72/45 54/71/45 57/75/45 56/76/45
f 58/77/46 59/78/46 60/79/46 61/80/46
f 58/81/47 62/82/47 63/83/47 59/78/47
f 64/84/48 65/85/48 61/80/48 60/79/48
f 66/86/49 64/84/49 60/79/49 59/78/49
f 59/78/49 63/83/49 67/87/49 66/88/49
f 62/82/50 68/89/50 67/87/50 63/83/50
f 67/87/51 68/89/51 69/90/51 66/88/51
f 66/86/52 69/91/52 65/85/52 64/84/52
f 68/89/53 62/82/53 58/81/53 69/90/53
f 58/77/53 61/80/53 65/85/53 69/91/53
