# Blender v2.55 (sub 0) OBJ File: 'spear.blend'
# www.blender.org
o Circle
v -1.455855 -5.479775 2.438011
v 1.455858 -5.479773 2.438011
v 3.977476 -4.023914 2.438011
v 5.433331 -1.502296 2.438012
v 5.433330 1.409418 2.438012
v 3.977472 3.931036 2.438012
v 1.455853 5.386892 2.438012
v -1.455860 5.386891 2.438012
v -3.977478 3.931034 2.438011
v -5.433335 1.409416 2.438011
v -5.433335 -1.502298 2.438010
v -3.977478 -4.023917 2.438010
v -2.319404 -2.365842 2.906761
v -3.168363 -0.895401 2.906761
v -3.168364 0.802519 2.906761
v -2.319404 2.272960 2.906761
v -0.848962 3.121920 2.906761
v 0.848957 3.121920 2.906761
v 2.319398 2.272961 2.906762
v 3.168359 0.802520 2.906762
v 3.168359 -0.895399 2.906761
v 2.319400 -2.365841 2.906761
v 0.848960 -3.214801 2.906761
v -0.848959 -3.214803 2.906761
v -0.150365 -0.607605 3.094261
v 0.150362 -0.607605 3.094261
v 0.410799 -0.457241 3.094261
v 0.561162 -0.196804 3.094261
v 0.561162 0.103923 3.094261
v 0.410798 0.364360 3.094261
v 0.150361 0.514723 3.094261
v -0.150365 0.514723 3.094261
v -0.410803 0.364360 3.094261
v -0.561166 0.103923 3.094261
v -0.561166 -0.196804 3.094261
v -0.410803 -0.457241 3.094261
v -0.410803 -0.457241 3.281761
v -0.561166 -0.196804 3.281761
v -0.561166 0.103923 3.281761
v -0.410803 0.364360 3.281761
v -0.150365 0.514723 3.281761
v 0.150361 0.514723 3.281761
v 0.410798 0.364360 3.281761
v 0.561162 0.103923 3.281761
v 0.561162 -0.196804 3.281761
v 0.410799 -0.457241 3.281761
v 0.150362 -0.607605 3.281761
v -0.150365 -0.607605 3.281761
v -0.085666 -0.366143 3.406636
v 0.085662 -0.366143 3.406636
v 0.234036 -0.280479 3.406636
v 0.319700 -0.132104 3.406636
v 0.319700 0.039223 3.406636
v 0.234036 0.187597 3.406636
v 0.085662 0.273261 3.406636
v -0.085666 0.273261 3.406636
v -0.234040 0.187597 3.406636
v -0.319704 0.039223 3.406636
v -0.319704 -0.132105 3.406636
v -0.234040 -0.280479 3.406636
v -0.000002 -0.046441 3.500386
v -0.000002 -0.046441 2.719261
v -0.848959 -3.214803 2.531761
v 0.848960 -3.214801 2.531761
v 2.319400 -2.365841 2.531761
v 3.168359 -0.895399 2.531761
v 3.168359 0.802520 2.531762
v 2.319398 2.272960 2.531762
v 0.848957 3.121920 2.531761
v -0.848962 3.121920 2.531761
v -2.319404 2.272960 2.531761
v -3.168364 0.802519 2.531761
v -3.168363 -0.895401 2.531761
v -2.319404 -2.365842 2.531761
v -3.977478 -4.023917 2.063010
v -5.433335 -1.502298 2.063010
v -5.433335 1.409416 2.063011
v -3.977478 3.931034 2.063011
v -1.455860 5.386892 2.063011
v 1.455853 5.386892 2.063012
v 3.977472 3.931036 2.063012
v 5.433330 1.409418 2.063012
v 5.433331 -1.502295 2.063011
v 3.977476 -4.023914 2.063011
v 1.455858 -5.479773 2.063011
v -1.455855 -5.479775 2.063010
vt 0.335740 0.924939
vt 0.317766 0.963963
vt 0.291382 0.941197
vt 0.301860 0.918631
vt 0.331703 0.882565
vt 0.299539 0.894062
vt 0.307138 0.848242
vt 0.285275 0.874158
vt 0.268943 0.831005
vt 0.263064 0.864137
vt 0.227568 0.835235
vt 0.239003 0.866566
vt 0.194298 0.859516
vt 0.219473 0.880591
vt 0.177720 0.896736
vt 0.209560 0.902073
vt 0.180274 0.937157
vt 0.211207 0.925686
vt 0.202724 0.971545
vt 0.224406 0.945724
vt 0.239919 0.990698
vt 0.246112 0.956778
vt 0.282351 0.988714
vt 0.270819 0.955477
vt 0.257971 0.919830
vt 0.262454 0.917253
vt 0.252927 0.919911
vt 0.248519 0.917446
vt 0.245857 0.913132
vt 0.245744 0.908104
vt 0.248083 0.903646
vt 0.252435 0.900838
vt 0.257596 0.900683
vt 0.262160 0.903116
vt 0.264833 0.907546
vt 0.264962 0.912728
vt 0.260435 0.915254
vt 0.262181 0.912038
vt 0.262063 0.908340
vt 0.260183 0.905172
vt 0.256924 0.903477
vt 0.253249 0.903563
vt 0.250176 0.905571
vt 0.248457 0.908776
vt 0.248540 0.912366
vt 0.250480 0.915424
vt 0.253631 0.917201
vt 0.257252 0.917085
vt 0.256376 0.913991
vt 0.258094 0.912982
vt 0.254400 0.914069
vt 0.252682 0.913097
vt 0.251628 0.911428
vt 0.251594 0.909450
vt 0.252542 0.907737
vt 0.254205 0.906667
vt 0.256184 0.906631
vt 0.257944 0.907541
vt 0.258953 0.909246
vt 0.259032 0.911217
vt 0.255303 0.910338
vt 0.341924 0.926055
vt 0.322587 0.968079
vt 0.337557 0.880444
vt 0.311105 0.843506
vt 0.269991 0.824961
vt 0.225436 0.829495
vt 0.189665 0.855693
vt 0.171885 0.895620
vt 0.174569 0.938980
vt 0.198587 0.976021
vt 0.238523 0.996751
vt 0.284340 0.994773
vt 0.094382 0.892443
vt 0.088434 0.929011
vt 0.047082 0.910360
vt 0.070502 0.881632
vt 0.020567 0.873521
vt 0.055221 0.860335
vt 0.016016 0.828343
vt 0.052632 0.834248
vt 0.034671 0.786928
vt 0.063435 0.810358
vt 0.071550 0.760385
vt 0.084740 0.795071
vt 0.116785 0.755854
vt 0.110833 0.792498
vt 0.158250 0.774611
vt 0.134689 0.803341
vt 0.184750 0.811599
vt 0.149993 0.824610
vt 0.189157 0.856819
vt 0.152582 0.850697
vt 0.170383 0.898140
vt 0.141777 0.874584
vt 0.133533 0.924533
vt 0.120480 0.889888
vt 0.102605 0.842475
vn -0.175510 -0.101331 0.979249
vn -0.202662 -0.000000 0.979249
vn -0.175510 0.101331 0.979249
vn -0.101331 0.175510 0.979249
vn -0.000000 0.202662 0.979249
vn 0.101331 0.175510 0.979249
vn 0.175510 0.101331 0.979249
vn 0.202662 -0.000000 0.979249
vn 0.175510 -0.101331 0.979249
vn 0.101331 -0.175510 0.979249
vn 0.000000 -0.202662 0.979249
vn -0.101331 -0.175510 0.979249
vn -0.035866 -0.062121 0.997424
vn -0.000000 -0.071731 0.997424
vn 0.035866 -0.062121 0.997424
vn 0.062121 -0.035866 0.997424
vn 0.071731 -0.000000 0.997424
vn 0.062121 0.035865 0.997424
vn 0.035865 0.062121 0.997424
vn -0.000000 0.071731 0.997424
vn -0.035866 0.062121 0.997424
vn -0.062121 0.035866 0.997424
vn -0.071731 -0.000000 0.997424
vn -0.062121 -0.035866 0.997424
vn -0.866026 -0.500000 -0.000000
vn -1.000000 0.000000 -0.000000
vn -0.866026 0.500000 0.000000
vn -0.500000 0.866026 0.000000
vn -0.000001 1.000000 -0.000000
vn 0.500000 0.866025 0.000000
vn 0.866025 0.500000 0.000000
vn 1.000000 0.000001 0.000000
vn 0.866025 -0.500000 -0.000000
vn 0.500001 -0.866024 0.000000
vn 0.000000 -1.000000 -0.000000
vn -0.500000 -0.866026 -0.000000
vn -0.229684 -0.397824 0.888246
vn 0.000000 -0.459367 0.888246
vn 0.229684 -0.397823 0.888246
vn 0.397824 -0.229684 0.888246
vn 0.459367 0.000000 0.888246
vn 0.397824 0.229684 0.888246
vn 0.229684 0.397823 0.888247
vn -0.000000 0.459367 0.888247
vn -0.229684 0.397823 0.888247
vn -0.397824 0.229683 0.888247
vn -0.459367 0.000000 0.888246
vn -0.397824 -0.229684 0.888246
vn -0.243693 -0.140696 0.959593
vn -0.281393 0.000000 0.959593
vn -0.243693 0.140696 0.959593
vn -0.140696 0.243693 0.959593
vn -0.000000 0.281393 0.959593
vn 0.140697 0.243693 0.959593
vn 0.243693 0.140697 0.959593
vn 0.281393 0.000000 0.959593
vn 0.243693 -0.140696 0.959593
vn 0.140697 -0.243693 0.959593
vn 0.000000 -0.281393 0.959593
vn -0.140696 -0.243693 0.959593
vn -0.866025 -0.500000 0.000000
vn -0.866025 0.500000 0.000000
vn -0.500000 0.866025 0.000001
vn -0.000000 1.000000 0.000001
vn 0.500000 0.866026 0.000000
vn 1.000000 0.000000 0.000000
vn 0.866026 -0.499999 0.000000
vn 0.500000 -0.866025 0.000000
vn 0.000001 -1.000000 0.000000
vn 0.175510 0.101331 -0.979249
vn 0.202662 0.000000 -0.979249
vn 0.175510 -0.101331 -0.979249
vn 0.101331 -0.175510 -0.979249
vn 0.000000 -0.202662 -0.979249
vn -0.101331 -0.175510 -0.979249
vn -0.175510 -0.101331 -0.979249
vn -0.202662 0.000000 -0.979249
vn -0.175510 0.101331 -0.979249
vn -0.101331 0.175510 -0.979249
vn 0.000000 0.202662 -0.979249
vn 0.101331 0.175510 -0.979249
vn 0.029538 0.051161 -0.998253
vn 0.000000 0.059076 -0.998254
vn -0.029538 0.051161 -0.998254
vn -0.051161 0.029538 -0.998254
vn -0.059075 0.000000 -0.998254
vn -0.051161 -0.029538 -0.998254
vn -0.029538 -0.051161 -0.998254
vn -0.000000 -0.059075 -0.998254
vn 0.029538 -0.051161 -0.998253
vn 0.051161 -0.029538 -0.998254
vn 0.059076 0.000000 -0.998254
vn 0.051161 0.029538 -0.998254
usemtl None_texture_shield.png
s off
f 11/1/1 12/2/1 13/3/1 14/4/1
f 10/5/2 11/1/2 14/4/2 15/6/2
f 9/7/3 10/5/3 15/6/3 16/8/3
f 8/9/4 9/7/4 16/8/4 17/10/4
f 7/11/5 8/9/5 17/10/5 18/12/5
f 6/13/6 7/11/6 18/12/6 19/14/6
f 5/15/7 6/13/7 19/14/7 20/16/7
f 4/17/8 5/15/8 20/16/8 21/18/8
f 3/19/9 4/17/9 21/18/9 22/20/9
f 2/21/10 3/19/10 22/20/10 23/22/10
f 1/23/11 2/21/11 23/22/11 24/24/11
f 12/2/12 1/23/12 24/24/12 13/3/12
f 13/3/13 24/24/13 25/25/13 36/26/13
f 24/24/14 23/22/14 26/27/14 25/25/14
f 23/22/15 22/20/15 27/28/15 26/27/15
f 22/20/16 21/18/16 28/29/16 27/28/16
f 21/18/17 20/16/17 29/30/17 28/29/17
f 20/16/18 19/14/18 30/31/18 29/30/18
f 19/14/19 18/12/19 31/32/19 30/31/19
f 18/12/20 17/10/20 32/33/20 31/32/20
f 17/10/21 16/8/21 33/34/21 32/33/21
f 16/8/22 15/6/22 34/35/22 33/34/22
f 15/6/23 14/4/23 35/36/23 34/35/23
f 14/4/24 13/3/24 36/26/24 35/36/24
f 35/36/25 36/26/25 37/37/25 38/38/25
f 34/35/26 35/36/26 38/38/26 39/39/26
f 33/34/27 34/35/27 39/39/27 40/40/27
f 32/33/28 33/34/28 40/40/28 41/41/28
f 31/32/29 32/33/29 41/41/29 42/42/29
f 30/31/30 31/32/30 42/42/30 43/43/30
f 29/30/31 30/31/31 43/43/31 44/44/31
f 28/29/32 29/30/32 44/44/32 45/45/32
f 27/28/33 28/29/33 45/45/33 46/46/33
f 26/27/34 27/28/34 46/46/34 47/47/34
f 25/25/35 26/27/35 47/47/35 48/48/35
f 36/26/36 25/25/36 48/48/36 37/37/36
f 37/37/37 48/48/37 49/49/37 60/50/37
f 48/48/38 47/47/38 50/51/38 49/49/38
f 47/47/39 46/46/39 51/52/39 50/51/39
f 46/46/40 45/45/40 52/53/40 51/52/40
f 45/45/41 44/44/41 53/54/41 52/53/41
f 44/44/42 43/43/42 54/55/42 53/54/42
f 43/43/43 42/42/43 55/56/43 54/55/43
f 42/42/44 41/41/44 56/57/44 55/56/44
f 41/41/45 40/40/45 57/58/45 56/57/45
f 40/40/46 39/39/46 58/59/46 57/58/46
f 39/39/47 38/38/47 59/60/47 58/59/47
f 38/38/48 37/37/48 60/50/48 59/60/48
f 59/60/49 60/50/49 61/61/49
f 58/59/50 59/60/50 61/61/50
f 57/58/51 58/59/51 61/61/51
f 56/57/52 57/58/52 61/61/52
f 55/56/53 56/57/53 61/61/53
f 54/55/54 55/56/54 61/61/54
f 53/54/55 54/55/55 61/61/55
f 52/53/56 53/54/56 61/61/56
f 51/52/57 52/53/57 61/61/57
f 50/51/58 51/52/58 61/61/58
f 49/49/59 50/51/59 61/61/59
f 60/50/60 49/49/60 61/61/60
f 12/2/61 11/1/61 76/62/61 75/63/61
f 11/1/26 10/5/26 77/64/26 76/62/26
f 10/5/62 9/7/62 78/65/62 77/64/62
f 9/7/63 8/9/63 79/66/63 78/65/63
f 8/9/64 7/11/64 80/67/64 79/66/64
f 7/11/65 6/13/65 81/68/65 80/67/65
f 6/13/31 5/15/31 82/69/31 81/68/31
f 5/15/66 4/17/66 83/70/66 82/69/66
f 4/17/67 3/19/67 84/71/67 83/70/67
f 3/19/68 2/21/68 85/72/68 84/71/68
f 2/21/69 1/23/69 86/73/69 85/72/69
f 1/23/36 12/2/36 75/63/36 86/73/36
f 74/74/70 75/75/70 76/76/70 73/77/70
f 73/77/71 76/76/71 77/78/71 72/79/71
f 72/79/72 77/78/72 78/80/72 71/81/72
f 71/81/73 78/80/73 79/82/73 70/83/73
f 70/83/74 79/82/74 80/84/74 69/85/74
f 69/85/75 80/84/75 81/86/75 68/87/75
f 68/87/76 81/86/76 82/88/76 67/89/76
f 67/89/77 82/88/77 83/90/77 66/91/77
f 66/91/78 83/90/78 84/92/78 65/93/78
f 65/93/79 84/92/79 85/94/79 64/95/79
f 64/95/80 85/94/80 86/96/80 63/97/80
f 63/97/81 86/96/81 75/75/81 74/74/81
f 62/98/82 63/97/82 74/74/82
f 62/98/83 64/95/83 63/97/83
f 62/98/84 65/93/84 64/95/84
f 62/98/85 66/91/85 65/93/85
f 62/98/86 67/89/86 66/91/86
f 62/98/87 68/87/87 67/89/87
f 62/98/88 69/85/88 68/87/88
f 62/98/89 70/83/89 69/85/89
f 62/98/90 71/81/90 70/83/90
f 62/98/91 72/79/91 71/81/91
f 62/98/92 73/77/92 72/79/92
f 62/98/93 74/74/93 73/77/93
