# Blender v2.55 (sub 0) OBJ File: 'bodyparts.blend'
# www.blender.org
o Mesh.011_Mesh.011_Torso.001
v 7.539032 -2.327336 14.806285
v 5.401337 -6.843269 11.553095
v 5.077047 -6.406159 10.212527
v -5.077052 -6.406158 10.212527
v -5.401340 -6.843268 11.553095
v -7.539033 -2.327332 14.806285
v 7.154692 -1.399210 20.065882
v 2.754184 -1.848692 21.322330
v 5.420430 -3.477340 18.469135
v -5.420431 -3.477338 18.469137
v -2.754184 -1.848691 21.322330
v -7.154692 -1.399209 20.065884
v 4.313806 2.870679 20.713888
v 8.460814 2.449546 19.366755
v 8.718680 4.487453 15.800200
v -8.718678 4.487455 15.800201
v -8.460813 2.449546 19.366756
v -4.313805 2.870682 20.713890
v 8.317669 -2.329687 17.693563
v 10.036436 -0.610206 19.339674
v -10.036436 -0.610202 19.339676
v -8.317670 -2.329684 17.693565
v 0.000000 4.616960 17.642141
v 3.866194 3.165623 8.611319
v -3.866194 3.165624 8.611319
v 0.000000 3.202151 8.602269
v 9.433845 -1.413647 14.049967
v -9.433846 -1.413645 14.049967
v 0.000000 1.082783 22.882296
v 4.650982 -6.207315 8.249002
v 6.698692 -1.011862 5.010691
v -6.698693 -1.011859 5.010691
v -4.650984 -6.207314 8.249002
v 0.000000 -5.396704 16.595531
v 0.000000 -3.763585 19.622040
v 0.000000 -7.239141 10.992215
v 0.000000 -7.032290 10.236323
v 0.000000 -6.590168 8.532424
v 3.699391 -3.032264 -1.023781
v -3.699394 -3.032263 -1.023779
v 0.000000 -4.634294 -1.388721
v 6.724707 -0.231569 -0.303629
v -6.724709 -0.231567 -0.303628
v 3.294682 4.034320 0.865872
v -3.294683 4.034322 0.865872
v 0.000000 3.589694 1.872639
v -11.039103 0.643199 17.017845
v 11.039104 0.643196 17.017843
v 6.160466 0.005769 12.869196
v 7.533260 0.223597 11.985361
v -7.533260 0.223599 11.985363
v -6.160466 0.005770 12.869196
vt 0.184797 0.805247
vt 0.165886 0.789969
vt 0.166141 0.775747
vt 0.080052 0.775748
vt 0.080307 0.789969
vt 0.061397 0.805248
vt 0.153490 0.841413
vt 0.134704 0.838479
vt 0.147779 0.824535
vt 0.098414 0.824535
vt 0.111489 0.838479
vt 0.092704 0.841413
vt 0.231703 0.829539
vt 0.219314 0.831897
vt 0.200791 0.812519
vt 0.046638 0.812844
vt 0.028439 0.831944
vt 0.016359 0.829913
vt 0.161736 0.828462
vt 0.165599 0.844346
vt 0.080594 0.844346
vt 0.084457 0.828462
vt 0.240442 0.792727
vt 0.201341 0.812844
vt 0.219191 0.765567
vt 0.027002 0.765568
vt 0.005752 0.792727
vt 0.240220 0.760876
vt 0.005974 0.760877
vt 0.231615 0.829914
vt 0.179716 0.819351
vt 0.066477 0.819351
vt 0.222653 0.841413
vt 0.023611 0.841413
vt 0.211767 0.844346
vt 0.034200 0.844346
vt 0.240267 0.832058
vt 0.233745 0.838479
vt 0.012822 0.838479
vt 0.006478 0.832156
vt 0.164522 0.755284
vt 0.190426 0.753722
vt 0.054928 0.753378
vt 0.081671 0.755285
vt 0.123097 0.809690
vt 0.123097 0.828718
vt 0.123097 0.782787
vt 0.123097 0.775194
vt 0.123096 0.757564
vt 0.150797 0.707549
vt 0.095396 0.707549
vt 0.123096 0.707549
vt 0.190426 0.707549
vt 0.054928 0.707204
vt 0.214713 0.707549
vt 0.031479 0.707549
vt 0.239943 0.707549
vt 0.006250 0.707549
vt 0.239717 0.832156
vt 0.043907 0.830935
vt 0.201788 0.830935
vt 0.177891 0.830935
vt 0.068303 0.830935
vt 0.191758 0.820920
vt 0.190426 0.777126
vt 0.054928 0.776781
vt 0.056221 0.820920
vn 0.690939 -0.707358 -0.148900
vn 0.489303 -0.866970 0.094302
vn 0.665090 -0.700217 -0.259407
vn -0.665090 -0.700217 -0.259407
vn -0.489303 -0.866970 0.094302
vn -0.690939 -0.707358 -0.148900
vn 0.346355 -0.390027 0.853145
vn 0.311838 -0.533036 0.786493
vn 0.369610 -0.831813 0.414045
vn -0.369610 -0.831813 0.414045
vn -0.311838 -0.533036 0.786493
vn -0.346355 -0.390027 0.853145
vn 0.256600 0.511277 0.820185
vn 0.507309 0.436262 0.743126
vn 0.484603 0.841182 0.239875
vn -0.484603 0.841182 0.239875
vn -0.507309 0.436262 0.743126
vn -0.256600 0.511277 0.820185
vn 0.527604 -0.837794 0.140355
vn 0.684225 -0.334605 0.647938
vn -0.684225 -0.334605 0.647938
vn -0.527604 -0.837794 0.140355
vn 0.000000 0.986206 0.165349
vn 0.443037 0.888180 -0.121586
vn -0.443037 0.888180 -0.121586
vn 0.000000 0.998779 -0.048830
vn 0.434675 -0.844966 -0.311502
vn -0.434675 -0.844966 -0.311502
vn 0.000000 0.479476 0.877529
vn 0.503952 -0.829341 -0.241218
vn 0.994140 -0.007508 -0.107608
vn -0.994140 -0.007508 -0.107608
vn -0.503952 -0.829341 -0.241218
vn 0.000000 -0.893613 0.448775
vn 0.000000 -0.880032 0.474868
vn 0.000000 -0.995148 -0.098209
vn 0.000000 -0.976714 -0.214484
vn 0.000000 -0.965545 -0.260231
vn 0.400433 -0.872494 -0.279916
vn -0.400433 -0.872494 -0.279916
vn 0.000000 -0.981109 -0.193396
vn 0.996521 0.023743 -0.079836
vn -0.996521 0.023743 -0.079836
vn 0.389172 0.918149 0.074252
vn -0.389172 0.918149 0.074252
vn 0.000000 0.996094 0.087985
vn -0.947539 -0.127964 0.292795
vn 0.947539 -0.127964 0.292795
vn -0.789056 -0.594531 -0.154515
vn 0.961760 0.044771 -0.270180
vn -0.961760 0.044771 -0.270180
vn 0.789056 -0.594531 -0.154515
usemtl None_texture_armor.pn
s 1
f 1/1/1 2/2/2 3/3/3
f 4/4/4 5/5/5 6/6/6
f 7/7/7 8/8/8 9/9/9
f 10/10/10 11/11/11 12/12/12
f 1/1/1 9/9/9 2/2/2
f 5/5/5 10/10/10 6/6/6
f 13/13/13 14/14/14 15/15/15
f 16/16/16 17/17/17 18/18/18
f 19/19/19 20/20/20 7/7/7
f 12/12/12 21/21/21 22/22/22
f 23/23/23 15/24/15 24/25/24
f 25/26/25 16/16/16 23/27/23
f 24/25/24 26/28/26 23/23/23
f 23/27/23 26/29/26 25/26/25
f 13/30/13 15/24/15 23/23/23
f 23/27/23 16/16/16 18/18/18
f 7/7/7 9/9/9 19/19/19
f 22/22/22 10/10/10 12/12/12
f 19/19/19 1/1/1 27/31/27
f 6/6/6 22/22/22 28/32/28
f 9/9/9 1/1/1 19/19/19
f 6/6/6 10/10/10 22/22/22
f 13/13/13 7/33/7 14/14/14
f 17/17/17 12/34/12 18/18/18
f 7/33/7 20/35/20 14/14/14
f 17/17/17 21/36/21 12/34/12
f 13/13/13 29/37/29 8/38/8
f 11/39/11 29/40/29 18/18/18
f 13/13/13 8/38/8 7/33/7
f 12/34/12 11/39/11 18/18/18
f 3/3/3 30/41/30 31/42/31
f 32/43/32 33/44/33 4/4/4
f 9/9/9 8/8/8 34/45/34
f 34/45/34 11/11/11 10/10/10
f 8/8/8 35/46/35 34/45/34
f 34/45/34 35/46/35 11/11/11
f 2/2/2 9/9/9 34/45/34
f 34/45/34 10/10/10 5/5/5
f 2/2/2 34/45/34 36/47/36
f 36/47/36 34/45/34 5/5/5
f 3/3/3 2/2/2 36/47/36
f 36/47/36 5/5/5 4/4/4
f 3/3/3 36/47/36 37/48/37
f 37/48/37 36/47/36 4/4/4
f 30/41/30 3/3/3 37/48/37
f 37/48/37 4/4/4 33/44/33
f 30/41/30 37/48/37 38/49/38
f 38/49/38 37/48/37 33/44/33
f 39/50/39 30/41/30 38/49/38
f 38/49/38 33/44/33 40/51/40
f 39/50/39 38/49/38 41/52/41
f 41/52/41 38/49/38 40/51/40
f 42/53/42 31/42/31 30/41/30
f 33/44/33 32/43/32 43/54/43
f 42/53/42 30/41/30 39/50/39
f 40/51/40 33/44/33 43/54/43
f 44/55/44 24/25/24 42/53/42
f 43/54/43 25/26/25 45/56/45
f 24/25/24 31/42/31 42/53/42
f 43/54/43 32/43/32 25/26/25
f 46/57/46 26/28/26 24/25/24
f 26/29/26 46/58/46 25/26/25
f 44/55/44 46/57/46 24/25/24
f 25/26/25 46/58/46 45/56/45
f 23/23/23 29/59/29 13/30/13
f 18/18/18 29/40/29 23/27/23
f 47/60/47 21/36/21 17/17/17
f 20/35/20 48/61/48 14/14/14
f 19/19/19 27/31/27 48/62/48
f 48/62/48 20/20/20 19/19/19
f 22/22/22 21/21/21 47/63/47
f 47/63/47 28/32/28 22/22/22
f 15/15/15 14/14/14 48/61/48
f 47/60/47 17/17/17 16/16/16
f 1/1/1 49/64/49 27/31/27
f 3/3/3 31/42/31 50/65/50
f 50/65/50 1/1/1 3/3/3
f 15/24/15 50/65/50 24/25/24
f 50/65/50 31/42/31 24/25/24
f 51/66/51 32/43/32 4/4/4
f 4/4/4 6/6/6 51/66/51
f 16/16/16 25/26/25 51/66/51
f 25/26/25 32/43/32 51/66/51
f 6/6/6 28/32/28 52/67/52
f 6/6/6 16/16/16 51/66/51
f 6/6/6 52/67/52 16/16/16
f 1/1/1 50/65/50 15/24/15
f 1/1/1 15/24/15 49/64/49
