# Blender v2.55 (sub 0) OBJ File: 'untitled.blend'
# www.blender.org
o Cylinder
v 0.176777 1.176787 2.797997
v 0.064705 0.758529 2.797997
v -0.241481 1.064715 2.797997
v 0.176777 1.176768 30.900824
v 0.064705 0.758510 30.900822
v -0.241481 1.064696 30.900824
v 0.530330 1.530321 30.900824
v -0.724444 1.194106 30.900824
v 0.194114 0.275547 30.900822
v 0.000000 0.999991 32.522530
v 0.000000 1.000010 -0.568500
v -0.241481 1.064715 -0.568500
v 0.064705 0.758529 -0.568500
v 0.176777 1.176787 -0.568499
v 0.148208 0.476542 1.972113
v 0.226467 0.307918 -0.995111
v -0.523468 1.148219 1.972114
v -0.692092 1.226477 -0.995110
v 0.394058 1.394069 1.972113
v 0.562682 1.562692 -0.995111
vt 0.608173 0.337572
vt 0.608306 0.559318
vt 0.599849 0.559318
vt 0.599716 0.337572
vt 0.591391 0.559318
vt 0.591258 0.337571
vt 0.582934 0.559318
vt 0.582801 0.337571
vt 0.801812 0.807238
vt 0.801158 0.833391
vt 0.785405 0.859168
vt 0.787366 0.780706
vt 0.802796 0.922247
vt 0.802116 0.949474
vt 0.785717 0.976307
vt 0.787758 0.894628
vt 0.799788 0.690285
vt 0.799206 0.713592
vt 0.785168 0.736563
vt 0.786914 0.666642
vt 0.685849 0.817424
vt 0.682080 0.932852
vt 0.696450 0.699365
vt 0.582990 0.117611
vt 0.591447 0.117610
vt 0.591449 0.117610
vt 0.599906 0.117610
vt 0.599524 0.117609
vt 0.607982 0.117609
vt 0.603753 0.109253
vt 0.595677 0.109254
vt 0.587219 0.109254
vt 0.489188 0.514551
vt 0.484227 0.621221
vt 0.474873 0.594404
vt 0.474873 0.500100
vt 0.463445 0.508837
vt 0.458484 0.615507
vt 0.449130 0.588690
vt 0.449130 0.494385
vt 0.422536 0.614493
vt 0.422536 0.507785
vt 0.439188 0.494385
vt 0.433123 0.586036
vn 0.965926 -0.258819 -0.000000
vn -0.707107 -0.707107 -0.000000
vn -0.258819 0.965926 0.000001
vn 0.000000 -0.000000 -1.000000
vn -0.000002 0.000002 -1.000000
vn 0.000001 0.000002 -1.000000
vn -0.252165 0.941093 0.225293
vn -0.688928 -0.688928 0.225293
vn 0.941093 -0.252166 0.225293
vn -0.258819 0.965926 -0.000000
vn 0.000000 0.000001 -1.000000
vn 0.950012 0.312195 0.003427
vn -0.312195 -0.950012 -0.003427
vn 0.707107 -0.707107 0.000000
usemtl None_texture_weapons.png
s off
f 1/1/1 4/2/1 5/3/1 2/4/1
f 2/4/2 5/3/2 6/5/2 3/6/2
f 4/7/3 1/8/3 3/6/3 6/5/3
f 4/9/4 6/10/4 8/11/4 7/12/4
f 6/13/5 5/14/5 9/15/5 8/16/5
f 5/17/6 4/18/6 7/19/6 9/20/6
f 10/21/7 7/12/7 8/11/7
f 10/22/8 8/16/8 9/15/8
f 10/23/9 9/20/9 7/19/9
f 3/6/10 1/8/10 14/24/10 12/25/10
f 2/4/2 3/6/2 12/26/2 13/27/2
f 1/1/1 2/4/1 13/28/1 14/29/1
f 11/30/11 14/29/11 13/28/11
f 11/31/4 13/27/4 12/26/4
f 12/25/11 14/24/11 11/32/11
f 13/33/12 2/34/12 15/35/12 16/36/12
f 12/37/13 3/38/13 17/39/13 18/40/13
f 1/41/14 14/42/14 20/43/14 19/44/14
