# Blender v2.55 (sub 0) OBJ File: 'weapons.blend'
# www.blender.org
o Mesh.028_Mesh.007_Mesh.katana
v -49.079514 0.214100 -4.206568
v -44.635002 -0.006359 -2.248830
v -50.122734 -0.006359 -4.385238
v -44.558853 0.168827 -2.586245
v -49.079514 -0.233254 -4.206568
v -44.558853 -0.181545 -2.586245
v 6.057257 -0.006364 0.006981
v 5.047675 -0.006364 -0.555518
v 5.047675 0.324265 -0.448090
v 5.047675 -0.336993 -0.448089
v 5.047675 -0.541334 -0.166839
v 5.047675 -0.541333 0.180805
v 5.047675 -0.336993 0.462054
v 5.047675 -0.006364 0.569482
v 5.047675 0.324265 0.462054
v 5.047675 0.528605 0.180804
v 5.047675 0.528605 -0.166840
v -2.794920 -0.233257 -0.635615
v -2.794920 0.214095 -0.635615
v -14.486633 0.214095 -0.484119
v -14.486633 -0.233255 -0.484119
v -26.115166 0.214096 -0.919908
v -26.115166 -0.233255 -0.919908
v -37.676067 0.214096 -2.104670
v -37.676067 -0.233254 -2.104670
v -2.794920 0.210266 0.393851
v -13.268500 0.199906 0.480463
v -23.758541 0.189547 0.093945
v -34.210396 0.179188 -0.885764
v -2.794920 -0.222995 0.393851
v -13.268500 -0.212633 0.480463
v -23.758541 -0.202272 0.093945
v -34.210396 -0.191910 -0.885764
v -2.794920 -0.006362 0.820272
v -13.258965 -0.006362 0.886426
v -23.771999 -0.006361 0.479339
v -34.252979 -0.006359 -0.522839
v 5.047675 0.528605 -0.166840
v -2.019422 0.528607 -0.166839
v -2.019422 0.528605 0.180806
v 5.047675 0.528605 0.180805
v 5.047675 0.324265 -0.448090
v -2.019422 0.324267 -0.448089
v -2.019422 0.324265 0.462054
v 5.047675 0.324265 0.462054
v -2.019422 -0.006365 0.569481
v 5.047675 -0.006364 0.569481
v -2.019422 -0.336994 0.462054
v 5.047675 -0.336993 0.462054
v -2.019422 -0.541333 0.180803
v 5.047675 -0.541334 0.180804
v -2.019422 -0.541332 -0.166842
v 5.047675 -0.541334 -0.166840
v -2.019422 -0.336992 -0.448091
v 5.047675 -0.336993 -0.448090
v 5.047675 -0.006364 -0.555519
v -2.019422 -0.006363 -0.555519
v -2.790686 -0.006364 -2.111944
v -2.019422 -0.006365 -2.111944
v -2.019422 -0.850114 -1.181231
v -2.790686 -0.850114 -1.181231
v -2.790686 0.837386 -1.181231
v -2.019422 0.837386 -1.181231
v -2.019422 -0.850114 1.195195
v -2.790686 -0.850114 1.195195
v -2.019422 -0.006365 2.125909
v -2.019422 0.837385 1.195195
v -2.790686 0.837386 1.195195
v -2.790686 -0.006364 2.125907
vt 0.762632 0.949687
vt 0.748376 0.886389
vt 0.748376 0.979406
vt 0.762632 0.886199
vt 0.748376 0.886513
vt 0.762632 0.949798
vt 0.748376 0.978777
vt 0.762632 0.886640
vt 0.325705 0.355462
vt 0.315343 0.347773
vt 0.318857 0.344526
vt 0.328972 0.326105
vt 0.319965 0.340489
vt 0.315343 0.336218
vt 0.325826 0.342782
vt 0.332119 0.342782
vt 0.337980 0.340489
vt 0.342602 0.336218
vt 0.332554 0.344526
vt 0.336068 0.347773
vt 0.328098 0.342782
vt 0.323313 0.342782
vt 0.778002 0.959027
vt 0.769176 0.950557
vt 0.761499 0.975733
vt 0.834347 0.875189
vt 0.801980 0.875189
vt 0.801763 0.809463
vt 0.834130 0.809463
vt 0.801871 0.725289
vt 0.834238 0.725289
vt 0.802178 0.635501
vt 0.834546 0.635501
vt 0.796497 0.892133
vt 0.796497 0.945955
vt 0.781990 0.946105
vt 0.781990 0.892283
vt 0.783000 0.882201
vt 0.764667 0.882379
vt 0.766024 0.752266
vt 0.784357 0.752266
vt 0.762632 0.623129
vt 0.780966 0.623129
vt 0.762632 0.761747
vt 0.780966 0.761747
vt 0.764667 0.882625
vt 0.783000 0.882598
vt 0.750411 0.883153
vt 0.751767 0.752266
vt 0.748376 0.623129
vt 0.748376 0.761747
vt 0.750411 0.882732
vt 0.353193 0.228770
vt 0.353193 0.325487
vt 0.340541 0.326105
vt 0.340541 0.229388
vt 0.365845 0.228153
vt 0.365845 0.324870
vt 0.327942 0.325291
vt 0.327942 0.228574
vt 0.315343 0.324477
vt 0.315343 0.227760
vt 0.378497 0.227311
vt 0.365897 0.226497
vt 0.365897 0.129780
vt 0.378496 0.130593
vt 0.353298 0.225683
vt 0.353298 0.128966
vt 0.340646 0.226300
vt 0.340646 0.129583
vt 0.327995 0.226918
vt 0.327995 0.130201
vt 0.378497 0.227535
vt 0.378497 0.324253
vt 0.315343 0.227535
vt 0.315343 0.130818
vt 0.320959 0.128966
vt 0.315343 0.070361
vt 0.341403 0.088828
vt 0.338587 0.114503
vt 0.316347 0.013734
vt 0.334636 0.026666
vt 0.339182 0.053893
vt 0.425997 0.084823
vt 0.423180 0.110499
vt 0.443624 0.070361
vt 0.428179 0.049829
vt 0.462207 0.070361
vt 0.427472 0.021475
vt 0.447193 0.000000
vt 0.449241 0.128966
vn 0.261515 -0.693085 -0.671746
vn 0.145167 -0.891125 -0.429911
vn 0.265100 0.682658 -0.680956
vn 0.144001 0.891174 -0.430200
vn 0.468218 0.273052 -0.840366
vn 0.468218 -0.273054 -0.840365
vn 0.468218 -0.714857 -0.519376
vn 0.468219 -0.883612 0.000002
vn 0.468219 -0.714856 0.519375
vn 0.468220 -0.273052 0.840365
vn 0.468220 0.273051 0.840365
vn 0.468219 0.714858 0.519374
vn 0.468219 0.883613 0.000000
vn 0.468218 0.714858 -0.519374
vn -0.168810 0.000000 0.985649
vn 0.012956 0.000000 0.999916
vn -0.037450 0.000000 0.999299
vn -0.101946 0.000000 0.994790
vn -0.181268 0.000000 0.983434
vn 0.000368 -0.999957 -0.009260
vn 0.001282 -0.999759 -0.021892
vn 0.004151 -0.999290 -0.037435
vn 0.010630 -0.998255 -0.058092
vn 0.000299 0.999877 -0.015669
vn 0.001541 0.999582 -0.028857
vn 0.004912 0.998967 -0.045168
vn 0.012180 0.997681 -0.066960
vn -0.002863 0.891543 -0.452928
vn 0.017554 0.891375 -0.452926
vn 0.043157 0.891396 -0.451165
vn 0.074274 0.891612 -0.446667
vn -0.002863 -0.891546 -0.452921
vn 0.017553 -0.891378 -0.452921
vn 0.043156 -0.891400 -0.451158
vn 0.074273 -0.891614 -0.446663
vn 0.000000 1.000000 0.000003
vn 0.000000 0.809017 -0.587785
vn 0.000000 0.809016 0.587787
vn -0.000000 0.309014 0.951057
vn 0.000000 -0.309015 0.951057
vn -0.000000 -0.809018 0.587784
vn -0.000000 -1.000000 -0.000001
vn -0.000000 -0.809016 -0.587787
vn -0.000000 0.309021 -0.951055
vn 0.000000 -0.309019 -0.951056
vn -0.000000 -0.740872 -0.671646
vn 0.000000 0.740871 -0.671647
vn 0.000000 -1.000000 0.000000
vn 1.000000 0.000000 -0.000000
vn 0.000001 1.000000 0.000000
vn 0.000000 0.740872 0.671647
vn -0.000001 -0.740872 0.671647
vn -1.000000 0.000000 0.000000
usemtl sword_blade_textu.006
s off
f 1/1/1 2/2/1 3/3/1
f 1/1/2 4/4/2 2/2/2
f 2/5/3 5/6/3 3/7/3
f 2/5/4 6/8/4 5/6/4
f 7/9/5 8/10/5 9/11/5
f 7/12/6 10/13/6 8/14/6
f 7/12/7 11/15/7 10/13/7
f 7/12/8 12/16/8 11/15/8
f 7/12/9 13/17/9 12/16/9
f 7/12/10 14/18/10 13/17/10
f 7/9/11 15/19/11 14/20/11
f 7/9/12 16/21/12 15/19/12
f 7/9/13 17/22/13 16/21/13
f 7/9/14 9/11/14 17/22/14
f 5/23/15 1/24/15 3/25/15
f 18/26/16 19/27/16 20/28/16 21/29/16
f 21/29/17 20/28/17 22/30/17 23/31/17
f 23/31/18 22/30/18 24/32/18 25/33/18
f 1/34/19 5/35/19 25/36/19 24/37/19
f 19/38/20 26/39/20 27/40/20 20/41/20
f 20/41/21 27/40/21 28/42/21 22/43/21
f 22/43/22 28/42/22 29/44/22 24/45/22
f 4/4/23 1/1/23 24/45/23 29/44/23
f 30/46/24 18/47/24 21/41/24 31/40/24
f 31/40/25 21/41/25 23/43/25 32/42/25
f 32/42/26 23/43/26 25/45/26 33/44/26
f 33/44/27 25/45/27 5/6/27 6/8/27
f 34/48/28 30/46/28 31/40/28 35/49/28
f 35/49/29 31/40/29 32/42/29 36/50/29
f 36/50/30 32/42/30 33/44/30 37/51/30
f 37/51/31 33/44/31 6/8/31 2/5/31
f 26/39/32 34/52/32 35/49/32 27/40/32
f 27/40/33 35/49/33 36/50/33 28/42/33
f 28/42/34 36/50/34 37/51/34 29/44/34
f 29/44/35 37/51/35 2/2/35 4/4/35
f 38/53/36 39/54/36 40/55/36 41/56/36
f 42/57/37 43/58/37 39/54/37 38/53/37
f 40/55/38 44/59/38 45/60/38 41/56/38
f 44/59/39 46/61/39 47/62/39 45/60/39
f 46/63/40 48/64/40 49/65/40 47/66/40
f 48/64/41 50/67/41 51/68/41 49/65/41
f 51/68/42 50/67/42 52/69/42 53/70/42
f 53/70/43 52/69/43 54/71/43 55/72/43
f 56/73/44 57/74/44 43/58/44 42/57/44
f 55/72/45 54/71/45 57/75/45 56/76/45
f 58/77/46 59/78/46 60/79/46 61/80/46
f 58/81/47 62/82/47 63/83/47 59/78/47
f 64/84/48 65/85/48 61/80/48 60/79/48
f 66/86/49 64/84/49 60/79/49 59/78/49
f 59/78/49 63/83/49 67/87/49 66/88/49
f 62/82/50 68/89/50 67/87/50 63/83/50
f 67/87/51 68/89/51 69/90/51 66/88/51
f 66/86/52 69/91/52 65/85/52 64/84/52
f 68/89/53 62/82/53 58/81/53 69/90/53
f 58/77/53 61/80/53 65/85/53 69/91/53
