# Blender v2.55 (sub 0) OBJ File: 'weapons.blend'
# www.blender.org
o Mesh.023_Mesh.021_Mace
v -21.678129 -1.328507 0.961153
v -21.010355 -1.119714 0.720148
v -21.150511 -0.839394 1.151520
v -19.746571 -1.393679 1.638333
v -22.013241 -0.839394 1.431842
v -22.862902 -1.393679 2.650909
v -22.380186 -1.119714 1.165241
v -22.141737 -1.596625 0.431357
v -21.634636 -1.596625 0.266587
v -22.001581 -3.116368 -0.000010
v -20.643410 -0.839393 0.453551
v -20.977127 -1.328505 -0.003699
v -21.010355 -1.119714 -0.720168
v -19.746571 -1.393680 -1.638354
v -20.643410 -0.839393 -0.453571
v -21.634636 -1.596625 -0.266607
v -22.812391 -1.328505 0.592614
v -22.833759 -0.839393 1.165241
v -23.366968 -0.839394 0.431358
v -24.788950 -1.393680 -0.000010
v -23.226809 -1.119711 -0.000010
v -22.455149 -1.596623 -0.000010
v -22.812391 -1.328505 -0.600012
v -23.366968 -0.839394 -0.431379
v -22.833759 -0.839394 -1.165262
v -22.862902 -1.393680 -2.650929
v -22.380186 -1.119714 -1.165260
v -22.141737 -1.596625 -0.431377
v -21.678129 -1.328507 -0.968551
v -22.013241 -0.839394 -1.431862
v -21.150511 -0.839394 -1.151540
v -20.556780 -0.385818 0.720149
v -20.453150 -0.295713 -0.000010
v -20.409403 0.385845 -0.266608
v -19.214212 1.393706 -0.000010
v -20.409403 0.385845 0.266588
v -20.556780 -0.385818 -0.720169
v -22.240030 -0.385818 1.596616
v -21.484377 -0.313987 1.557477
v -21.256025 0.385845 1.431846
v -21.140261 1.393706 2.650909
v -21.763132 0.385845 1.596616
v -20.870193 -0.385818 1.151524
v -23.593756 -0.385818 0.266588
v -23.319654 -0.313986 0.961157
v -23.132967 0.385845 1.151524
v -24.256596 1.393706 1.638333
v -23.446379 0.385845 0.720149
v -22.747135 -0.385818 1.431846
v -22.747135 -0.385818 -1.431867
v -23.301394 -0.304932 -0.945193
v -23.446379 0.385845 -0.720169
v -24.256596 1.393705 -1.638354
v -23.132967 0.385845 -1.151545
v -23.593756 -0.385818 -0.266608
v -20.870193 -0.385818 -1.151545
v -21.484377 -0.313987 -1.564875
v -21.763132 0.385845 -1.596637
v -21.140261 1.393705 -2.650929
v -21.256025 0.385845 -1.431867
v -22.240030 -0.385818 -1.596637
v -20.663620 0.313025 0.961157
v -20.636190 0.839420 0.431358
v -21.169401 0.839420 1.165241
v -22.498896 0.313026 1.557477
v -21.989920 0.839421 1.431842
v -22.852648 0.839421 1.151520
v -23.633158 0.313025 -0.003700
v -23.359751 0.839419 0.453551
v -23.359751 0.839419 -0.453571
v -22.498896 0.313026 -1.564875
v -22.852648 0.839421 -1.151540
v -21.989920 0.839421 -1.431862
v -20.748875 0.295740 -0.910150
v -21.169401 0.839419 -1.165262
v -20.636190 0.839420 -0.431379
v -21.622976 1.119741 1.165240
v -21.170881 1.327543 0.592613
v -21.548010 1.596649 -0.000010
v -22.001581 3.116395 -0.000010
v -21.861423 1.596651 0.431357
v -20.776352 1.119738 -0.000010
v -22.992804 1.119740 0.720148
v -22.305143 1.327546 0.961153
v -22.368525 1.596651 0.266587
v -22.992804 1.119740 -0.720169
v -23.006147 1.327544 -0.003700
v -22.368525 1.596651 -0.266608
v -21.622976 1.119741 -1.165261
v -22.305143 1.327546 -0.968551
v -21.861423 1.596651 -0.431377
v -21.170881 1.327543 -0.600012
v 4.937317 -0.527759 0.527372
v 4.937317 -0.741738 -0.084154
v 4.937317 -0.397043 -0.632735
v 4.937317 0.246768 -0.705276
v 4.937317 0.704887 -0.247147
v 4.937317 0.083767 0.741357
v 4.937317 0.632356 0.396662
v -4.963774 -0.397571 0.397188
v -21.707485 -0.397571 0.397191
v -21.707485 -0.558783 -0.063537
v -4.963774 -0.558784 -0.063538
v -21.707485 -0.299088 -0.476839
v -4.963774 -0.299089 -0.476841
v -4.963774 0.063154 0.558404
v -21.707485 0.063154 0.558403
v -4.963774 0.476460 0.298708
v -21.707485 0.476458 0.298708
v -4.963774 0.531110 -0.186341
v -21.707485 0.531111 -0.186342
v -4.963774 0.185959 -0.531494
v -21.707485 0.185960 -0.531492
v -4.743787 -0.477122 0.476737
v -4.743787 -0.670577 -0.076135
v -4.743787 -0.358943 -0.572098
v -4.743787 0.075750 0.670196
v -4.743787 0.571719 0.358562
v -4.743787 0.637296 -0.223496
v -4.743787 0.223116 -0.637681
vt 0.866820 0.805096
vt 0.829931 0.752493
vt 0.829931 0.805096
vt 0.647360 0.727257
vt 0.684250 0.779860
vt 0.684250 0.727257
vt 0.680252 0.835512
vt 0.732855 0.872402
vt 0.732855 0.835512
vt 0.972025 0.894587
vt 0.919422 0.857698
vt 0.919422 0.894587
vt 0.919423 0.752493
vt 0.919423 0.805095
vt 0.972025 0.805095
vt 0.680253 0.693418
vt 0.732855 0.746020
vt 0.732855 0.693418
vt 0.829931 0.805095
vt 0.866820 0.805095
vt 0.684250 0.779859
vt 0.680253 0.835512
vt 0.919423 0.894587
vt 0.919423 0.857697
vt 0.919422 0.857697
vt 0.866821 0.805095
vt 0.833859 0.797239
vt 0.833859 0.744637
vt 0.874677 0.789383
vt 0.688178 0.719401
vt 0.688178 0.772003
vt 0.736783 0.827656
vt 0.684181 0.827656
vt 0.923351 0.886731
vt 0.927279 0.841985
vt 0.975953 0.886731
vt 0.927279 0.789383
vt 0.923351 0.744637
vt 0.975953 0.797239
vt 0.736783 0.738164
vt 0.684181 0.685562
vt 0.837787 0.797239
vt 0.837787 0.744637
vt 0.882533 0.789383
vt 0.692106 0.719401
vt 0.692106 0.772003
vt 0.740711 0.827656
vt 0.688109 0.827656
vt 0.927279 0.886731
vt 0.935136 0.841985
vt 0.979881 0.886731
vt 0.935136 0.789383
vt 0.927279 0.744637
vt 0.979881 0.797239
vt 0.740711 0.738164
vt 0.688109 0.685562
vt 0.842643 0.797239
vt 0.842643 0.744637
vt 0.892244 0.789383
vt 0.696962 0.719401
vt 0.696962 0.772003
vt 0.745567 0.827656
vt 0.692964 0.827656
vt 0.932134 0.886731
vt 0.944847 0.841985
vt 0.984737 0.886731
vt 0.944847 0.789383
vt 0.932134 0.744637
vt 0.984737 0.797239
vt 0.745567 0.738164
vt 0.692964 0.685562
vt 0.825074 0.797239
vt 0.825075 0.744637
vt 0.857108 0.789383
vt 0.679394 0.719401
vt 0.679393 0.772003
vt 0.727999 0.827656
vt 0.675396 0.827656
vt 0.914566 0.886731
vt 0.909711 0.841985
vt 0.967169 0.886731
vt 0.909711 0.789383
vt 0.914567 0.744637
vt 0.967169 0.797239
vt 0.727999 0.738164
vt 0.675397 0.685562
vt 0.829930 0.797239
vt 0.829931 0.744637
vt 0.866820 0.789383
vt 0.684250 0.719401
vt 0.684249 0.772003
vt 0.732855 0.827656
vt 0.680252 0.827656
vt 0.919422 0.886731
vt 0.919422 0.841985
vt 0.972025 0.886731
vt 0.919422 0.789383
vt 0.919422 0.744637
vt 0.972025 0.797239
vt 0.732855 0.738164
vt 0.680252 0.685562
vt 0.892244 0.814806
vt 0.842643 0.757349
vt 0.842643 0.809951
vt 0.696962 0.784715
vt 0.696962 0.732113
vt 0.692964 0.840367
vt 0.745567 0.840367
vt 0.984737 0.899443
vt 0.944847 0.867409
vt 0.932134 0.899443
vt 0.984737 0.809952
vt 0.932134 0.757349
vt 0.944847 0.814807
vt 0.692964 0.698274
vt 0.745567 0.750877
vt 0.882533 0.805095
vt 0.837787 0.752493
vt 0.837787 0.805096
vt 0.692106 0.779860
vt 0.692106 0.727257
vt 0.688109 0.835512
vt 0.740711 0.835513
vt 0.979881 0.894588
vt 0.935136 0.857698
vt 0.927279 0.894587
vt 0.979881 0.805096
vt 0.927279 0.752493
vt 0.935136 0.805096
vt 0.688109 0.693418
vt 0.740711 0.746020
vt 0.874677 0.797239
vt 0.833859 0.748565
vt 0.833859 0.801167
vt 0.688178 0.775931
vt 0.688178 0.723329
vt 0.684181 0.831583
vt 0.736783 0.831583
vt 0.975953 0.890659
vt 0.927279 0.849841
vt 0.923351 0.890659
vt 0.975953 0.801167
vt 0.923351 0.748565
vt 0.927279 0.797239
vt 0.684181 0.689490
vt 0.736783 0.742092
vt 0.866820 0.789382
vt 0.829930 0.744636
vt 0.829931 0.797239
vt 0.684250 0.772003
vt 0.684249 0.719400
vt 0.919422 0.744636
vt 0.919422 0.789382
vt 0.680252 0.685561
vt 0.857108 0.779671
vt 0.825074 0.739781
vt 0.825075 0.792384
vt 0.679394 0.767148
vt 0.679393 0.714545
vt 0.675397 0.822800
vt 0.727999 0.822800
vt 0.967169 0.881875
vt 0.909711 0.832274
vt 0.914567 0.881875
vt 0.967169 0.792384
vt 0.914566 0.739781
vt 0.909711 0.779671
vt 0.675396 0.680706
vt 0.727999 0.733309
vt 0.829931 0.789383
vt 0.829931 0.736780
vt 0.866820 0.773670
vt 0.684250 0.711544
vt 0.684250 0.764147
vt 0.732855 0.819800
vt 0.680253 0.819799
vt 0.919423 0.878874
vt 0.919423 0.826273
vt 0.972025 0.878875
vt 0.919422 0.773670
vt 0.919422 0.736780
vt 0.972025 0.789383
vt 0.732855 0.730308
vt 0.680252 0.677705
vt 0.732855 0.819799
vt 0.919423 0.826272
vt 0.972025 0.878874
vt 0.829931 0.736781
vt 0.684250 0.711545
vt 0.919423 0.773670
vt 0.919423 0.736781
vt 0.680253 0.677706
vt 0.866821 0.773670
vt 0.680253 0.819800
vt 0.919423 0.878875
vt 0.793041 0.752493
vt 0.972025 0.752493
vt 0.972025 0.931477
vt 0.793041 0.931477
vt 0.793041 0.841985
vt 0.972025 0.841985
vt 0.793041 0.797239
vt 0.800672 0.691297
vt 0.800672 0.871203
vt 0.980578 0.871203
vt 0.980578 0.691297
vt 0.833938 0.770447
vt 0.894545 0.812127
vt 0.837953 0.816716
vn 0.426864 -0.688613 0.586174
vn -0.450534 -0.808358 0.378916
vn 0.587211 -0.808358 0.041728
vn 0.004081 -0.691947 0.721937
vn 0.118283 -0.923845 0.364032
vn 0.300389 -0.234706 0.924489
vn 0.690655 -0.685796 0.229520
vn 0.221146 -0.808355 -0.545579
vn 0.221146 -0.808355 0.545580
vn 0.691193 -0.684570 -0.231551
vn 0.377594 -0.925971 0.000000
vn 0.972066 -0.234707 0.000000
vn -0.429282 -0.694600 0.577276
vn -0.499591 -0.808360 -0.311390
vn 0.141770 -0.808360 0.571363
vn -0.680481 -0.695458 0.230831
vn -0.313707 -0.921759 0.227921
vn -0.786414 -0.234705 0.571372
vn -0.682120 -0.694282 -0.229534
vn 0.141770 -0.808360 -0.571363
vn -0.499590 -0.808360 0.311390
vn -0.427413 -0.691580 -0.582267
vn -0.311903 -0.922694 -0.226610
vn -0.786414 -0.234705 -0.571372
vn -0.001388 -0.688199 -0.725521
vn 0.587211 -0.808358 -0.041728
vn -0.450534 -0.808358 -0.378915
vn 0.432256 -0.685482 -0.585892
vn 0.117198 -0.925293 -0.360691
vn 0.300389 -0.234706 -0.924489
vn 0.962970 -0.247190 0.107642
vn 0.821917 0.163695 -0.545579
vn 0.644654 -0.764475 0.000000
vn 0.997946 -0.064055 0.000000
vn 0.962969 -0.247190 -0.107642
vn 0.821917 0.163695 0.545579
vn 0.078203 -0.305625 0.948935
vn 0.772859 0.163707 0.613098
vn 0.199212 -0.764469 0.613108
vn 0.308266 0.069728 0.948741
vn 0.499138 -0.308483 0.809753
vn -0.264883 0.163692 0.950285
vn -0.875979 -0.301098 0.376831
vn -0.344264 0.163708 0.924490
vn -0.521541 -0.764470 0.378921
vn -0.807755 0.055839 0.586867
vn -0.627756 -0.301848 0.717502
vn -0.985627 0.163701 0.041741
vn -0.655510 -0.285705 -0.699056
vn -0.985627 0.163701 -0.041741
vn -0.521540 -0.764471 -0.378920
vn -0.808828 0.021666 -0.587646
vn -0.867314 -0.285548 -0.407711
vn -0.344264 0.163708 -0.924490
vn 0.505031 -0.312125 -0.804688
vn -0.264883 0.163692 -0.950285
vn 0.199212 -0.764469 -0.613108
vn 0.308036 0.079670 -0.948033
vn 0.069309 -0.309828 -0.948263
vn 0.772859 0.163707 -0.613098
vn 0.881310 0.311609 0.355235
vn 0.344265 -0.163708 0.924490
vn 0.985627 -0.163700 0.041742
vn 0.614612 0.309184 0.725712
vn 0.806502 -0.078780 0.585960
vn 0.521541 0.764469 0.378923
vn -0.080622 0.304477 0.949102
vn -0.772860 -0.163705 0.613097
vn 0.264881 -0.163693 0.950286
vn -0.489103 0.302284 0.818170
vn -0.308442 -0.061088 0.949280
vn -0.199212 0.764469 0.613108
vn -0.930277 0.300968 0.209767
vn -0.821915 -0.163699 -0.545580
vn -0.821915 -0.163699 0.545581
vn -0.929542 0.301928 -0.211639
vn -0.998414 -0.056292 -0.000000
vn -0.644653 0.764476 0.000000
vn -0.495000 0.305928 -0.813255
vn 0.264882 -0.163693 -0.950285
vn -0.772860 -0.163705 -0.613097
vn -0.071504 0.308794 -0.948437
vn -0.308238 -0.071062 -0.948651
vn -0.199213 0.764469 -0.613108
vn 0.715784 0.247187 -0.653109
vn 0.985627 -0.163700 -0.041742
vn 0.344265 -0.163708 -0.924490
vn 0.842329 0.247179 -0.478941
vn 0.807355 0.064044 -0.586580
vn 0.521541 0.764469 -0.378923
vn 0.425882 0.689105 0.586310
vn 0.499588 0.808361 -0.311390
vn 0.786412 0.234707 0.571374
vn 0.308075 0.924657 0.223830
vn 0.693058 0.686248 0.220757
vn -0.141770 0.808360 0.571364
vn -0.415643 0.695011 0.586686
vn 0.450532 0.808359 0.378916
vn -0.300389 0.234706 0.924489
vn -0.119622 0.922037 0.368154
vn -0.004878 0.692491 0.721410
vn -0.587212 0.808357 0.041728
vn -0.686502 0.694828 -0.214313
vn -0.221146 0.808355 0.545579
vn -0.972066 0.234706 0.000000
vn -0.388836 0.921307 0.000000
vn -0.685974 0.695925 0.212433
vn -0.221145 0.808355 -0.545580
vn 0.000703 0.688670 -0.725075
vn -0.587212 0.808357 -0.041729
vn -0.300389 0.234705 -0.924489
vn -0.118519 0.923529 -0.364757
vn -0.420947 0.692006 -0.586457
vn 0.450531 0.808359 -0.378917
vn 0.694627 0.685070 -0.219482
vn -0.141770 0.808359 -0.571364
vn 0.786412 0.234707 -0.571374
vn 0.306336 0.925539 -0.222566
vn 0.423973 0.686012 -0.591299
vn 0.499589 0.808361 0.311390
vn 1.000000 0.000000 0.000000
vn 0.000000 -0.943885 0.330273
vn -0.000000 -0.846724 -0.532032
vn 0.000000 -0.330277 0.943884
vn -0.000000 0.532030 0.846726
vn -0.000000 0.993712 0.111963
vn -0.000000 0.707107 -0.707106
vn -0.000000 -0.111967 -0.993712
vn -0.006664 -0.943864 0.330267
vn -0.418468 -0.857266 0.299965
vn -0.006664 -0.846706 -0.532019
vn -0.418470 -0.769021 -0.483208
vn -0.006664 -0.330275 0.943861
vn -0.418467 -0.299971 0.857264
vn -0.006664 0.532015 0.846709
vn -0.418471 0.483204 0.769023
vn -0.006664 0.993691 0.111951
vn -0.418469 0.902521 0.101683
vn -0.006664 0.707097 -0.707085
vn -0.418465 0.642221 -0.642214
vn -0.006665 -0.111963 -0.993690
vn -0.418470 -0.101691 -0.902520
vn -0.251077 0.582978 0.772721
vn -0.273519 0.465378 0.841790
vn -0.535640 0.038621 0.843563
vn -0.637510 -0.039240 0.769442
vn -0.968468 0.040474 0.245828
vn -0.927989 -0.040479 0.370403
vn -0.717811 -0.461251 0.521532
vn -0.655449 -0.586173 0.476223
vn -0.383967 0.848640 0.363839
vn -0.465054 0.848601 0.252192
vn -0.463291 0.848783 -0.254809
vn -0.386689 0.848890 -0.360357
vn -0.809837 0.586655 0.000000
vn -0.887436 0.460931 0.000000
vn -0.252786 0.575188 -0.777983
vn -0.272011 0.474545 -0.837148
vn 0.044594 -0.027560 -0.998625
vn -0.045914 0.028375 -0.998542
vn -0.543105 0.033234 -0.839007
vn -0.663587 -0.060935 -0.745613
vn -0.733348 -0.422260 -0.532820
vn -0.658210 -0.581428 -0.478227
vn 0.254449 -0.567458 -0.783101
vn 0.270561 -0.483145 -0.832687
vn 0.213138 0.849429 -0.482746
vn 0.109868 0.849359 -0.516254
vn 0.763604 0.330302 -0.554805
vn 0.668020 0.564072 -0.485358
vn 0.556259 -0.023629 -0.830673
vn 0.722137 0.113162 -0.682431
vn 0.525030 0.849515 0.051645
vn 0.525047 0.849543 -0.051011
vn 0.665255 0.569044 0.483348
vn 0.709035 0.481542 0.515157
vn 0.103645 0.849037 0.518067
vn 0.218646 0.849147 0.480774
vn 0.623965 0.028290 0.780940
vn 0.548798 -0.029094 0.835449
vn 0.054914 -0.033937 0.997914
vn -0.056536 0.034940 0.997789
vn 0.252743 -0.575386 0.777851
vn 0.272083 -0.474105 0.837374
vn 0.392794 -0.849394 0.352482
vn 0.455720 -0.849466 0.265946
vn -0.101708 -0.848930 0.518626
vn -0.224240 -0.848831 0.478750
vn 0.453871 -0.849608 -0.268640
vn 0.395460 -0.849588 -0.349016
vn 0.826045 -0.563604 0.000000
vn 0.943874 -0.330307 0.000000
vn -0.524551 -0.848742 -0.066952
vn -0.524522 -0.848695 0.067782
vn -0.218587 -0.849150 -0.480795
vn -0.107746 -0.849253 -0.516875
vn -0.913997 -0.061182 -0.401080
vn -0.967885 0.038867 -0.248371
vn 0.872177 0.113159 -0.475922
vn 0.985344 -0.113170 -0.127630
vn 0.937984 0.024132 0.345838
vn 0.985344 -0.113170 0.127630
usemtl (null).000_textur.004
s off
f 1/1/1 2/2/1 3/3/1
f 4/4/2 3/5/2 2/6/2
f 5/7/3 6/8/3 7/9/3
f 7/10/4 1/11/4 5/12/4
f 9/13/5 1/14/5 8/15/5
f 9/16/6 8/17/6 10/18/6
f 11/19/7 2/2/7 12/20/7
f 2/6/8 11/21/8 4/4/8
f 13/9/9 14/8/9 15/22/9
f 15/23/10 12/24/10 13/10/10
f 12/14/11 9/13/11 16/15/11
f 10/18/12 16/17/12 9/16/12
f 17/20/13 7/2/13 18/19/13
f 6/4/14 18/21/14 7/6/14
f 19/7/15 20/8/15 21/9/15
f 21/10/16 17/25/16 19/12/16
f 22/15/17 8/13/17 17/14/17
f 8/16/18 22/17/18 10/18/18
f 23/26/19 21/2/19 24/19/19
f 20/4/20 24/21/20 21/6/20
f 25/7/21 26/8/21 27/9/21
f 27/10/22 23/24/22 25/12/22
f 28/15/23 22/13/23 23/14/23
f 22/16/24 28/17/24 10/18/24
f 29/20/25 27/2/25 30/3/25
f 26/4/26 30/5/26 27/6/26
f 31/7/27 14/8/27 13/9/27
f 13/10/28 29/11/28 31/12/28
f 16/15/29 28/13/29 29/14/29
f 28/16/30 16/17/30 10/18/30
f 32/27/31 11/28/31 33/29/31
f 11/30/32 32/31/32 4/4/32
f 34/32/33 35/8/33 36/33/33
f 36/34/34 33/35/34 34/36/34
f 33/37/35 15/38/35 37/39/35
f 14/18/36 37/40/36 15/41/36
f 38/42/37 5/43/37 39/44/37
f 5/45/38 38/46/38 6/4/38
f 40/47/39 41/8/39 42/48/39
f 42/49/40 39/50/40 40/51/40
f 39/52/41 3/53/41 43/54/41
f 4/18/42 43/55/42 3/56/42
f 44/57/43 19/58/43 45/59/43
f 19/60/44 44/61/44 20/4/44
f 46/62/45 47/8/45 48/63/45
f 48/64/46 45/65/46 46/66/46
f 45/67/47 18/68/47 49/69/47
f 6/18/48 49/70/48 18/71/48
f 50/72/49 25/73/49 51/74/49
f 25/75/50 50/76/50 26/4/50
f 52/77/51 53/8/51 54/78/51
f 54/79/52 51/80/52 52/81/52
f 51/82/53 24/83/53 55/84/53
f 20/18/54 55/85/54 24/86/54
f 56/87/55 31/88/55 57/89/55
f 31/90/56 56/91/56 14/4/56
f 58/92/57 59/8/57 60/93/57
f 60/94/58 57/95/58 58/96/58
f 57/97/59 30/98/59 61/99/59
f 26/18/60 61/100/60 30/101/60
f 62/102/61 36/103/61 63/104/61
f 35/4/62 63/105/62 36/106/62
f 64/107/63 41/8/63 40/108/63
f 40/109/64 62/110/64 64/111/64
f 43/112/65 32/113/65 62/114/65
f 32/115/66 43/116/66 4/18/66
f 65/117/67 42/118/67 66/119/67
f 41/4/68 66/120/68 42/121/68
f 67/122/69 47/8/69 46/123/69
f 46/124/70 65/125/70 67/126/70
f 49/127/71 38/128/71 65/129/71
f 38/130/72 49/131/72 6/18/72
f 68/132/73 48/133/73 69/134/73
f 47/4/74 69/135/74 48/136/74
f 70/137/75 53/8/75 52/138/75
f 52/139/76 68/140/76 70/141/76
f 55/142/77 44/143/77 68/144/77
f 44/145/78 55/146/78 20/18/78
f 71/147/79 54/148/79 72/149/79
f 53/4/80 72/150/80 54/151/80
f 73/93/81 59/8/81 58/92/81
f 58/96/82 71/95/82 73/94/82
f 61/99/83 50/152/83 71/153/83
f 50/154/84 61/100/84 26/18/84
f 74/155/85 60/156/85 75/157/85
f 59/4/86 75/158/86 60/159/86
f 76/160/87 35/8/87 34/161/87
f 34/162/88 74/163/88 76/164/88
f 37/165/89 56/166/89 74/167/89
f 56/168/90 37/169/90 14/18/90
f 77/170/91 64/171/91 78/172/91
f 64/173/92 77/174/92 41/4/92
f 79/175/93 80/8/93 81/176/93
f 81/177/94 78/178/94 79/179/94
f 78/180/95 63/181/95 82/182/95
f 35/18/96 82/183/96 63/184/96
f 83/170/97 67/171/97 84/172/97
f 67/173/98 83/174/98 47/4/98
f 81/185/99 80/8/99 85/176/99
f 85/177/100 84/186/100 81/187/100
f 84/180/101 66/181/101 77/182/101
f 41/18/102 77/183/102 66/184/102
f 86/170/103 70/188/103 87/172/103
f 70/189/104 86/174/104 53/4/104
f 85/185/105 80/8/105 88/176/105
f 88/177/106 87/186/106 85/187/106
f 87/190/107 69/191/107 83/182/107
f 47/18/108 83/183/108 69/192/108
f 89/170/109 73/171/109 90/172/109
f 73/173/110 89/174/110 59/4/110
f 88/185/111 80/8/111 91/176/111
f 91/177/112 90/186/112 88/187/112
f 90/180/113 72/181/113 86/182/113
f 53/18/114 86/183/114 72/184/114
f 82/170/115 76/171/115 92/193/115
f 76/173/116 82/174/116 35/4/116
f 91/185/117 80/8/117 79/194/117
f 79/195/118 92/178/118 91/187/118
f 92/190/119 75/181/119 89/182/119
f 59/18/120 89/183/120 75/184/120
f 93/196/121 94/197/121 95/198/121 96/199/121
f 93/196/121 96/197/121 97/198/121 98/199/121
f 97/196/121 99/197/121 98/198/121
f 100/200/122 101/199/122 102/198/122 103/201/122
f 103/200/123 102/199/123 104/198/123 105/201/123
f 106/201/124 107/198/124 101/199/124 100/200/124
f 108/200/125 109/199/125 107/198/125 106/201/125
f 110/200/126 111/199/126 109/198/126 108/201/126
f 112/200/127 113/199/127 111/198/127 110/201/127
f 105/200/128 104/199/128 113/198/128 112/201/128
f 93/196/129 114/202/129 115/99/129 94/197/129
f 114/202/130 100/200/130 103/201/130 115/99/130
f 94/196/131 115/202/131 116/99/131 95/197/131
f 115/202/132 103/200/132 105/201/132 116/99/132
f 114/202/133 93/196/133 98/197/133 117/99/133
f 117/99/134 106/201/134 100/200/134 114/202/134
f 99/196/135 118/202/135 117/99/135 98/197/135
f 118/202/136 108/200/136 106/201/136 117/99/136
f 97/196/137 119/202/137 118/99/137 99/197/137
f 119/202/138 110/200/138 108/201/138 118/99/138
f 96/196/139 120/202/139 119/99/139 97/197/139
f 120/202/140 112/200/140 110/201/140 119/99/140
f 95/196/141 116/202/141 120/99/141 96/197/141
f 116/202/142 105/200/142 112/201/142 120/99/142
usemtl (null).000_textur.005
f 67/203/143 66/204/143 84/205/143
f 66/203/144 67/204/144 65/205/144
f 46/203/145 49/206/145 65/205/145
f 45/203/146 49/204/146 46/205/146
f 44/203/147 48/206/147 68/205/147
f 44/203/148 45/205/148 48/204/148
f 19/203/149 18/204/149 45/205/149
f 18/203/150 19/204/150 17/205/150
f 83/203/151 84/205/151 85/204/151
f 87/203/152 83/204/152 85/205/152
f 86/203/153 87/205/153 88/204/153
f 90/203/154 86/204/154 88/205/154
f 69/203/155 87/205/155 70/206/155
f 69/203/156 70/204/156 68/205/156
f 72/203/157 90/205/157 73/206/157
f 72/203/158 73/204/158 71/205/158
f 58/203/159 57/205/159 61/206/159
f 71/203/160 58/205/160 61/204/160
f 54/203/161 71/205/161 50/204/161
f 50/203/162 51/205/162 54/204/162
f 24/203/163 51/205/163 25/206/163
f 24/203/164 25/204/164 23/205/164
f 31/203/165 29/205/165 30/206/165
f 31/203/166 30/204/166 57/205/166
f 91/203/167 92/205/167 89/206/167
f 89/203/168 90/205/168 91/204/168
f 76/203/169 74/205/169 75/206/169
f 76/203/170 75/204/170 92/205/170
f 56/203/171 57/205/171 60/204/171
f 60/203/172 74/205/172 56/204/172
f 82/203/173 79/204/173 78/205/173
f 82/203/174 92/205/174 79/204/174
f 63/203/175 78/205/175 64/206/175
f 63/203/176 64/204/176 62/205/176
f 81/203/177 84/205/177 77/206/177
f 77/203/178 78/205/178 81/204/178
f 43/203/179 62/205/179 40/204/179
f 39/203/180 43/204/180 40/205/180
f 38/203/181 39/205/181 42/204/181
f 42/203/182 65/205/182 38/204/182
f 5/204/183 1/205/183 3/203/183
f 5/203/184 3/204/184 39/205/184
f 2/203/185 1/205/185 9/204/185
f 2/203/186 9/204/186 12/205/186
f 8/206/187 1/205/187 7/203/187
f 7/203/188 17/205/188 8/204/188
f 13/203/189 12/205/189 16/206/189
f 29/203/190 13/205/190 16/204/190
f 15/203/191 11/206/191 12/205/191
f 11/203/192 15/204/192 33/205/192
f 21/203/193 23/205/193 22/204/193
f 17/203/194 21/205/194 22/204/194
f 28/203/195 23/205/195 27/204/195
f 27/203/196 29/205/196 28/204/196
f 55/203/197 52/204/197 51/205/197
f 68/203/198 52/205/198 55/204/198
f 34/203/199 37/206/199 74/205/199
f 33/203/200 37/204/200 34/205/200
f 36/207/201 62/208/201 32/209/201
f 32/203/202 33/205/202 36/204/202
