# Blender v2.55 (sub 0) OBJ File: 'weapons.blend'
# www.blender.org
o Morningstar_0
v 5.918529 -0.703696 0.703176
v 5.918529 -0.989001 -0.112192
v 5.918529 -0.529408 -0.843633
v 5.918529 0.329006 -0.940354
v 5.918529 0.939832 -0.329515
v 5.918529 0.843123 0.528896
v 5.918529 0.111672 0.988490
v -6.989609 -0.478608 -0.762784
v -6.989609 -0.636180 0.635663
v -6.989609 0.762274 0.478097
v -6.989609 0.849710 -0.297981
v -6.989609 0.100982 0.893609
v -6.989609 0.297470 -0.850228
v -6.989609 -0.894120 -0.101500
vt 0.793041 0.752493
vt 0.972025 0.752493
vt 0.972025 0.931477
vt 0.793041 0.931477
vt 0.327460 0.033743
vt 0.327460 0.078489
vt 0.406356 0.078489
vt 0.406356 0.033743
vn 1.000000 0.000000 0.000000
vn -0.006664 -0.943864 0.330267
vn -0.006664 -0.846706 -0.532020
vn -0.006664 -0.330275 0.943861
vn -0.006664 0.532015 0.846709
vn -0.006664 0.993691 0.111951
vn -0.006664 0.707097 -0.707085
vn -0.006664 -0.111963 -0.993690
usemtl (null).000_textur.001_texture_weapons.png
s off
f 1/1/1 2/2/1 3/3/1 4/4/1
f 1/1/1 4/2/1 5/3/1 7/4/1
f 5/1/1 6/2/1 7/3/1
f 1/5/2 9/6/2 14/7/2 2/8/2
f 2/5/3 14/6/3 8/7/3 3/8/3
f 9/6/4 1/5/4 7/8/4 12/7/4
f 6/5/5 10/6/5 12/7/5 7/8/5
f 5/5/6 11/6/6 10/7/6 6/8/6
f 4/5/7 13/6/7 11/7/7 5/8/7
f 3/5/8 8/6/8 13/7/8 4/8/8
