# Blender v2.55 (sub 0) OBJ File: ''
# www.blender.org
o Mesh.006_Fingers
v -1.323930 -0.326020 1.520313
v -1.224285 0.688790 3.744886
v -1.224283 1.273350 3.497439
v -1.323930 0.342878 1.299327
v 2.023673 0.342879 1.299327
v 1.737290 1.000300 2.852395
v 1.737289 0.415740 3.099842
v 2.023672 -0.326020 1.520313
v -0.035354 0.882002 4.201323
v -0.035353 1.466562 3.953876
v 2.023672 -0.326020 -0.153488
v 2.023673 0.308756 -0.153489
v -1.323930 -0.326020 -0.153488
v -1.323930 0.308756 -0.153489
vt 0.054873 0.032106
vt 0.057062 0.012230
vt 0.060175 0.017009
vt 0.062361 0.051965
vt 0.104827 0.052605
vt 0.104966 0.026895
vt 0.109470 0.012981
vt 0.121674 0.035075
vt 0.079757 0.001592
vt 0.079850 0.007555
vt 0.154223 -0.001168
vt 0.176533 0.033801
vt 0.121073 0.013424
vt 0.174677 0.012085
vt 0.121326 0.062907
vt 0.101869 0.058450
vt 0.179180 0.059151
vt 0.062056 0.057101
vt 0.055223 0.060191
vn -0.999148 0.014452 0.038666
vn 0.986297 0.057752 0.154540
vn -0.384787 0.359805 0.849988
vn 0.559334 0.323136 0.763367
vn -0.000000 0.920892 -0.389818
vn 0.000000 -0.911722 0.410808
vn 0.029271 -0.902720 0.429232
vn -0.011681 -0.909545 0.415441
vn 1.000000 -0.000001 0.000000
vn 0.000000 -1.000000 0.000000
vn -1.000000 0.000000 0.000000
vn -0.000000 0.999724 -0.023481
vn 0.000000 -0.000002 -1.000000
usemtl None_maleSkin.png.004
s off
f 1/1/1 2/2/1 3/3/1 4/4/1
f 5/5/2 6/6/2 7/7/2 8/8/2
f 2/2/3 9/9/3 10/10/3 3/3/3
f 9/9/4 7/7/4 6/6/4 10/10/4
f 10/10/5 5/5/5 4/4/5
f 3/3/5 10/10/5 4/4/5
f 10/10/5 6/6/5 5/5/5
f 9/11/6 1/12/6 8/8/6
f 7/13/7 9/11/7 8/8/7
f 2/14/8 1/12/8 9/11/8
f 5/5/9 8/8/9 11/15/9 12/16/9
f 8/8/10 1/12/10 13/17/10 11/15/10
f 1/1/11 4/4/11 14/18/11 13/19/11
f 4/4/12 5/5/12 12/16/12 14/18/12
f 13/19/13 14/18/13 12/16/13 11/15/13
