# Blender v2.55 (sub 0) OBJ File: 'bodyparts.blend'
# www.blender.org
o Mesh.004_Forearm
v 1.000000 1.720653 0.023931
v 1.000000 1.230002 -1.223716
v -1.000002 1.230001 -1.223715
v -1.000002 1.720652 0.023931
v -1.996090 0.000565 0.004507
v 2.003910 0.000564 0.004506
v 1.009775 0.001781 -1.729587
v -0.990227 0.001781 -1.729586
v 1.009775 -1.216012 -1.223667
v -0.990227 -1.216011 -1.223667
v 1.000000 -1.738524 0.008980
v -1.000000 -1.738524 0.008980
v 0.991925 1.706270 4.181098
v 1.500000 -0.011397 12.023932
v 0.500000 0.854629 12.023932
v 0.991926 -1.726604 4.171211
v 0.500000 -0.877422 12.023932
v -0.500000 -0.877422 12.023932
v -0.991926 -1.726604 4.171211
v -1.500000 -0.011396 12.023932
v -0.991927 1.706269 4.181098
v -0.500000 0.854629 12.023932
vt 0.168935 0.267871
vt 0.165870 0.284583
vt 0.144251 0.277690
vt 0.147683 0.263921
vt 0.128405 0.264411
vt 0.199008 0.280908
vt 0.167541 0.306693
vt 0.129651 0.296915
vt 0.090707 0.314374
vt 0.089877 0.287693
vt 0.112985 0.280297
vt 0.053931 0.285854
vt 0.086472 0.270503
vt 0.108241 0.265448
vt 0.170207 0.220784
vt 0.178916 0.113849
vt 0.160114 0.115998
vt 0.083994 0.221346
vt 0.074048 0.113849
vt 0.092936 0.115870
vt 0.107595 0.116885
vt 0.106496 0.221001
vt 0.126346 0.116957
vt 0.148497 0.221263
vt 0.145342 0.116687
vn -0.000001 0.930623 -0.365978
vn -0.847984 0.493251 -0.193977
vn 0.846112 0.496027 -0.195068
vn 0.848799 0.207115 -0.486461
vn -0.848318 0.195862 -0.491930
vn -0.000001 0.380836 -0.924643
vn -0.000000 -0.383650 -0.923479
vn -0.846741 -0.204104 -0.491296
vn 0.849532 -0.202389 -0.487169
vn 0.848153 -0.490124 -0.201035
vn -0.847641 -0.486047 -0.212753
vn -0.000000 -0.920697 -0.390278
vn 0.897536 0.439294 0.038066
vn 0.649746 0.750261 0.122224
vn 0.863676 0.504036 0.003422
vn 0.898802 -0.436770 0.037247
vn 0.866058 -0.499934 0.003112
vn 0.649776 -0.750297 0.121841
vn 0.000000 -0.994204 0.107512
vn 0.000000 -0.999996 0.002864
vn -0.899866 -0.434619 0.036709
vn -0.649777 -0.750297 0.121841
vn -0.867742 -0.497005 0.003107
vn -0.898611 0.437138 0.037524
vn -0.865384 0.501098 0.003415
vn -0.649745 0.750262 0.122224
vn -0.000001 0.999994 0.003460
vn -0.000000 0.994156 0.107954
usemtl None_maleSkin.png.002
s off
f 1/1/1 2/2/1 3/3/1 4/4/1
f 4/4/2 3/3/2 5/5/2
f 2/2/3 1/1/3 6/6/3
f 6/6/4 7/7/4 2/2/4
f 3/3/5 8/8/5 5/5/5
f 2/2/6 7/7/6 8/8/6 3/3/6
f 7/9/7 9/10/7 10/11/7 8/8/7
f 8/8/8 10/11/8 5/5/8
f 6/12/9 9/10/9 7/9/9
f 6/12/10 11/13/10 9/10/10
f 10/11/11 12/14/11 5/5/11
f 9/10/12 11/13/12 12/14/12 10/11/12
f 13/15/13 14/16/13 6/6/13
f 15/17/14 14/16/14 13/15/14
f 6/6/15 1/1/15 13/15/15
f 16/18/16 6/12/16 14/19/16
f 11/13/17 6/12/17 16/18/17
f 16/18/18 14/19/18 17/20/18
f 17/20/19 18/21/19 19/22/19 16/18/19
f 16/18/20 19/22/20 12/14/20 11/13/20
f 19/22/21 20/23/21 5/5/21
f 18/21/22 20/23/22 19/22/22
f 19/22/23 5/5/23 12/14/23
f 21/24/24 5/5/24 20/23/24
f 4/4/25 5/5/25 21/24/25
f 21/24/26 20/23/26 22/25/26
f 1/1/27 4/4/27 21/24/27 13/15/27
f 13/15/28 21/24/28 22/25/28 15/17/28
