# Blender v2.55 (sub 0) OBJ File: 'bodyparts.blend'
# www.blender.org
o Mesh.005_Hand
v -1.360680 0.571384 1.892586
v 1.723082 0.501984 3.576106
v 1.373289 1.132406 -0.107414
v -0.699192 1.248311 -0.107414
v -1.227425 0.571384 3.559449
v -1.360681 -0.428616 1.892586
v 1.396421 -0.267270 -0.107414
v 1.746215 -0.336084 3.576106
v -1.227427 -0.428616 3.559449
v -1.360681 -0.421811 -0.107414
v -2.070876 0.460195 1.892586
v -1.967446 0.980435 -0.107414
v -1.769237 1.259044 1.910227
v -2.184454 1.797521 1.892586
v -2.785987 0.998672 1.892586
v -2.591938 0.998672 3.145081
v -2.184455 1.797521 3.215644
v -2.070876 0.460195 3.215644
v -1.945645 1.259044 3.233284
v -1.681349 1.166716 4.018686
v -1.762232 0.925844 4.060619
v -1.791663 1.329080 4.078130
v -1.947538 1.088208 4.170869
v -1.029936 0.413250 -0.607414
v 1.639319 0.413250 -0.607414
v 1.955799 0.071384 3.876224
v -1.443965 0.071384 3.643029
v -1.360681 0.071384 1.892586
v -0.435341 0.071384 4.184376
vt 0.058538 0.079502
vt 0.121029 0.063733
vt 0.120833 0.103293
vt 0.094979 0.114317
vt 0.060385 0.061638
vt 0.178259 0.078157
vt 0.132474 0.102964
vt 0.130688 0.062831
vt 0.174912 0.057093
vt 0.178253 0.078277
vt 0.166907 0.116213
vt 0.131899 0.103624
vt 0.166979 0.116489
vt 0.187745 0.078644
vt 0.179958 0.123282
vt 0.080981 0.123936
vt 0.045225 0.084801
vt 0.037131 0.091240
vt 0.195357 0.082960
vt 0.205060 0.088295
vt 0.203555 0.065831
vt 0.216683 0.068268
vt 0.194034 0.056789
vt 0.021883 0.070851
vt 0.032147 0.071037
vt 0.043724 0.060157
vt 0.041749 0.056908
vt 0.027289 0.057257
vt 0.035235 0.049633
vt 0.017675 0.058679
vt 0.198739 0.049092
vt 0.215219 0.044104
vt 0.219448 0.055912
vt 0.027416 0.043645
vt 0.162508 0.124603
vt 0.126676 0.110637
vt 0.095308 0.124603
vt 0.125666 0.059754
vt 0.179371 0.053784
vt 0.178714 0.074320
vt 0.054825 0.071719
vt 0.056416 0.056918
vt 0.164266 0.053341
vt 0.065512 0.055858
vn -0.073448 0.981823 0.175010
vn 0.052598 0.940493 0.335719
vn 0.023525 0.999721 -0.001881
vn 0.042023 -0.998860 -0.022651
vn 0.031116 -0.999513 -0.002487
vn 0.055964 -0.998427 -0.003397
vn -0.863628 -0.496436 -0.087742
vn 0.242219 0.962350 0.123340
vn 0.784255 0.599499 -0.159826
vn -0.585067 -0.776983 -0.232366
vn -0.758059 0.570818 -0.315456
vn -0.845054 0.530877 0.063668
vn -0.657680 -0.751666 0.049551
vn 0.852522 0.519593 0.056835
vn 0.963761 -0.258915 0.064251
vn 0.938719 -0.192767 -0.285741
vn 0.872985 0.446576 -0.196131
vn -0.598881 -0.631493 0.492502
vn -0.756846 0.420754 0.500150
vn 0.496644 -0.001443 0.867953
vn 0.015801 -0.554825 -0.831817
vn 0.013215 0.540650 -0.841143
vn 0.915361 0.401737 -0.026848
vn 0.912934 -0.397030 -0.094441
vn -0.977002 -0.212752 0.014286
vn -0.977001 0.212755 0.014287
vn -0.010017 -0.018296 0.999783
vn 0.000000 0.000000 1.000000
vn 0.043138 -0.000000 0.999069
vn -0.114772 0.543386 -0.831600
vn -0.567673 -0.245637 -0.785754
vn 0.021290 -0.793647 0.608006
vn 0.099990 -0.622902 0.775883
vn -0.446067 -0.332108 0.831101
vn 0.015122 0.790006 0.612912
vn -0.446067 0.332109 0.831100
vn 0.101745 0.605253 0.789504
usemtl None_maleSkin.png.003
s off
f 1/1/1 2/2/1 3/3/1
f 4/4/2 1/1/2 3/3/2
f 1/1/3 5/5/3 2/2/3
f 6/6/4 7/7/4 8/8/4
f 9/9/5 6/6/5 8/8/5
f 6/10/6 10/11/6 7/12/6
f 10/13/7 6/6/7 11/14/7 12/15/7
f 1/1/8 4/4/8 12/16/8 13/17/8
f 13/17/9 12/16/9 14/18/9
f 12/15/10 11/14/10 15/19/10
f 12/15/11 15/19/11 14/20/11
f 14/20/12 15/19/12 16/21/12 17/22/12
f 15/19/13 11/14/13 18/23/13 16/21/13
f 13/17/14 14/18/14 17/24/14 19/25/14
f 11/26/15 13/17/15 19/25/15 18/27/15
f 18/27/16 19/25/16 20/28/16 21/29/16
f 19/25/17 17/24/17 22/30/17 20/28/17
f 16/21/18 18/23/18 21/31/18 23/32/18
f 17/22/19 16/21/19 23/32/19 22/33/19
f 21/29/20 20/28/20 22/30/20 23/34/20
f 10/13/21 24/35/21 25/36/21 7/7/21
f 24/37/22 4/4/22 3/3/22 25/36/22
f 2/2/23 26/38/23 25/36/23 3/3/23
f 26/38/24 8/8/24 7/7/24 25/36/24
f 9/9/25 27/39/25 28/40/25 6/6/25
f 1/1/26 28/41/26 27/42/26 5/5/26
f 28/41/27 13/17/27 11/26/27
f 6/6/28 28/40/28 11/14/28
f 28/41/29 1/1/29 13/17/29
f 4/4/30 24/37/30 12/16/30
f 24/35/31 10/13/31 12/15/31
f 29/43/32 9/9/32 8/8/32
f 26/38/33 29/43/33 8/8/33
f 29/43/34 27/39/34 9/9/34
f 29/44/35 2/2/35 5/5/35
f 27/42/36 29/44/36 5/5/36
f 29/44/37 26/38/37 2/2/37
