# Blender v2.55 (sub 0) OBJ File: ''
# www.blender.org
o Mesh.007_Leg
v 1.565910 -3.287566 11.437059
v 1.597998 -3.354098 -0.044033
v 3.611211 -0.826381 -0.044033
v 3.539189 -0.809988 11.437059
v 2.890179 2.323618 -0.044033
v 2.832458 2.277530 11.437058
v -0.022146 3.723885 -0.044033
v -0.022099 3.650023 11.437059
v -2.932723 2.319989 -0.044033
v -2.874943 2.273974 11.437059
v -3.649826 -0.830907 -0.044033
v -3.577825 -0.814421 11.437059
v -1.633462 -3.356112 -0.044033
v -1.601461 -3.289540 11.437059
v 1.066064 -2.251277 18.902662
v -1.102907 -2.252630 18.902662
v -2.456294 -0.557702 18.902662
v -1.974970 1.557187 18.902662
v -0.021382 2.499486 18.902664
v 1.933379 1.559623 18.902662
v 2.417338 -0.554668 18.902662
v -1.197934 -2.450282 -1.797565
v 1.161340 -2.448811 -1.797565
v -2.670072 -0.606642 -1.797565
v -2.146517 1.693812 -1.797566
v -0.021519 2.718791 -1.797566
v 2.104755 1.696462 -1.797566
v 2.631177 -0.603337 -1.797565
v -0.019824 -0.000001 -2.513739
vt 0.575534 0.470052
vt 0.569442 0.567032
vt 0.555594 0.602124
vt 0.544320 0.473673
vt 0.741488 0.471964
vt 0.725186 0.604582
vt 0.717710 0.567638
vt 0.708187 0.467966
vt 0.686825 0.546291
vt 0.679710 0.465278
vt 0.656838 0.539014
vt 0.654215 0.463905
vt 0.628799 0.539665
vt 0.629315 0.464218
vt 0.600969 0.547763
vt 0.603473 0.466336
vt 0.582471 0.348951
vt 0.606194 0.351463
vt 0.629697 0.352752
vt 0.653035 0.353268
vt 0.676347 0.352793
vt 0.699933 0.350369
vt 0.723462 0.344128
vt 0.558499 0.344129
vt 0.613012 0.565101
vt 0.594262 0.582387
vt 0.633202 0.557883
vt 0.653859 0.558028
vt 0.674338 0.566028
vt 0.692693 0.582946
vt 0.686970 0.604268
vt 0.598223 0.607069
vt 0.643766 0.597374
vn 0.782207 -0.622992 0.005796
vn 0.974773 0.223125 0.005796
vn 0.433315 0.901224 0.005796
vn -0.434438 0.900683 0.005796
vn -0.975050 0.221909 0.005796
vn -0.781429 -0.623967 0.005796
vn 0.000623 -0.999983 0.005797
vn 0.000617 -0.990497 0.137531
vn -0.774017 -0.618047 0.137531
vn -0.965801 0.219805 0.137530
vn -0.430317 0.892139 0.137530
vn 0.429205 0.892675 0.137530
vn 0.965526 0.221008 0.137531
vn 0.774787 -0.617083 0.137531
vn 0.000554 -0.888515 -0.458847
vn -0.694323 -0.554414 -0.458846
vn -0.866362 0.197173 -0.458847
vn -0.386012 0.800284 -0.458847
vn 0.385014 0.800765 -0.458847
vn 0.866115 0.198253 -0.458847
vn 0.695014 -0.553547 -0.458847
vn 0.219508 -0.174829 -0.959818
vn 0.273547 0.062614 -0.959818
vn 0.121600 0.252907 -0.959818
vn -0.121915 0.252755 -0.959818
vn -0.273625 0.062273 -0.959818
vn -0.219290 -0.175102 -0.959818
vn 0.000175 -0.280622 -0.959818
usemtl None_maleSkin.png.005
s off
f 1/1/1 2/2/1 3/3/1 4/4/1
f 4/5/2 3/6/2 5/7/2 6/8/2
f 6/8/3 5/7/3 7/9/3 8/10/3
f 8/10/4 7/9/4 9/11/4 10/12/4
f 10/12/5 9/11/5 11/13/5 12/14/5
f 12/14/6 11/13/6 13/15/6 14/16/6
f 2/2/7 1/1/7 14/16/7 13/15/7
f 14/16/8 1/1/8 15/17/8 16/18/8
f 12/14/9 14/16/9 16/18/9 17/19/9
f 10/12/10 12/14/10 17/19/10 18/20/10
f 8/10/11 10/12/11 18/20/11 19/21/11
f 6/8/12 8/10/12 19/21/12 20/22/12
f 4/5/13 6/8/13 20/22/13 21/23/13
f 1/1/14 4/4/14 21/24/14 15/17/14
f 2/2/15 13/15/15 22/25/15 23/26/15
f 13/15/16 11/13/16 24/27/16 22/25/16
f 11/13/17 9/11/17 25/28/17 24/27/17
f 9/11/18 7/9/18 26/29/18 25/28/18
f 7/9/19 5/7/19 27/30/19 26/29/19
f 5/7/20 3/6/20 28/31/20 27/30/20
f 3/3/21 2/2/21 23/26/21 28/32/21
f 28/32/22 23/26/22 29/33/22
f 27/30/23 28/31/23 29/33/23
f 26/29/24 27/30/24 29/33/24
f 25/28/25 26/29/25 29/33/25
f 24/27/26 25/28/26 29/33/26
f 22/25/27 24/27/27 29/33/27
f 23/26/28 22/25/28 29/33/28
