# Blender v2.55 (sub 0) OBJ File: ''
# www.blender.org
o Mesh.004_Mesh.004_Cylinder.005
v 1.171419 -2.795702 7.807209
v -0.101797 -6.018950 7.227678
v -0.101797 -5.453015 1.219695
v 1.171420 -2.464487 0.142157
v -1.243959 -2.348910 7.873558
v -1.243957 -1.612034 0.268744
v -1.394991 0.530888 11.436318
v -1.394989 1.145835 4.627580
v -0.441164 1.542987 15.398365
v -0.441164 4.635314 7.659354
v 0.899271 1.295034 15.361547
v 0.899271 4.162236 7.589099
v 1.616938 -0.026254 11.353584
v 1.616938 0.082841 4.469726
v 1.171420 -0.973269 -2.704168
v 1.616940 1.763314 -0.879533
v -1.394989 2.826308 -0.721684
v -1.243957 -0.120816 -2.577583
v -0.101797 -2.502815 -2.931303
v 0.072246 1.466797 -2.959911
v 0.899273 4.320091 0.532706
v -0.441164 4.793169 0.602962
v 0.899271 4.751584 3.620418
v -0.441164 5.224659 3.690673
v 1.171416 -2.417411 13.390224
vn 0.924279 -0.380899 -0.024992
vn -0.956042 -0.291895 -0.027936
vn -0.998871 -0.047287 -0.004435
vn -0.954267 0.289697 0.073825
vn 0.256506 0.902243 0.346643
vn 0.977885 0.204962 0.041622
vn 0.987368 -0.158375 -0.004793
vn 0.992320 -0.115358 -0.044643
vn -0.999203 -0.037216 -0.014402
vn -0.907460 -0.354717 -0.225150
vn 0.796878 -0.510067 -0.323755
vn 0.752374 0.276243 -0.598016
vn 0.661726 0.496195 -0.562058
vn 0.223101 0.728357 -0.647860
vn -0.406794 0.637763 -0.654047
vn -0.650208 0.380717 -0.657483
vn -0.285161 0.005595 -0.958463
vn 0.193688 -0.015562 -0.980940
vn 0.985711 0.160705 0.050486
vn 0.955931 0.290766 -0.040633
vn 0.987484 0.156008 0.023167
vn 0.336048 0.931629 0.138346
vn 0.323833 0.937009 -0.130942
vn -0.966831 0.243675 0.076551
vn -0.971328 0.235165 0.034922
vn -0.879709 0.470935 -0.065811
vn 0.984769 -0.173471 0.011754
vn 0.928221 -0.371179 0.025151
vn -0.063088 -0.471655 0.879523
vn 0.982495 -0.025934 0.184475
vn -0.809374 -0.492097 0.320555
vn -0.809045 -0.473392 0.348348
vn -0.864643 -0.334979 0.374409
usemtl (null).002
s off
f 1//1 2//1 3//1 4//1
f 2//2 5//2 6//2 3//2
f 5//3 7//3 8//3 6//3
f 7//4 9//4 10//4 8//4
f 9//5 11//5 12//5 10//5
f 11//6 13//6 14//6 12//6
f 13//7 1//7 4//7 14//7
f 14//8 4//8 15//8 16//8
f 6//9 8//9 17//9 18//9
f 3//10 6//10 18//10 19//10
f 4//11 3//11 19//11 15//11
f 20//12 16//12 15//12
f 20//13 21//13 16//13
f 20//14 22//14 21//14
f 20//15 17//15 22//15
f 20//16 18//16 17//16
f 20//17 19//17 18//17
f 20//18 15//18 19//18
f 23//19 14//19 16//19
f 21//20 23//20 16//20
f 23//21 12//21 14//21
f 12//22 23//22 24//22 10//22
f 23//23 21//23 22//23 24//23
f 24//24 17//24 8//24
f 10//25 24//25 8//25
f 24//26 22//26 17//26
f 25//27 1//27 13//27
f 1//28 25//28 2//28
f 11//29 9//29 25//29
f 13//30 11//30 25//30
f 9//31 7//31 25//31
f 7//32 5//32 25//32
f 5//33 2//33 25//33
