# Blender v2.55 (sub 0) OBJ File: ''
# www.blender.org
o Mesh.003_Mesh_Mesh.006_Fingers
v -1.333236 -0.245722 2.876555
v -1.260067 -0.143772 6.761803
v -1.260065 0.197769 6.766752
v -1.333236 0.568440 2.876555
v 1.124896 0.568440 2.876555
v 0.914606 0.197769 6.523866
v 0.914605 -0.143772 6.518916
v 1.124895 -0.245722 2.876555
v -0.387039 -0.245722 7.815045
v -0.387039 0.568440 6.474230
v 1.124895 -0.245722 -0.278954
v 1.124896 0.568440 -0.278954
v -1.333236 -0.245722 -0.278954
v -1.333236 0.568440 -0.278954
v -0.387039 0.161359 7.817519
vt 0.582484 0.064675
vt 0.584673 0.044799
vt 0.587786 0.049578
vt 0.589972 0.084534
vt 0.632438 0.085174
vt 0.632577 0.059464
vt 0.637081 0.045550
vt 0.649285 0.067644
vt 0.607461 0.040124
vt 0.681834 0.031401
vt 0.704144 0.066370
vt 0.648684 0.045993
vt 0.702288 0.044654
vt 0.648937 0.095476
vt 0.629480 0.091019
vt 0.706791 0.091720
vt 0.589667 0.089670
vt 0.582834 0.092760
vt 0.607414 0.037143
vt 0.607368 0.034161
vn -0.999823 -0.000079 0.018815
vn 0.998340 -0.000249 0.057590
vn 0.000000 1.000000 -0.000000
vn -0.361854 0.927364 0.095168
vn 0.268160 0.956760 0.112695
vn 0.000000 -1.000000 0.000000
vn 0.111898 -0.993129 0.034258
vn -0.150100 -0.988252 0.028759
vn 1.000000 -0.000001 0.000000
vn -1.000000 0.000000 0.000000
vn 0.000000 0.000001 -1.000000
vn -0.295363 0.914322 0.277083
vn 0.252967 0.925893 0.280590
vn -0.769720 -0.006328 0.638351
vn 0.705436 -0.007029 0.708739
usemtl None_maleSkin.png.000
s off
f 1/1/1 2/2/1 3/3/1 4/4/1
f 5/5/2 6/6/2 7/7/2 8/8/2
f 10/9/3 5/5/3 4/4/3
f 3/3/4 10/9/4 4/4/4
f 10/9/5 6/6/5 5/5/5
f 9/10/6 1/11/6 8/8/6
f 7/12/7 9/10/7 8/8/7
f 2/13/8 1/11/8 9/10/8
f 5/5/9 8/8/9 11/14/9 12/15/9
f 8/8/6 1/11/6 13/16/6 11/14/6
f 1/1/10 4/4/10 14/17/10 13/18/10
f 4/4/3 5/5/3 12/15/3 14/17/3
f 13/18/11 14/17/11 12/15/11 11/14/11
f 15/19/12 10/9/12 3/3/12
f 10/9/13 15/19/13 6/6/13
f 3/3/14 2/2/14 9/20/14 15/19/14
f 6/6/15 15/19/15 9/20/15 7/7/15
