# Blender v2.55 (sub 0) OBJ File: ''
# www.blender.org
o Mesh.009_Cylinder.008
v -0.000252 0.420136 -9.436164
v -2.873265 -5.454997 -7.464185
v -3.740145 -0.310063 -7.464188
v 0.000002 1.996487 23.234915
v -7.796027 -0.310043 18.000000
v -6.264109 -8.169421 18.000004
v -1.205515 4.476929 -7.464190
v -2.516673 5.109315 17.999996
v 1.223643 4.463745 -7.464190
v 2.543704 5.096131 17.999996
v 3.747836 -0.339687 -7.464189
v 7.802793 -0.339667 17.999998
v 2.858176 -5.478753 -7.464186
v 6.245166 -8.193181 18.000002
v -0.011948 -8.761749 -7.464186
v -6.002776 -0.310054 -0.052979
v -1.937956 5.109302 -0.052981
v 1.958264 5.096118 -0.052981
v 6.007481 -0.339677 -0.052980
v -6.264110 -10.694607 9.000005
v -4.823282 -10.694613 -0.052977
v 6.245167 -10.718367 9.000003
v 4.808194 -10.718370 -0.052977
v -0.011952 -13.718565 -0.052976
v -0.015201 -13.718552 18.000006
v -3.848273 -8.662000 -3.758582
v 3.833185 -8.685757 -3.758582
v -0.015199 -14.621937 9.000007
v -0.007599 -6.692223 22.293783
vn -0.453342 -0.076385 -0.888058
vn -0.533078 -0.103905 0.839661
vn -0.489590 0.259229 -0.832528
vn -0.570486 0.555748 0.604723
vn 0.002376 0.437748 -0.899094
vn 0.002241 0.859994 0.510299
vn 0.490289 0.257646 -0.832608
vn 0.571939 0.553346 0.605553
vn 0.451728 -0.078202 -0.888722
vn 0.532043 -0.105522 0.840116
vn 0.233852 -0.204443 -0.950535
vn -0.235512 -0.203787 -0.950266
vn -0.824552 0.533157 -0.189359
vn -0.756458 0.652151 -0.049696
vn 0.004153 0.996371 -0.085018
vn 0.002944 0.999996 -0.000001
vn 0.826258 0.530444 -0.189543
vn 0.758658 0.649566 -0.050025
vn -0.993249 -0.061015 -0.098662
vn -0.981416 -0.111471 -0.156197
vn -0.980117 -0.191040 0.053602
vn 0.993089 -0.063402 -0.098760
vn 0.979435 -0.194256 0.054504
vn 0.981266 -0.113388 -0.155756
vn 0.526579 -0.846007 -0.083583
vn 0.647551 -0.733690 0.205856
vn -0.649852 -0.731802 0.205326
vn -0.530234 -0.843641 -0.084389
vn -0.949922 -0.116374 -0.290010
vn -0.914541 -0.154093 -0.373991
vn -0.945418 -0.107382 -0.307658
vn 0.949747 -0.118857 -0.289574
vn 0.944930 -0.109189 -0.308521
vn 0.912685 -0.158002 -0.376885
vn 0.483394 -0.727653 -0.486674
vn 0.597174 -0.522073 -0.608953
vn 0.452178 -0.726474 -0.517465
vn -0.487681 -0.725674 -0.485350
vn -0.455408 -0.724587 -0.517279
vn -0.600533 -0.519638 -0.607730
vn 0.527197 -0.845494 0.084868
vn 0.527228 -0.845544 -0.084185
vn -0.530220 -0.843651 -0.084376
vn -0.530206 -0.843629 0.084680
vn 0.548907 -0.090488 0.830971
vn 0.418313 -0.473957 0.774842
vn -0.419946 -0.472903 0.774602
vn -0.549124 -0.089523 0.830933
usemtl (null).007
s off
f 1//1 2//1 3//1
f 4//2 5//2 6//2
f 1//3 3//3 7//3
f 4//4 8//4 5//4
f 1//5 7//5 9//5
f 4//6 10//6 8//6
f 1//7 9//7 11//7
f 4//8 12//8 10//8
f 1//9 11//9 13//9
f 4//10 14//10 12//10
f 1//11 13//11 15//11
f 2//12 1//12 15//12
f 3//13 16//13 17//13 7//13
f 16//14 5//14 8//14 17//14
f 7//15 17//15 18//15 9//15
f 17//16 8//16 10//16 18//16
f 9//17 18//17 19//17 11//17
f 18//18 10//18 12//18 19//18
f 20//19 5//19 16//19
f 21//20 20//20 16//20
f 20//21 6//21 5//21
f 22//22 19//22 12//22
f 14//23 22//23 12//23
f 22//24 23//24 19//24
f 23//25 22//25 24//25
f 22//26 14//26 25//26
f 6//27 20//27 25//27
f 20//28 21//28 24//28
f 26//29 16//29 3//29
f 2//30 26//30 3//30
f 26//31 21//31 16//31
f 27//32 11//32 19//32
f 23//33 27//33 19//33
f 27//34 13//34 11//34
f 27//35 24//35 15//35
f 13//36 27//36 15//36
f 27//37 23//37 24//37
f 26//38 15//38 24//38
f 21//39 26//39 24//39
f 26//40 2//40 15//40
f 25//41 28//41 22//41
f 28//42 24//42 22//42
f 24//43 28//43 20//43
f 28//44 25//44 20//44
f 4//45 29//45 14//45
f 29//46 25//46 14//46
f 25//47 29//47 6//47
f 29//48 4//48 6//48
